{"glyphs":{"0":{"ha":736,"x_min":0,"x_max":0,"o":"m 49 389 b 140 686 49 517 79 616 b 368 792 201 756 277 792 b 600 688 464 792 542 757 b 688 389 658 618 688 519 b 592 93 688 263 656 164 b 368 -14 528 22 453 -14 b 140 92 277 -14 201 21 b 49 389 79 162 49 261 m 201 389 b 368 56 201 167 257 56 b 498 138 430 56 473 83 b 535 389 522 193 535 277 b 498 640 535 501 522 584 b 368 722 473 695 430 722 b 201 389 257 722 201 611 "},"1":{"ha":736,"x_min":0,"x_max":0,"o":"m 153 0 b 129 -1 147 0 139 0 b 108 -1 119 -1 112 -1 b 84 6 97 -1 89 1 b 76 38 79 11 76 22 b 83 70 76 54 79 65 b 107 78 88 75 96 78 b 123 77 110 78 115 78 b 142 76 131 77 137 76 l 247 76 b 303 84 278 76 296 79 b 313 129 309 89 313 104 l 313 538 b 308 564 313 551 311 560 b 290 569 306 568 300 569 l 172 569 b 150 569 167 569 159 569 b 132 568 141 568 135 568 b 108 576 121 568 113 571 b 100 607 103 581 100 591 l 100 623 b 103 634 100 627 101 631 b 106 641 105 637 106 640 b 113 644 107 642 109 644 b 122 646 117 645 120 646 l 135 646 l 150 646 b 285 675 210 648 255 657 b 369 790 314 693 343 731 b 373 798 370 792 372 795 b 376 806 374 801 375 804 b 378 811 376 807 377 809 b 383 815 380 813 381 814 b 391 818 385 816 388 817 b 403 819 394 819 398 819 l 419 819 b 440 814 431 819 438 818 b 444 785 443 810 444 800 l 444 118 b 452 83 444 99 447 87 b 494 76 457 78 471 76 l 629 76 b 662 71 648 76 659 75 b 667 35 665 67 667 55 b 661 6 667 20 665 10 b 642 -1 657 1 651 -1 b 628 -1 639 -1 634 -1 b 611 0 621 0 616 0 "},"2":{"ha":736,"x_min":0,"x_max":0,"o":"m 692 153 b 635 2 685 81 666 31 b 500 -42 603 -27 558 -42 b 339 0 448 -42 394 -28 b 201 42 283 28 238 42 b 140 24 175 42 155 36 b 124 -3 138 22 133 13 b 90 -28 114 -20 103 -28 b 51 -22 71 -28 58 -26 b 42 -1 45 -19 42 -12 b 46 36 42 9 43 21 b 336 374 67 187 164 300 b 482 467 406 403 454 434 b 524 583 510 499 524 538 b 485 697 524 635 511 673 b 364 733 459 721 419 733 b 239 709 315 733 273 725 b 188 656 205 693 188 675 b 210 618 188 646 195 634 b 232 567 225 602 232 585 b 208 508 232 543 224 523 b 153 486 191 494 173 486 b 91 509 130 486 109 494 b 64 578 73 524 64 547 b 151 728 64 635 93 685 b 364 792 210 770 281 792 b 588 735 454 792 528 773 b 678 569 648 697 678 642 b 357 292 678 448 571 356 b 146 126 263 263 192 208 b 139 110 141 120 139 114 b 143 106 139 107 140 106 b 184 120 145 106 159 110 b 250 135 209 130 231 135 b 392 111 299 135 346 127 b 508 88 437 95 476 88 b 619 150 568 88 605 108 b 624 177 621 155 623 164 b 631 208 625 191 627 201 b 654 218 634 215 642 218 b 696 190 682 218 696 209 b 694 172 696 187 695 180 b 692 153 692 163 692 156 "},"3":{"ha":736,"x_min":0,"x_max":0,"o":"m 42 -1 b 69 67 42 29 51 52 b 131 90 87 83 107 90 b 185 68 151 90 169 83 b 210 10 202 53 210 34 b 188 -42 210 -9 202 -26 b 165 -79 173 -57 165 -70 b 213 -137 165 -100 181 -120 b 342 -164 244 -155 287 -164 b 497 -99 411 -164 463 -142 b 547 56 530 -55 547 -4 b 346 288 547 191 480 268 b 322 290 340 288 332 289 b 297 291 311 290 303 291 b 281 299 291 291 285 294 b 274 322 276 304 274 312 l 274 339 b 306 364 274 356 284 364 l 332 364 b 419 383 366 367 395 373 b 475 415 444 392 462 403 b 505 460 488 427 498 442 b 517 507 512 477 516 493 b 519 557 519 521 519 538 b 475 685 519 611 505 653 b 342 733 445 717 401 733 b 243 708 300 733 267 725 b 207 650 219 691 207 671 b 229 613 207 641 214 628 b 251 561 244 597 251 580 b 227 503 251 537 243 518 b 172 481 211 488 193 481 b 110 503 149 481 128 488 b 83 572 92 519 83 542 b 156 728 83 634 108 686 b 369 792 205 771 276 792 b 574 733 448 792 516 772 b 660 557 631 693 660 635 b 635 435 660 509 652 468 b 546 356 619 403 589 376 b 505 339 532 349 518 344 b 478 329 491 334 482 331 b 471 325 473 327 471 326 b 479 321 471 324 474 323 b 508 310 485 319 494 316 b 551 292 522 305 537 299 b 688 56 642 246 688 168 b 598 -142 688 -23 658 -89 b 356 -222 538 -196 457 -222 b 124 -158 256 -222 178 -201 b 42 -1 69 -115 42 -62 "},"4":{"ha":736,"x_min":0,"x_max":0,"o":"m 688 -164 b 682 -201 688 -183 686 -196 b 656 -208 678 -206 669 -208 l 350 -208 b 324 -202 336 -208 328 -206 b 319 -169 321 -198 319 -187 b 327 -138 319 -154 322 -143 b 351 -131 332 -133 340 -131 b 363 -131 353 -131 357 -131 b 375 -132 368 -132 372 -132 b 440 -110 411 -132 433 -125 b 451 -14 448 -95 451 -63 l 451 50 b 446 85 451 70 450 82 b 410 90 442 89 430 90 l 93 90 b 79 90 89 90 85 90 b 68 89 74 89 70 89 b 49 111 55 89 49 96 b 74 200 49 139 57 169 b 184 365 97 244 134 299 b 320 554 234 432 280 495 b 400 714 360 613 387 667 b 404 740 402 721 403 730 b 408 762 405 750 406 758 b 419 773 409 766 413 770 b 446 778 425 776 434 778 l 488 778 b 532 751 517 778 532 769 b 522 703 532 741 529 725 b 444 546 509 651 483 599 b 301 378 404 493 357 437 b 182 239 246 320 206 273 b 166 218 178 234 173 227 b 151 197 159 209 154 202 b 146 183 147 191 146 187 b 199 167 146 172 163 167 l 410 167 b 445 172 429 167 441 169 b 451 199 449 176 451 185 l 451 317 b 454 352 451 333 452 345 b 472 376 456 359 462 367 b 490 392 482 384 488 390 b 538 481 509 413 525 443 b 540 492 538 481 538 485 b 544 505 542 499 544 503 b 552 510 545 506 548 508 b 568 514 556 513 562 514 b 585 497 579 514 585 508 b 584 487 585 495 584 492 b 583 475 584 482 583 478 l 583 201 b 592 173 583 187 586 177 b 632 167 597 169 611 167 b 656 167 638 167 646 167 b 675 168 665 168 671 168 b 701 160 687 168 696 165 b 708 125 706 154 708 143 b 699 95 708 110 705 100 b 669 88 692 90 682 88 b 644 89 665 88 656 88 b 615 90 631 90 622 90 b 589 86 601 90 593 89 b 583 67 585 83 583 77 l 583 -3 b 585 -53 583 -25 584 -42 b 590 -92 586 -65 588 -78 b 606 -123 593 -107 598 -117 b 636 -132 614 -129 624 -132 b 648 -131 639 -132 643 -132 b 658 -131 653 -131 656 -131 b 688 -164 678 -131 688 -142 "},"5":{"ha":736,"x_min":0,"x_max":0,"o":"m 56 -15 b 83 53 56 15 65 38 b 144 76 101 69 121 76 b 199 54 165 76 183 69 b 224 -4 216 39 224 20 b 201 -56 224 -23 216 -40 b 179 -93 187 -71 179 -84 b 219 -142 179 -112 192 -128 b 314 -164 245 -157 277 -164 b 482 -94 382 -164 438 -141 b 547 83 525 -48 547 11 b 492 291 547 174 529 243 b 342 363 456 339 406 363 b 194 314 276 363 227 346 b 181 299 191 310 186 305 b 169 286 176 293 172 289 b 152 278 166 283 160 281 b 122 274 144 275 134 274 b 86 299 98 274 86 282 b 90 324 86 303 88 312 b 94 351 93 336 94 345 l 139 732 b 152 778 142 758 146 773 b 206 785 158 782 176 785 l 343 785 b 433 782 371 785 401 784 b 493 779 466 780 486 779 b 558 800 522 779 544 786 b 569 813 559 801 563 805 b 586 826 575 820 581 825 b 611 829 592 828 600 829 b 626 832 620 831 625 832 b 643 817 638 832 643 827 b 636 785 643 814 641 803 b 617 728 631 760 624 741 b 588 692 610 715 601 703 b 524 671 576 682 554 675 b 422 663 494 667 460 664 b 257 660 383 661 328 660 l 233 660 b 206 653 219 660 210 658 b 196 621 201 649 198 638 l 175 443 b 171 401 172 424 171 410 b 176 389 171 393 173 389 b 185 392 178 389 181 390 l 200 399 b 219 408 206 403 213 406 b 358 431 255 423 301 431 b 605 346 468 431 550 402 b 688 111 660 289 688 211 b 584 -131 688 10 653 -71 b 328 -222 515 -192 430 -222 b 130 -162 245 -222 179 -202 b 56 -15 80 -123 56 -74 "},"6":{"ha":736,"x_min":0,"x_max":0,"o":"m 490 904 b 472 931 490 914 484 923 b 415 942 459 938 440 942 b 260 853 349 942 297 912 b 188 619 223 795 199 717 b 181 556 183 584 181 563 b 185 544 181 548 182 544 b 231 581 187 544 202 556 b 411 639 280 619 340 639 b 613 554 492 639 559 611 b 694 319 667 498 694 419 b 604 87 694 231 664 154 b 374 -14 544 20 467 -14 b 42 486 152 -14 42 153 b 86 742 42 579 56 664 b 215 929 116 819 159 882 b 408 1000 272 976 336 1000 b 563 958 469 1000 521 986 b 625 835 604 929 625 888 b 598 766 625 804 616 781 b 536 743 580 751 559 743 b 481 765 516 743 497 750 b 457 824 465 780 457 800 b 474 876 457 843 463 860 b 490 904 485 891 490 900 m 381 571 b 238 508 323 571 275 550 b 181 353 200 467 181 415 b 186 289 181 330 182 308 b 249 117 197 219 218 162 b 375 49 279 71 321 49 b 508 134 431 49 476 77 b 556 319 540 191 556 253 b 509 504 556 398 540 460 b 381 571 478 549 435 571 "},"7":{"ha":750,"x_min":0,"x_max":0,"o":"m 53 617 b 110 763 60 686 79 735 b 243 806 141 791 186 806 b 399 764 289 806 341 792 b 542 722 457 736 505 722 b 611 749 573 722 596 731 b 623 769 615 753 619 760 b 638 787 627 778 632 784 b 669 792 644 790 655 792 b 707 778 694 792 707 787 b 700 750 707 773 705 764 b 589 530 689 711 652 638 b 463 303 526 422 484 346 b 388 58 413 201 388 119 b 410 -49 388 21 395 -14 b 433 -128 426 -83 433 -109 b 410 -196 433 -156 426 -178 b 344 -222 395 -213 373 -222 b 278 -184 317 -222 294 -209 b 253 -75 261 -159 253 -122 b 381 321 253 55 295 187 b 540 581 452 432 505 519 b 552 599 543 585 547 591 b 565 618 557 606 562 613 b 571 631 569 624 571 628 b 563 636 571 634 568 636 b 551 635 558 636 554 636 b 493 629 537 631 517 629 b 351 653 444 629 397 637 b 235 676 306 669 267 676 b 129 625 182 676 147 659 b 122 592 125 619 123 608 b 112 558 120 577 117 566 b 81 546 107 550 96 546 b 47 574 58 546 47 555 b 50 596 47 578 48 586 b 53 617 52 606 53 613 "},"8":{"ha":736,"x_min":0,"x_max":0,"o":"m 194 264 b 238 109 194 201 209 149 b 368 49 266 69 310 49 b 499 109 426 49 470 69 b 542 264 527 149 542 201 b 499 419 542 327 527 378 b 368 479 470 459 426 479 b 238 419 310 479 266 459 b 194 264 209 378 194 327 m 83 736 b 163 926 83 813 110 876 b 368 1000 216 975 285 1000 b 573 926 451 1000 520 975 b 653 736 626 876 653 813 b 547 538 653 644 618 577 b 508 510 521 522 508 513 b 553 483 508 506 523 497 b 681 264 638 444 681 370 b 597 62 681 180 653 112 b 368 -14 542 11 465 -14 b 139 62 271 -14 194 11 b 56 264 83 112 56 180 b 174 478 56 363 95 434 b 203 491 182 481 192 486 b 227 502 214 496 222 500 b 235 510 232 504 235 507 b 213 525 235 514 227 519 b 117 604 172 540 140 566 b 83 736 95 642 83 686 m 222 736 b 261 594 222 681 235 634 b 368 535 287 555 323 535 b 475 594 413 535 449 555 b 514 736 501 634 514 681 b 475 878 514 791 501 838 b 368 938 449 918 413 938 b 261 878 323 938 287 918 b 222 736 235 838 222 791 "},"9":{"ha":736,"x_min":0,"x_max":0,"o":"m 246 -126 b 265 -153 246 -137 252 -145 b 321 -164 277 -160 296 -164 b 476 -77 388 -164 439 -135 b 549 153 513 -19 538 57 b 552 183 550 162 551 172 b 556 209 553 194 555 203 b 557 224 556 215 557 220 b 553 233 557 230 556 233 b 514 204 549 233 536 224 b 325 139 465 161 402 139 b 123 224 244 139 177 167 b 42 458 69 280 42 358 b 132 691 42 546 72 624 b 363 792 192 758 269 792 b 694 292 584 792 694 625 b 650 36 694 199 680 114 b 521 -151 620 -42 577 -104 b 328 -222 464 -199 400 -222 b 174 -180 267 -222 215 -208 b 111 -57 132 -152 111 -111 b 138 12 111 -26 120 -3 b 200 35 156 27 177 35 b 255 13 220 35 239 27 b 279 -46 271 -2 279 -22 b 263 -98 279 -65 274 -83 b 246 -126 251 -113 246 -123 m 181 458 b 227 274 181 380 196 318 b 356 207 258 229 301 207 b 498 269 412 207 459 228 b 556 417 536 311 556 360 b 500 633 556 497 537 569 b 349 729 463 697 413 729 b 251 684 310 729 277 714 b 196 581 224 654 206 619 b 181 458 186 542 181 501 "}," ":{"ha":417,"x_min":0,"x_max":0,"o":""},"!":{"ha":443,"x_min":0,"x_max":0,"o":"m 139 68 b 163 126 139 91 147 111 b 221 150 178 142 198 150 b 279 126 244 150 263 142 b 303 68 295 111 303 91 b 279 10 303 45 295 25 b 221 -14 263 -6 244 -14 b 163 10 198 -14 178 -6 b 139 68 147 25 139 45 m 303 915 b 274 646 299 854 289 764 b 250 374 258 527 250 437 b 251 355 250 370 250 364 b 251 335 251 346 251 339 b 225 289 251 304 243 289 b 192 332 203 289 192 303 l 192 379 b 167 637 189 436 181 522 b 139 915 153 752 144 845 l 139 942 b 221 1053 139 1016 166 1053 b 304 942 276 1053 304 1016 b 303 929 304 939 304 935 b 303 915 303 924 303 919 "},"\"":{"ha":486,"x_min":0,"x_max":0,"o":"m 318 717 b 299 830 316 742 310 779 b 278 943 289 880 281 918 b 276 968 277 950 276 958 b 296 1031 276 995 283 1016 b 346 1053 309 1045 325 1053 b 396 1031 366 1053 383 1045 b 415 968 409 1016 415 995 b 414 943 415 958 415 950 b 393 830 410 917 403 879 b 374 719 383 780 376 744 l 374 706 b 371 684 374 695 373 688 b 361 678 369 680 366 678 l 340 678 b 322 682 331 678 325 679 b 318 696 319 685 318 689 m 110 717 b 91 830 108 742 102 779 b 69 943 80 880 73 918 b 68 968 69 950 68 958 b 88 1031 68 995 75 1016 b 138 1053 100 1045 117 1053 b 188 1031 158 1053 175 1045 b 207 968 200 1016 207 995 b 206 943 207 958 206 950 b 185 830 202 917 195 879 b 165 719 175 780 168 744 l 165 706 b 163 684 165 695 164 688 b 153 678 161 680 157 678 l 132 678 b 114 682 123 678 117 679 b 110 696 111 685 110 689 "},"#":{"ha":917,"x_min":0,"x_max":0,"o":"m 365 674 b 348 669 357 674 351 672 b 342 650 345 667 343 660 l 315 431 b 313 406 313 416 313 407 b 319 392 313 399 315 395 b 350 389 324 390 334 389 l 497 389 b 519 390 506 389 513 389 b 535 391 525 390 530 391 b 546 396 539 391 543 393 l 552 402 b 556 412 553 403 555 407 b 559 424 558 417 559 421 b 560 440 559 426 560 432 b 563 458 561 447 562 454 l 582 626 b 585 654 584 643 585 652 b 576 671 585 663 582 669 b 536 674 571 673 557 674 m 353 1118 b 394 1097 381 1118 394 1111 b 389 1056 394 1094 393 1080 l 358 800 b 356 769 356 781 356 771 b 364 753 356 761 358 756 b 403 750 369 751 382 750 l 547 750 b 591 757 572 750 587 752 b 601 801 595 762 599 776 l 636 1089 b 643 1114 638 1103 640 1111 b 667 1118 646 1117 654 1118 l 675 1118 b 715 1089 702 1118 715 1108 b 710 1060 715 1083 714 1074 b 704 1028 707 1046 705 1035 l 681 824 b 678 805 680 818 679 812 b 675 788 677 798 676 792 b 674 775 674 783 674 779 b 722 750 674 758 690 750 l 897 750 b 925 746 912 750 921 749 b 931 725 929 743 931 736 l 931 707 b 925 679 931 693 929 684 b 906 672 921 675 915 672 b 892 673 903 672 898 672 b 875 674 885 673 880 674 l 722 674 b 688 672 707 674 696 673 b 668 660 679 671 673 667 b 660 647 663 653 661 649 b 657 619 659 644 658 635 b 654 588 656 604 655 593 l 635 422 b 634 415 635 420 634 418 b 633 408 634 411 633 409 b 656 388 633 394 641 388 b 669 388 657 388 662 388 b 689 389 677 389 683 389 l 836 389 b 852 390 841 389 846 389 b 865 390 858 390 863 390 b 883 385 874 390 880 388 b 889 361 887 381 889 373 b 883 321 889 340 887 326 b 854 313 878 315 869 313 l 675 313 b 654 312 667 313 660 312 b 640 310 649 311 644 311 b 629 306 635 310 632 308 b 623 300 626 303 624 301 b 619 291 622 299 620 296 b 617 280 619 286 618 282 b 615 265 617 278 616 272 b 614 247 614 257 614 251 l 588 25 b 586 -1 587 19 586 11 b 585 -29 586 -12 586 -22 b 581 -52 585 -37 584 -44 b 569 -70 579 -60 575 -66 b 544 -76 563 -74 555 -76 b 501 -56 516 -76 501 -69 b 507 -17 501 -54 503 -41 l 539 264 b 542 292 541 281 542 290 b 533 309 542 301 539 307 b 497 313 528 311 516 313 l 353 313 b 327 310 343 313 334 312 b 311 306 320 309 315 308 b 302 296 307 305 304 301 b 298 284 300 290 298 286 b 297 265 297 282 297 275 b 294 242 296 254 295 246 l 263 -25 b 260 -41 262 -29 261 -34 b 259 -54 260 -48 259 -52 b 256 -63 259 -56 258 -59 b 252 -70 255 -67 253 -70 b 244 -74 251 -71 248 -72 b 232 -76 241 -75 237 -76 l 214 -76 b 182 -61 193 -76 182 -71 b 184 -47 182 -58 183 -54 b 186 -31 185 -41 186 -35 l 217 231 b 219 252 218 237 219 244 b 222 272 220 260 221 266 b 224 285 223 277 224 281 b 213 306 224 295 220 302 b 169 313 205 310 191 313 l 44 313 b 25 312 39 313 32 312 b 11 311 18 311 13 311 b -8 318 2 311 -5 313 b -14 347 -12 323 -14 332 b -8 382 -14 365 -12 376 b 17 390 -3 388 5 390 b 33 390 19 390 25 390 b 53 389 42 389 48 389 l 186 389 b 215 390 198 389 208 389 b 232 401 223 391 228 395 b 239 414 236 407 238 411 b 241 437 240 417 241 424 b 243 464 241 449 242 458 l 260 606 b 262 627 260 611 260 618 b 264 646 263 636 264 642 b 252 669 264 659 260 667 b 197 674 244 672 226 674 l 75 674 b 60 673 71 674 66 673 b 49 672 54 672 50 672 b 28 700 35 672 28 681 b 34 743 28 724 30 738 b 74 750 38 748 51 750 l 231 750 b 260 753 243 750 253 751 b 277 767 268 756 274 760 b 283 784 280 774 282 780 b 285 810 284 788 285 797 b 288 839 286 823 287 832 l 313 1056 b 314 1076 313 1060 314 1067 b 315 1094 314 1084 314 1091 b 320 1107 316 1098 318 1102 b 331 1116 322 1112 326 1115 b 353 1118 336 1117 344 1118 "},"$":{"ha":917,"x_min":0,"x_max":0,"o":"m 722 264 b 683 378 722 312 709 350 b 572 444 657 406 620 428 b 551 453 567 446 559 449 b 528 462 542 456 534 459 b 513 465 522 464 517 465 b 486 422 496 465 487 451 l 468 142 b 467 106 467 132 467 120 b 474 69 467 88 469 76 b 499 58 478 62 487 58 b 550 67 511 58 528 61 b 679 143 607 81 650 106 b 722 264 708 180 722 220 m 236 813 b 367 657 236 738 280 687 b 407 646 387 650 400 646 b 417 649 412 646 415 647 b 424 660 420 650 422 654 b 427 678 425 666 427 672 b 429 708 428 684 428 694 l 443 917 l 443 938 b 438 973 443 954 441 966 b 417 983 434 980 427 983 b 368 974 408 983 392 980 b 270 913 325 962 293 941 b 236 813 247 884 236 850 m 486 1160 b 525 1156 506 1160 519 1159 b 533 1136 531 1154 533 1147 b 533 1126 533 1134 533 1131 b 532 1114 532 1121 532 1117 l 529 1082 l 529 1072 b 532 1057 529 1066 530 1061 b 538 1050 534 1053 536 1051 b 553 1047 541 1049 545 1048 b 571 1044 560 1046 566 1045 b 797 804 722 1014 797 934 b 770 735 797 774 788 751 b 708 713 752 720 731 713 b 653 735 688 713 670 720 b 629 793 637 750 629 769 b 651 844 629 812 637 829 b 674 882 666 860 674 873 b 649 931 674 898 665 914 b 575 969 632 947 607 960 b 540 978 555 975 543 978 b 519 933 527 978 520 963 l 506 703 b 504 660 505 691 504 676 b 514 626 504 643 507 632 b 561 608 520 621 536 615 b 669 574 603 598 639 587 b 758 520 699 561 728 543 b 824 431 787 497 809 468 b 847 299 840 394 847 350 b 769 88 847 212 821 141 b 542 -10 716 35 641 2 b 513 -12 533 -11 524 -11 b 488 -13 501 -12 493 -13 b 472 -18 483 -14 478 -15 b 460 -33 467 -21 463 -26 b 456 -61 458 -40 456 -49 l 456 -78 b 455 -92 456 -84 455 -89 b 453 -101 454 -94 454 -98 b 450 -109 453 -105 452 -108 b 442 -114 448 -110 446 -112 b 430 -117 439 -116 435 -117 b 411 -118 425 -118 419 -118 b 385 -112 398 -118 389 -116 b 378 -93 380 -109 378 -102 b 378 -65 378 -87 378 -77 b 379 -43 379 -53 379 -46 b 378 -31 379 -38 379 -34 b 377 -23 378 -28 378 -25 b 373 -17 377 -21 375 -19 b 368 -12 371 -15 369 -13 b 360 -9 367 -12 364 -10 b 350 -6 355 -8 352 -7 b 336 -3 348 -6 344 -5 b 319 0 329 -2 323 -1 b 130 94 237 17 174 48 b 64 258 86 141 64 195 b 91 327 64 289 73 312 b 153 350 109 342 130 350 b 208 328 173 350 191 343 b 232 269 224 313 232 294 b 210 218 232 251 225 234 b 188 181 195 202 188 190 b 220 124 188 163 198 144 b 317 75 242 103 274 87 b 361 65 339 69 354 65 b 383 79 372 65 380 70 b 392 131 387 88 390 106 l 408 383 b 410 416 408 391 409 402 b 413 446 412 430 413 440 b 401 480 413 461 409 472 b 358 501 394 488 380 495 b 176 592 281 523 220 553 b 111 771 133 632 111 691 b 209 982 111 863 144 933 b 444 1056 274 1031 353 1056 b 454 1086 451 1056 454 1066 l 457 1144 b 458 1152 457 1147 457 1150 b 460 1157 459 1154 460 1156 b 465 1159 461 1158 462 1159 b 470 1160 467 1159 469 1160 l 478 1160 l 486 1160 "},"%":{"ha":1389,"x_min":0,"x_max":0,"o":"m 49 750 b 126 975 49 846 75 921 b 326 1056 178 1029 245 1056 b 526 975 408 1056 475 1029 b 604 750 578 921 604 846 b 519 527 604 656 576 582 b 326 444 462 472 398 444 b 126 525 245 444 178 471 b 49 750 75 579 49 654 m 201 750 b 228 573 201 671 210 612 b 326 514 245 534 278 514 b 425 573 375 514 407 534 b 451 750 443 612 451 671 b 425 927 451 829 443 888 b 326 986 407 966 375 986 b 228 927 278 986 245 966 b 201 750 210 888 201 829 m 1011 1042 b 1049 1024 1036 1042 1049 1036 b 1044 1008 1049 1019 1047 1014 b 1028 983 1041 1002 1035 994 b 1014 963 1022 973 1017 966 l 474 85 b 459 56 471 80 466 71 b 442 26 452 42 446 32 b 419 9 437 21 429 15 b 381 0 408 3 395 0 b 340 18 354 0 340 6 b 345 34 340 23 342 28 b 360 57 348 40 353 48 b 375 79 367 66 372 74 l 926 965 b 940 990 929 969 934 977 b 956 1017 947 1003 952 1012 b 976 1033 959 1022 966 1028 b 1011 1042 985 1039 997 1042 m 785 292 b 863 517 785 388 811 463 b 1063 597 914 570 981 597 b 1263 517 1144 597 1211 570 b 1340 292 1314 463 1340 388 b 1255 69 1340 198 1312 124 b 1063 -14 1198 14 1134 -14 b 863 67 981 -14 914 13 b 785 292 811 120 785 195 m 938 292 b 964 115 938 213 946 154 b 1063 56 981 75 1014 56 b 1161 115 1111 56 1144 75 b 1188 292 1179 154 1188 213 b 1161 469 1188 370 1179 429 b 1063 528 1144 508 1111 528 b 964 469 1014 528 981 508 b 938 292 946 429 938 370 "},"&":{"ha":1208,"x_min":0,"x_max":0,"o":"m 656 889 b 619 969 656 921 644 948 b 526 1000 595 990 564 1000 b 424 971 485 1000 451 990 b 385 889 398 951 385 924 b 479 681 385 850 416 781 b 493 672 484 675 488 672 b 535 694 499 672 513 680 b 656 889 615 744 656 808 m 329 524 b 182 306 231 469 182 396 b 251 135 182 231 205 175 b 424 76 297 96 354 76 b 576 111 476 76 527 88 b 633 158 614 129 633 144 b 611 210 633 169 626 187 l 421 510 b 381 546 406 534 393 546 b 329 524 373 546 356 538 m 1063 639 b 1085 632 1074 639 1081 637 b 1090 599 1088 627 1090 616 b 1083 569 1090 584 1088 574 b 1060 561 1079 564 1071 561 b 1042 562 1057 561 1051 561 b 1018 563 1032 562 1025 563 b 976 553 1000 563 985 559 b 958 532 966 546 960 539 b 951 496 955 525 953 513 b 943 457 948 479 946 466 b 818 213 916 368 875 287 b 801 181 807 199 801 188 b 822 140 801 177 808 163 b 835 118 824 138 828 130 b 849 98 842 106 847 99 l 863 88 b 888 78 870 82 878 79 b 924 76 897 77 909 76 l 985 76 b 1008 78 989 76 997 77 b 1032 79 1018 79 1026 79 b 1069 54 1057 79 1069 71 b 1062 10 1069 31 1067 16 b 1031 0 1057 3 1046 0 l 782 0 b 749 3 767 0 756 1 b 731 21 742 6 736 12 l 710 54 b 683 79 700 71 691 79 b 672 76 680 79 676 78 b 656 65 669 73 663 70 b 638 54 649 61 643 57 b 375 -14 555 9 468 -14 b 128 61 276 -14 194 11 b 29 278 62 111 29 183 b 51 395 29 321 36 360 b 114 483 65 430 86 459 b 198 544 142 507 170 528 b 301 593 226 560 261 576 b 317 599 306 595 311 597 b 331 604 323 602 328 603 b 339 608 333 605 336 606 b 345 613 342 610 344 612 b 347 619 347 615 347 617 b 333 649 347 623 343 633 l 313 681 b 249 851 270 747 249 804 b 327 1000 249 913 275 963 b 528 1056 379 1037 446 1056 b 714 1010 604 1056 666 1040 b 786 882 762 979 786 937 b 735 740 786 825 769 777 b 593 640 702 702 654 669 b 574 631 588 638 581 634 b 557 624 566 628 561 626 b 546 619 553 623 550 621 b 538 612 542 616 540 614 b 536 604 537 609 536 607 b 553 565 536 598 542 585 l 724 296 b 754 263 739 274 750 263 b 786 299 760 263 770 275 b 875 493 826 357 856 422 b 886 542 882 521 886 537 b 838 563 886 556 870 563 l 778 563 b 761 567 769 563 764 564 b 757 590 758 571 757 578 b 763 631 757 613 759 626 b 792 639 766 636 776 639 "},"'":{"ha":276,"x_min":0,"x_max":0,"o":"m 110 717 b 91 830 108 742 102 779 b 69 943 80 880 73 918 b 68 968 69 950 68 958 b 88 1031 68 995 75 1016 b 138 1053 100 1045 117 1053 b 188 1031 158 1053 175 1045 b 207 968 200 1016 207 995 b 206 943 207 958 206 950 b 185 830 202 917 195 879 b 165 719 175 780 168 744 l 165 706 b 163 684 165 695 164 688 b 153 678 161 680 157 678 l 132 678 b 114 682 123 678 117 679 b 110 696 111 685 110 689 "},"(":{"ha":618,"x_min":0,"x_max":0,"o":"m 569 -192 b 543 -232 569 -219 561 -232 b 481 -212 538 -232 517 -225 b 181 30 351 -166 251 -85 b 76 451 111 145 76 286 b 177 853 76 613 110 747 b 467 1083 244 960 341 1037 b 542 1107 511 1099 536 1107 b 569 1067 560 1107 569 1094 b 559 1038 569 1054 566 1044 b 522 1019 552 1031 540 1025 b 482 1004 503 1014 490 1009 b 236 451 318 918 236 734 b 485 -129 236 155 319 -38 b 522 -143 492 -133 505 -137 b 559 -162 540 -149 552 -155 b 569 -192 566 -169 569 -179 "},")":{"ha":618,"x_min":0,"x_max":0,"o":"m 49 1067 b 75 1107 49 1094 57 1107 b 138 1088 81 1107 101 1100 b 437 845 267 1041 367 960 b 542 424 507 730 542 589 b 441 22 542 263 508 128 b 151 -208 374 -85 277 -162 b 76 -232 107 -224 82 -232 b 49 -192 58 -232 49 -219 b 59 -162 49 -179 52 -169 b 97 -144 66 -156 78 -150 b 136 -129 115 -139 128 -134 b 382 424 300 -43 382 141 b 133 1004 382 720 299 913 b 96 1018 126 1008 113 1013 b 59 1037 78 1024 66 1030 b 49 1067 52 1044 49 1054 "},"*":{"ha":882,"x_min":0,"x_max":0,"o":"m 708 943 b 755 924 726 943 741 937 b 775 876 768 911 775 895 b 704 796 775 844 751 817 b 619 765 683 788 655 777 b 554 743 584 753 563 746 b 511 721 525 732 511 725 b 560 699 511 717 527 710 b 704 649 651 667 700 650 b 775 568 751 627 775 600 b 755 521 775 550 768 534 b 708 501 741 508 726 501 b 636 531 687 501 663 511 b 522 629 621 543 583 575 b 479 663 496 651 482 663 b 474 650 475 663 474 658 b 479 608 474 640 475 626 b 493 543 481 600 486 578 b 508 457 500 508 506 479 b 510 432 509 450 510 442 b 490 369 510 405 503 384 b 440 347 477 355 461 347 b 390 369 420 347 403 355 b 371 432 377 384 371 405 b 372 457 371 442 371 450 b 388 543 375 479 380 508 b 401 608 395 578 400 600 b 407 649 405 626 407 639 b 401 661 407 657 405 661 b 358 629 398 661 383 650 b 244 531 297 575 259 543 b 172 501 218 511 194 501 b 126 521 155 501 139 508 b 106 568 112 534 106 550 b 176 649 106 600 129 627 b 315 697 214 663 261 680 b 368 722 350 709 368 718 b 325 744 368 727 354 734 b 176 796 242 772 192 789 b 106 876 129 817 106 844 b 126 924 106 895 112 911 b 172 943 139 937 155 943 b 244 914 194 943 218 933 b 360 815 264 899 302 866 b 401 783 385 794 399 783 b 406 794 404 783 406 787 b 400 838 406 805 404 819 b 388 899 399 841 395 862 b 372 988 381 936 376 965 b 371 1013 371 994 371 1002 b 390 1075 371 1039 377 1060 b 440 1097 403 1090 420 1097 b 490 1075 461 1097 477 1090 b 510 1013 503 1060 510 1039 b 508 988 510 1002 509 994 b 482 844 505 963 496 916 b 474 794 476 819 474 803 b 479 783 474 787 475 783 b 518 813 483 783 496 793 b 568 856 524 817 540 832 b 636 914 596 881 619 900 b 708 943 663 933 687 943 "},"+":{"ha":736,"x_min":0,"x_max":0,"o":"m 613 476 b 647 469 631 476 642 474 b 653 428 651 465 653 451 b 621 397 653 407 642 397 b 601 399 617 397 611 398 b 579 400 592 400 585 400 l 460 400 b 413 393 434 400 418 398 b 406 349 408 388 406 374 l 406 188 b 399 158 406 172 403 162 b 360 153 394 155 381 153 b 329 181 339 153 329 162 b 330 197 329 183 329 189 b 331 217 330 206 331 212 l 331 347 b 324 392 331 371 328 386 b 292 400 320 397 309 400 l 132 400 b 91 406 110 400 96 402 b 83 438 86 410 83 421 l 83 456 b 106 478 83 470 91 478 b 119 477 108 478 113 478 b 135 476 126 477 131 476 l 297 476 b 324 484 311 476 320 479 b 331 522 328 489 331 502 l 331 683 b 336 717 331 703 332 714 b 371 722 340 721 351 722 b 400 716 386 722 395 720 b 407 694 405 712 407 705 b 406 681 407 693 407 688 b 406 661 406 673 406 667 l 406 533 b 414 483 406 505 408 488 b 468 476 419 479 438 476 "},",":{"ha":299,"x_min":0,"x_max":0,"o":"m 56 68 b 83 126 56 91 65 111 b 149 150 101 142 123 150 b 219 114 177 150 201 138 b 246 6 237 90 246 54 b 208 -124 246 -39 233 -82 b 106 -208 183 -166 149 -194 b 71 -217 87 -214 75 -217 b 53 -183 59 -217 53 -206 b 56 -167 53 -176 54 -170 b 65 -160 59 -163 61 -161 b 79 -157 68 -159 73 -158 b 96 -153 86 -156 91 -155 b 157 -103 121 -143 141 -126 b 181 -22 173 -80 181 -53 l 181 -10 b 177 3 181 -2 179 2 b 167 -2 175 4 171 2 b 157 -10 162 -6 159 -9 b 129 -14 151 -12 142 -14 b 76 10 107 -14 89 -6 b 56 68 62 25 56 45 "},"-":{"ha":639,"x_min":0,"x_max":0,"o":"m 519 576 b 539 575 528 576 534 576 b 551 568 544 574 547 572 b 556 550 554 564 556 558 l 556 531 b 547 505 556 517 553 508 b 515 500 541 502 530 500 l 119 500 b 88 506 102 500 91 502 b 83 542 85 509 83 521 b 89 570 83 556 85 566 b 110 576 93 574 100 576 "},".":{"ha":278,"x_min":0,"x_max":0,"o":"m 56 69 b 80 128 56 93 64 112 b 139 153 96 145 116 153 b 198 128 162 153 182 145 b 222 69 214 112 222 93 b 198 10 222 46 214 27 b 139 -14 182 -6 162 -14 b 80 10 116 -14 96 -6 b 56 69 64 27 56 46 "},"/":{"ha":722,"x_min":0,"x_max":0,"o":"m 615 1083 b 660 1060 645 1083 660 1075 b 653 1037 660 1053 658 1046 b 638 1006 649 1028 644 1018 b 625 979 632 995 628 986 l 182 -133 l 174 -156 b 167 -176 171 -166 169 -172 b 158 -189 165 -179 162 -183 b 145 -200 155 -194 150 -198 b 125 -206 140 -202 133 -204 b 94 -208 117 -207 106 -208 b 61 -190 72 -208 61 -202 b 73 -159 61 -185 65 -174 b 88 -129 81 -144 86 -134 l 546 1004 b 553 1026 548 1010 550 1017 b 560 1049 556 1036 558 1043 b 570 1066 563 1054 566 1060 b 588 1079 574 1072 580 1076 b 615 1083 595 1082 604 1083 "},":":{"ha":275,"x_min":0,"x_max":0,"o":"m 56 653 b 80 712 56 676 64 696 b 139 736 96 728 116 736 b 198 712 162 736 182 728 b 222 653 214 696 222 676 b 198 594 222 630 214 610 b 139 569 182 578 162 569 b 80 594 116 569 96 578 b 56 653 64 610 56 630 m 56 69 b 80 128 56 93 64 112 b 139 153 96 145 116 153 b 198 128 162 153 182 145 b 222 69 214 112 222 93 b 198 10 222 46 214 27 b 139 -14 182 -6 162 -14 b 80 10 116 -14 96 -6 b 56 69 64 27 56 46 "},";":{"ha":299,"x_min":0,"x_max":0,"o":"m 56 653 b 80 712 56 676 64 696 b 139 736 96 728 116 736 b 198 712 162 736 182 728 b 222 653 214 696 222 676 b 198 594 222 630 214 610 b 139 569 182 578 162 569 b 80 594 116 569 96 578 b 56 653 64 610 56 630 m 56 68 b 83 126 56 91 65 111 b 149 150 101 142 123 150 b 219 114 177 150 201 138 b 246 6 237 90 246 54 b 208 -124 246 -39 233 -82 b 106 -208 183 -166 149 -194 b 71 -217 87 -214 75 -217 b 53 -183 59 -217 53 -206 b 56 -167 53 -176 54 -170 b 65 -160 59 -163 61 -161 b 79 -157 68 -159 73 -158 b 96 -153 86 -156 91 -155 b 157 -103 121 -143 141 -126 b 181 -22 173 -80 181 -53 l 181 -10 b 177 3 181 -2 179 2 b 167 -2 175 4 171 2 b 157 -10 162 -6 159 -9 b 129 -14 151 -12 142 -14 b 76 10 107 -14 89 -6 b 56 68 62 25 56 45 "},"<":{"ha":778,"x_min":0,"x_max":0,"o":"m 628 360 l 653 351 b 677 341 667 347 675 343 b 688 325 679 339 683 333 b 694 292 692 317 694 306 b 672 250 694 264 687 250 b 652 255 667 250 660 252 b 625 267 644 258 635 262 b 600 279 615 272 606 276 l 139 458 b 119 465 135 460 129 462 b 100 471 110 467 104 469 b 89 483 96 473 93 477 b 83 507 85 489 83 497 l 83 569 b 90 594 83 580 85 588 b 102 606 94 600 98 604 b 124 615 106 609 113 611 b 144 621 134 618 141 620 l 622 806 b 649 819 627 807 636 812 b 678 829 663 826 672 829 b 694 797 689 829 694 819 b 692 764 694 783 694 772 b 682 743 691 756 688 749 b 669 732 676 738 672 734 b 647 724 667 730 659 727 b 622 715 635 720 627 717 l 244 569 b 183 536 204 554 183 543 b 187 531 183 534 184 532 b 198 524 189 529 193 527 b 214 518 203 522 208 520 l 237 510 b 264 500 247 507 256 504 "},"=":{"ha":778,"x_min":0,"x_max":0,"o":"m 119 604 b 88 610 102 604 91 606 b 83 646 85 613 83 625 b 89 674 83 661 85 670 b 110 681 93 678 100 681 l 658 681 b 678 679 667 681 673 680 b 690 672 682 678 686 676 b 694 654 693 669 694 663 l 694 635 b 685 609 694 621 691 612 b 654 604 679 606 669 604 m 119 396 b 88 401 102 396 91 398 b 83 438 85 405 83 417 b 89 466 83 452 85 462 b 110 472 93 470 100 472 l 658 472 b 678 471 667 472 673 472 b 690 464 682 470 686 468 b 694 446 693 460 694 454 l 694 426 b 685 401 694 413 691 404 b 654 396 679 397 669 396 "},">":{"ha":778,"x_min":0,"x_max":0,"o":"m 150 717 l 125 725 b 101 735 111 730 103 733 b 90 751 98 738 95 743 b 83 785 86 760 83 771 b 106 826 83 813 91 826 b 126 822 111 826 118 825 b 153 809 134 818 143 814 b 178 797 163 804 171 800 l 639 618 b 658 612 643 616 649 614 b 678 606 668 609 674 607 b 689 594 681 604 685 600 b 694 569 693 588 694 580 l 694 507 b 688 483 694 497 692 489 b 676 470 684 477 680 472 b 654 462 672 468 664 465 b 633 456 644 459 637 456 l 156 271 b 128 258 151 269 142 265 b 100 247 115 251 106 247 b 83 279 89 247 83 258 b 85 313 83 293 84 304 b 96 333 87 321 90 328 b 108 344 101 339 106 343 b 131 353 111 346 119 349 b 156 361 143 356 151 359 l 533 507 b 594 540 574 523 594 534 b 591 546 594 542 593 544 b 580 552 589 548 585 550 b 564 558 575 554 569 556 l 541 566 b 514 576 531 569 522 573 "},"?":{"ha":764,"x_min":0,"x_max":0,"o":"m 207 919 b 228 874 207 908 214 893 b 250 806 243 854 250 831 b 223 743 250 778 241 757 b 156 722 205 729 182 722 b 90 748 130 722 108 731 b 63 821 72 765 63 789 b 143 985 63 883 89 938 b 363 1056 197 1032 270 1056 b 610 979 472 1056 554 1030 b 694 764 666 928 694 856 b 628 578 694 698 672 636 b 449 454 583 521 524 479 b 425 449 443 452 435 450 b 403 443 415 447 408 445 b 391 431 399 441 395 437 b 385 404 387 424 385 415 l 385 357 b 385 338 385 352 385 346 b 386 321 386 329 386 324 b 378 297 386 309 383 301 b 342 290 372 292 360 290 b 308 297 324 290 313 292 b 300 321 303 301 300 309 b 301 337 300 324 300 329 b 301 357 301 345 301 351 l 301 431 b 308 472 301 448 303 462 b 320 491 312 481 316 488 b 346 503 324 494 333 498 b 376 515 359 507 369 512 b 506 631 431 544 474 583 b 554 792 538 680 554 733 b 506 938 554 849 538 898 b 363 997 474 977 426 997 b 245 972 310 997 271 989 b 207 919 220 956 207 938 m 263 69 b 287 128 263 93 271 112 b 346 153 303 145 323 153 b 405 128 369 153 389 145 b 429 69 421 112 429 93 b 405 10 429 46 421 27 b 346 -14 389 -6 369 -14 b 287 10 323 -14 303 -6 b 263 69 271 27 263 46 "},"@":{"ha":1472,"x_min":0,"x_max":0,"o":"m 1097 -151 b 651 -297 984 -249 836 -297 b 517 -279 609 -297 564 -291 b 368 -217 469 -267 420 -246 b 230 -106 316 -187 270 -150 b 130 67 190 -62 156 -4 b 90 307 103 139 90 219 b 150 625 90 420 110 526 b 309 876 190 724 243 808 b 540 1038 375 945 452 999 b 813 1097 627 1078 718 1097 b 1063 1053 904 1097 988 1083 b 1247 936 1139 1024 1200 985 b 1357 772 1294 887 1331 832 b 1396 585 1383 712 1396 650 b 1372 415 1396 528 1388 472 b 1302 258 1355 358 1332 305 b 1185 142 1272 210 1233 171 b 1029 97 1138 112 1086 97 b 906 163 973 97 931 119 b 869 210 888 194 876 210 b 860 203 867 210 863 208 b 844 184 856 199 851 193 b 822 161 838 175 831 168 b 672 97 772 119 722 97 b 524 156 614 97 565 117 b 464 319 484 196 464 250 b 565 606 464 424 497 519 b 789 735 632 692 706 735 b 928 647 855 735 901 706 b 954 596 944 613 952 596 b 969 639 958 596 963 610 b 974 666 971 645 973 654 b 978 690 976 678 977 686 b 987 706 980 695 983 700 b 1005 719 991 712 997 716 b 1035 722 1013 721 1023 722 b 1092 717 1063 722 1083 721 b 1107 697 1102 714 1107 707 b 1093 635 1107 694 1102 674 l 1014 292 b 1010 250 1011 278 1010 264 b 1060 183 1010 206 1026 183 b 1236 306 1129 183 1188 224 b 1308 590 1284 387 1308 482 b 1169 898 1308 712 1262 814 b 836 1024 1077 982 966 1024 b 532 927 726 1024 625 991 b 315 669 439 863 367 777 b 236 321 262 562 236 446 b 264 104 236 240 245 168 b 337 -51 282 40 307 -12 b 442 -151 367 -91 402 -124 b 563 -206 483 -177 523 -195 b 688 -221 603 -216 645 -221 b 1031 -104 816 -221 931 -182 b 1117 -53 1075 -70 1104 -53 b 1128 -57 1121 -53 1125 -54 b 1150 -93 1143 -72 1150 -84 b 1148 -102 1150 -96 1149 -99 b 1140 -113 1147 -105 1144 -109 b 1131 -123 1137 -117 1133 -121 b 1115 -136 1128 -125 1122 -130 b 1097 -151 1107 -143 1101 -148 m 922 481 b 915 556 922 506 920 531 b 880 628 909 581 898 605 b 811 664 862 652 839 664 b 669 563 759 664 712 630 b 604 333 626 495 604 419 b 628 213 604 281 612 241 b 714 169 644 184 672 169 b 853 263 760 169 806 200 b 922 481 899 325 922 397 "},"A":{"ha":1278,"x_min":0,"x_max":0,"o":"m 429 458 b 407 400 414 424 407 405 b 423 385 407 393 412 388 b 483 382 434 383 454 382 l 747 382 b 770 381 754 382 761 382 b 788 381 779 381 785 381 b 808 393 801 381 808 385 b 803 414 808 399 806 406 l 644 836 b 614 885 631 869 621 885 b 603 873 610 885 606 881 b 589 836 599 865 594 853 b 574 794 583 819 578 806 m 1065 114 b 1085 82 1072 96 1078 86 b 1133 76 1091 78 1107 76 l 1206 76 b 1231 72 1219 76 1228 75 b 1236 54 1234 69 1236 63 l 1236 33 b 1228 6 1236 19 1234 10 b 1206 -1 1223 1 1216 -1 b 1186 -1 1202 -1 1195 -1 b 1164 0 1177 0 1169 0 l 811 0 b 784 8 797 0 788 3 b 778 47 780 14 778 27 b 783 72 778 59 780 67 b 803 78 787 76 794 78 b 818 77 806 78 811 78 b 836 76 825 77 831 76 l 874 76 b 919 93 904 76 919 82 b 907 136 919 97 915 111 l 861 258 b 857 270 860 261 859 265 b 853 281 855 275 854 279 b 850 290 853 284 852 286 b 844 297 848 293 846 295 b 837 301 843 298 840 300 b 825 305 834 303 830 304 b 808 306 820 305 815 306 l 431 306 b 372 299 399 306 379 303 b 346 261 364 295 355 282 l 289 128 b 275 89 280 106 275 94 b 286 78 275 83 279 80 b 336 76 294 77 310 76 l 397 76 b 423 72 409 76 418 75 b 431 50 428 68 431 61 l 431 25 b 424 5 431 15 428 8 b 394 0 420 2 410 0 l 72 0 b 47 3 58 0 50 1 b 42 21 43 6 42 12 l 42 42 b 46 70 42 56 43 66 b 65 76 49 74 55 76 l 117 76 b 170 84 143 76 160 79 b 199 122 180 89 189 102 l 579 1003 b 585 1019 581 1006 583 1012 b 591 1035 588 1027 590 1032 b 598 1046 592 1038 595 1041 b 608 1056 601 1050 605 1054 b 624 1060 612 1057 617 1059 b 647 1063 630 1062 638 1063 b 673 1060 657 1063 666 1062 b 690 1051 680 1059 685 1056 b 698 1040 694 1047 697 1043 b 704 1022 699 1038 701 1031 b 711 1003 707 1013 709 1006 "},"B":{"ha":1069,"x_min":0,"x_max":0,"o":"m 118 0 b 69 10 94 0 78 3 b 56 44 60 17 56 29 b 131 76 56 66 81 76 l 154 76 b 208 161 190 76 208 105 l 208 900 b 200 955 208 930 206 948 b 158 965 194 962 181 965 l 129 965 b 106 965 123 965 115 965 b 88 964 96 964 90 964 b 63 972 75 964 67 967 b 56 1008 58 978 56 990 b 111 1046 56 1033 74 1046 b 148 1044 119 1046 132 1045 b 182 1042 164 1042 175 1042 l 597 1042 b 851 972 705 1042 789 1019 b 944 771 913 926 944 859 b 810 560 944 665 900 595 b 764 536 779 549 764 541 b 776 531 764 534 768 532 b 813 522 785 529 797 526 b 854 508 828 519 842 514 b 986 292 942 467 986 394 b 625 0 986 97 866 0 m 611 76 b 769 134 673 76 726 96 b 833 292 812 172 833 225 b 769 445 833 357 812 409 b 611 500 727 482 674 500 l 429 500 b 402 501 422 500 413 500 b 381 501 391 501 384 501 b 349 491 365 501 354 498 b 340 444 343 484 340 469 l 340 150 b 349 88 340 117 343 96 b 393 76 355 80 370 76 l 611 76 m 597 576 b 745 625 656 576 705 593 b 806 771 785 657 806 706 b 745 917 806 836 785 884 b 597 965 705 949 656 965 l 381 965 b 347 958 362 965 351 963 b 340 914 342 953 340 938 l 340 656 b 340 634 340 650 340 643 b 339 617 339 625 339 619 b 349 585 339 601 342 590 b 396 576 356 579 372 576 "},"C":{"ha":1090,"x_min":0,"x_max":0,"o":"m 1044 365 b 899 92 1029 253 980 162 b 583 -14 817 21 712 -14 b 219 137 436 -14 315 36 b 76 521 124 237 76 365 b 233 902 76 673 128 800 b 604 1056 337 1004 461 1056 b 896 942 718 1056 815 1018 b 928 918 913 926 924 918 b 931 919 929 918 930 918 b 933 922 931 919 932 920 l 936 928 b 939 935 937 930 938 932 b 942 944 940 939 941 942 b 946 956 943 947 944 951 b 950 971 948 961 949 966 b 956 997 952 975 954 984 b 963 1025 959 1010 961 1019 b 978 1041 966 1031 970 1036 b 1007 1049 985 1046 995 1049 b 1031 1045 1021 1049 1029 1047 b 1035 1021 1034 1043 1035 1035 l 1035 735 b 1029 694 1035 712 1033 698 b 992 688 1025 690 1013 688 l 985 688 b 958 697 972 688 963 691 b 949 728 954 704 950 714 b 942 760 947 743 944 753 b 818 913 919 821 877 872 b 611 975 759 954 690 975 b 336 847 494 975 403 932 b 236 521 269 761 236 652 b 330 195 236 388 267 280 b 597 68 392 110 481 68 b 844 156 696 68 778 97 b 967 368 909 214 950 285 b 968 379 967 371 967 375 b 970 388 969 384 970 387 b 972 394 971 388 971 391 b 974 399 972 397 973 399 b 976 403 975 400 975 401 b 981 406 977 405 979 406 b 986 408 982 407 984 407 b 994 410 988 409 991 410 l 1003 410 l 1015 410 b 1049 393 1038 410 1049 404 b 1047 380 1049 390 1048 386 b 1044 365 1045 374 1044 369 "},"D":{"ha":1146,"x_min":0,"x_max":0,"o":"m 115 0 b 97 -1 111 0 105 0 b 82 -1 90 -1 85 -1 b 56 32 64 -1 56 10 l 56 44 b 62 72 56 59 58 68 b 96 76 66 75 77 76 l 160 76 b 200 83 181 76 194 78 b 208 113 206 87 208 97 l 208 938 b 204 960 208 950 207 957 b 188 965 201 964 196 965 l 85 965 b 60 971 73 965 65 967 b 54 989 56 975 54 981 b 55 1003 54 992 54 997 b 56 1021 55 1010 56 1016 b 72 1043 56 1036 61 1043 b 82 1042 74 1043 77 1043 b 93 1042 87 1042 90 1042 l 569 1042 b 933 894 721 1042 843 993 b 1069 521 1024 796 1069 672 b 929 149 1069 372 1023 248 b 569 0 836 50 716 0 m 569 76 b 910 521 796 76 910 225 b 826 844 910 655 882 763 b 569 965 770 925 684 965 l 379 965 b 346 958 361 965 350 963 b 340 918 342 954 340 940 l 340 126 b 347 84 340 103 342 89 b 381 76 351 79 362 76 "},"E":{"ha":1007,"x_min":0,"x_max":0,"o":"m 132 965 b 108 965 125 965 118 965 b 89 964 99 964 93 964 b 63 972 77 964 68 967 b 56 1007 58 978 56 989 b 62 1036 56 1022 58 1031 b 83 1043 66 1041 73 1043 b 100 1042 86 1043 92 1043 b 121 1042 108 1042 115 1042 l 876 1042 b 939 1032 910 1042 931 1038 b 951 988 947 1025 951 1011 l 951 782 b 952 763 951 777 952 771 b 953 744 953 754 953 748 b 947 722 953 734 951 727 b 921 715 942 718 934 715 b 899 717 912 715 904 716 b 887 724 893 718 889 720 b 882 735 884 728 883 732 b 881 752 881 738 881 743 l 881 774 b 828 924 876 846 858 896 b 674 965 797 951 746 965 l 404 965 b 349 958 373 965 354 963 b 340 907 343 953 340 936 l 340 625 b 349 574 340 596 343 579 b 404 567 354 569 373 567 l 458 567 b 622 690 556 567 610 608 b 624 701 622 693 623 697 b 625 711 625 706 625 709 b 626 717 625 713 625 715 b 629 722 627 720 628 721 l 635 724 b 644 726 638 726 641 726 l 657 726 b 690 690 679 726 690 714 b 689 666 690 686 690 678 b 688 640 688 654 688 646 l 688 369 b 682 349 688 359 686 353 b 654 344 678 346 669 344 b 626 358 641 344 632 349 b 615 397 621 368 617 381 b 607 432 613 414 611 425 b 458 511 580 485 531 511 l 382 511 b 346 506 362 511 350 509 b 340 468 342 502 340 489 l 340 132 b 347 85 340 107 343 91 b 382 76 352 79 363 76 l 660 76 b 841 124 745 76 805 92 b 894 299 877 156 894 214 l 894 325 b 901 347 894 335 897 343 b 926 354 905 352 913 354 b 960 349 945 354 956 353 b 965 319 963 346 965 336 l 965 43 b 957 6 965 23 963 10 b 910 0 951 2 936 0 l 86 0 b 61 8 73 0 65 3 b 56 43 57 13 56 25 b 96 79 56 67 69 79 b 123 78 101 79 110 79 b 151 76 135 77 145 76 b 199 84 176 76 192 79 b 208 118 205 89 208 100 l 208 894 b 198 956 208 930 205 950 b 132 965 191 962 169 965 "},"F":{"ha":993,"x_min":0,"x_max":0,"o":"m 93 965 b 62 970 76 965 66 967 b 56 993 58 973 56 981 l 56 1015 b 59 1037 56 1026 57 1034 b 74 1042 61 1040 66 1042 l 876 1042 b 895 1042 881 1042 887 1042 b 911 1043 903 1043 908 1043 b 931 1037 920 1043 927 1041 b 938 1013 935 1033 938 1025 l 938 793 b 938 769 938 787 938 778 b 939 749 939 759 939 752 b 931 723 939 737 936 728 b 899 715 925 718 914 715 b 872 722 885 715 876 718 b 867 744 869 727 867 734 l 867 774 b 814 924 862 846 844 896 b 660 965 783 951 732 965 l 378 965 b 345 960 359 965 348 963 b 340 924 342 956 340 944 l 340 613 b 340 595 340 608 340 602 b 339 581 339 588 339 583 b 347 559 339 570 341 563 b 376 553 352 555 362 553 l 472 553 b 632 643 561 553 614 583 b 636 666 634 650 635 657 b 639 685 637 675 638 681 b 649 694 640 688 643 692 b 674 699 654 697 663 699 b 703 669 693 699 703 689 b 702 651 703 666 703 660 b 701 632 702 643 701 637 l 701 410 b 703 388 701 405 702 398 b 704 365 704 377 704 370 b 676 331 704 342 695 331 b 643 339 660 331 649 333 b 633 369 638 344 634 355 b 626 403 631 384 629 395 b 472 483 604 456 553 483 l 376 483 b 346 479 360 483 350 482 b 340 457 342 476 340 469 l 340 143 b 349 85 340 110 343 90 b 407 76 354 79 374 76 l 483 76 b 502 70 493 76 499 74 b 507 43 505 66 507 57 b 501 8 507 25 505 13 b 478 0 498 3 490 0 l 132 0 b 70 6 100 0 80 2 b 56 35 60 9 56 19 b 65 67 56 50 59 61 b 113 76 72 73 88 76 b 128 76 115 76 121 76 b 147 75 136 75 143 75 b 208 138 188 75 208 96 l 208 893 b 209 915 208 900 209 907 b 210 933 209 924 210 930 b 202 958 210 944 207 953 b 171 965 197 963 187 965 "},"G":{"ha":1215,"x_min":0,"x_max":0,"o":"m 1154 514 b 1182 509 1169 514 1178 512 b 1188 489 1186 506 1188 499 l 1188 443 b 1183 428 1188 436 1186 431 b 1160 424 1179 425 1172 424 l 1081 424 b 1054 417 1067 424 1058 422 b 1049 382 1050 413 1049 401 l 1049 335 b 1026 221 1049 292 1041 254 b 869 55 997 156 944 101 b 583 -14 794 9 699 -14 b 221 138 438 -14 317 37 b 76 521 125 238 76 366 b 233 902 76 673 128 800 b 604 1056 337 1004 461 1056 b 915 939 734 1056 838 1017 b 935 918 925 930 931 923 l 953 976 b 958 999 954 981 955 989 b 964 1022 960 1010 962 1017 b 976 1035 966 1026 970 1030 b 1001 1042 983 1039 991 1042 b 1029 1034 1015 1042 1025 1039 b 1036 1011 1034 1029 1036 1021 b 1035 992 1036 1007 1036 1001 b 1035 971 1035 984 1035 976 l 1035 719 b 1027 694 1035 706 1032 698 b 990 688 1022 690 1010 688 b 967 691 980 688 972 689 b 958 697 962 693 959 695 b 954 714 956 699 955 705 b 951 735 953 723 952 730 b 614 978 919 897 806 978 b 341 846 502 978 411 934 b 236 521 271 758 236 650 b 328 192 236 388 267 279 b 590 63 390 106 477 63 b 871 193 717 63 811 106 b 897 246 885 212 894 229 b 903 321 901 263 903 288 l 903 399 b 897 418 903 408 901 414 b 868 424 892 422 883 424 l 763 424 b 735 428 748 424 738 425 b 729 449 731 431 729 438 l 729 486 b 735 509 729 498 731 506 b 768 514 740 512 750 514 "},"H":{"ha":1236,"x_min":0,"x_max":0,"o":"m 340 621 b 346 582 340 599 342 586 b 385 576 350 578 363 576 l 829 576 b 887 586 862 576 881 580 b 896 649 893 593 896 613 l 896 929 b 891 960 896 946 894 956 b 867 965 888 963 880 965 l 785 965 b 738 972 759 965 743 968 b 729 1013 732 977 729 990 l 729 1026 b 756 1043 729 1038 738 1043 b 774 1042 759 1043 765 1043 b 790 1042 782 1042 788 1042 l 1088 1042 b 1115 1043 1094 1042 1103 1042 b 1140 1044 1127 1044 1136 1044 b 1181 1007 1167 1044 1181 1032 b 1171 972 1181 989 1177 978 b 1142 963 1164 966 1155 963 b 1118 964 1138 963 1130 963 b 1090 965 1106 965 1097 965 b 1038 957 1063 965 1045 963 b 1028 918 1031 951 1028 938 l 1028 140 b 1027 122 1028 136 1028 130 b 1026 107 1027 115 1026 110 b 1035 83 1026 95 1029 87 b 1071 76 1040 78 1052 76 l 1101 76 b 1125 78 1107 76 1115 77 b 1146 79 1135 79 1142 79 b 1181 43 1169 79 1181 67 l 1181 36 b 1175 5 1181 19 1179 8 b 1140 0 1171 2 1160 0 l 804 0 b 783 -1 800 0 792 0 b 761 -3 773 -2 766 -3 b 729 24 740 -3 729 6 b 728 39 729 27 729 32 b 728 53 728 45 728 50 b 734 72 728 62 730 68 b 760 76 738 75 747 76 l 849 76 b 889 82 871 76 884 78 b 896 115 894 86 896 97 l 896 468 b 892 496 896 484 895 493 b 865 500 890 499 881 500 l 429 500 b 356 487 391 500 367 496 b 339 436 344 478 339 461 b 340 407 339 431 339 422 b 340 371 340 392 340 380 l 340 151 b 340 129 340 145 340 138 b 339 111 339 121 339 115 b 348 84 339 98 342 89 b 388 76 354 79 367 76 l 485 76 b 503 72 494 76 500 75 b 507 49 506 69 507 62 l 507 28 b 501 5 507 16 505 8 b 468 0 497 2 486 0 l 74 0 b 59 5 66 0 61 2 b 56 26 57 8 56 15 b 62 69 56 50 58 64 b 94 76 66 74 77 76 l 113 76 b 139 76 120 76 129 76 b 160 75 149 75 156 75 b 199 88 179 75 192 79 b 208 146 205 96 208 115 l 208 943 b 168 968 208 960 195 968 b 140 967 162 968 152 968 b 115 965 128 966 120 965 b 98 965 111 965 105 965 b 83 964 91 964 86 964 b 61 972 72 964 65 966 b 56 1004 57 977 56 988 b 60 1035 56 1021 57 1031 b 83 1042 64 1040 71 1042 l 413 1042 b 442 1043 420 1042 430 1042 b 467 1044 454 1044 462 1044 b 497 1035 481 1044 491 1041 b 507 999 504 1029 507 1017 b 463 961 507 974 492 961 b 433 963 457 961 447 962 b 401 965 418 965 408 965 l 394 965 b 347 958 368 965 352 963 b 340 907 343 953 340 936 "},"I":{"ha":563,"x_min":0,"x_max":0,"o":"m 340 176 b 339 145 340 168 340 158 b 338 119 338 133 338 124 b 348 87 338 105 341 94 b 389 76 355 80 369 76 l 469 76 b 501 69 487 76 498 74 b 507 29 505 65 507 51 b 479 -1 507 9 498 -1 b 462 -1 476 -1 471 -1 b 442 0 453 0 446 0 l 178 0 b 147 -1 173 0 163 0 b 110 -3 130 -2 118 -3 b 56 24 74 -3 56 6 b 55 40 56 28 55 34 b 54 53 54 46 54 50 b 60 71 54 61 56 67 b 83 76 63 75 71 76 l 156 76 b 201 83 181 76 197 78 b 208 129 206 87 208 102 l 208 910 b 197 956 208 933 205 948 b 161 968 190 964 178 968 b 134 967 156 968 147 968 b 100 965 121 966 109 965 l 93 965 b 60 971 75 965 64 967 b 56 1007 57 975 56 987 b 62 1036 56 1022 58 1031 b 83 1043 66 1041 73 1043 b 97 1042 85 1043 90 1043 b 117 1042 105 1042 111 1042 l 471 1042 b 501 1035 488 1042 498 1039 b 507 999 505 1030 507 1018 l 507 986 b 503 968 507 976 506 970 b 478 965 500 966 492 965 l 414 965 b 392 967 408 965 401 966 b 372 968 382 968 376 968 b 340 938 351 968 340 958 "},"J":{"ha":828,"x_min":0,"x_max":0,"o":"m 619 375 b 534 94 619 259 591 166 b 286 -14 477 22 394 -14 b 84 52 198 -14 131 8 b 14 201 37 96 14 146 b 47 298 14 242 25 274 b 124 333 68 322 94 333 b 187 310 149 333 170 326 b 213 251 204 295 213 275 b 197 194 213 225 207 206 b 167 162 187 181 177 171 b 151 125 156 153 151 141 b 160 98 151 116 154 107 b 201 74 166 89 180 81 b 286 63 223 66 251 63 b 488 333 420 63 488 153 l 488 911 b 466 956 488 933 480 948 b 404 967 452 963 431 967 b 372 966 397 967 386 966 b 342 965 358 966 348 965 l 318 965 b 298 971 308 965 301 967 b 293 999 295 975 293 984 b 300 1035 293 1017 295 1029 b 326 1043 305 1040 313 1043 b 346 1042 329 1043 336 1043 b 369 1042 356 1042 364 1042 l 742 1042 b 779 1036 761 1042 774 1040 b 788 1011 785 1032 788 1024 b 787 999 788 1009 787 1005 b 786 985 786 993 786 988 b 735 964 785 971 768 964 b 707 965 728 964 719 964 b 681 965 695 965 686 965 b 651 964 668 965 658 965 b 631 954 645 963 638 960 b 619 929 623 949 619 940 "},"K":{"ha":1208,"x_min":0,"x_max":0,"o":"m 794 0 b 764 5 779 0 769 2 b 757 26 759 8 757 15 l 757 51 b 760 72 757 63 758 69 b 775 76 762 75 767 76 l 861 76 b 889 88 880 76 889 80 b 882 101 889 91 887 96 b 865 119 877 107 872 113 b 851 135 859 126 854 131 l 581 493 b 549 528 563 516 552 528 b 518 504 544 528 534 520 l 410 393 l 399 382 l 387 370 b 376 359 385 369 382 365 b 366 346 371 353 367 349 b 358 333 365 343 362 339 b 351 318 355 328 352 323 b 345 301 349 313 347 308 b 341 281 343 295 341 288 b 340 260 341 274 340 267 l 340 113 b 347 83 340 98 343 88 b 371 75 352 78 360 75 b 388 76 374 75 379 75 b 408 76 396 76 403 76 l 488 76 b 503 72 496 76 501 75 b 507 49 506 68 507 61 b 501 8 507 26 505 13 b 468 0 497 3 486 0 l 125 0 b 104 -1 120 0 113 0 b 85 -3 95 -2 88 -3 b 56 26 65 -3 56 7 b 62 69 56 50 58 65 b 101 76 66 74 79 76 l 108 76 b 137 76 116 76 125 76 b 160 75 148 75 156 75 b 199 88 179 75 192 79 b 208 143 205 96 208 114 l 208 893 b 209 915 208 900 209 907 b 210 933 209 924 210 930 b 202 958 210 944 207 953 b 169 965 197 963 186 965 l 85 965 b 61 972 73 965 65 968 b 56 1007 57 977 56 988 b 89 1044 56 1032 67 1044 b 110 1043 93 1044 100 1044 b 133 1042 120 1042 128 1042 l 478 1042 b 502 1035 491 1042 499 1040 b 507 1001 505 1031 507 1020 b 503 971 507 985 506 975 b 481 965 500 967 493 965 l 397 965 b 349 959 370 965 354 963 b 340 921 343 955 340 942 l 340 513 b 356 449 340 470 345 449 b 371 456 360 449 365 451 b 396 483 376 461 385 470 b 419 510 407 496 415 505 l 804 907 l 820 923 b 838 942 828 931 834 937 b 844 954 842 946 844 950 b 814 965 844 962 834 965 l 732 965 b 713 971 723 965 716 967 b 708 999 710 975 708 984 b 714 1036 708 1020 710 1032 b 753 1042 718 1040 731 1042 l 1064 1042 b 1083 1042 1069 1042 1076 1042 b 1097 1043 1091 1043 1095 1043 b 1119 1036 1107 1043 1115 1041 b 1125 1007 1123 1031 1125 1022 b 1119 972 1125 988 1123 976 b 1090 965 1116 967 1106 965 l 1000 965 b 978 964 992 965 984 965 b 963 959 972 963 967 961 b 953 953 958 957 955 955 b 942 943 951 952 947 949 b 932 932 937 938 934 934 l 667 660 b 644 621 652 645 644 632 b 649 605 644 615 646 610 b 666 583 651 600 657 592 b 685 560 675 573 681 565 l 1029 118 b 1072 83 1044 99 1058 87 b 1150 76 1085 78 1111 76 b 1169 77 1155 76 1161 77 b 1185 78 1177 78 1182 78 b 1209 69 1197 78 1205 75 b 1215 35 1213 64 1215 52 b 1210 6 1215 20 1214 10 b 1190 0 1207 2 1200 0 "},"L":{"ha":1014,"x_min":0,"x_max":0,"o":"m 78 965 b 60 970 69 965 63 967 b 56 996 57 973 56 982 b 61 1035 56 1017 57 1030 b 93 1042 65 1039 75 1042 l 464 1042 b 488 1034 476 1042 484 1039 b 493 999 491 1029 493 1017 b 450 961 493 974 479 961 b 421 963 444 961 435 962 b 390 965 407 965 397 965 l 383 965 b 346 959 362 965 350 963 b 340 918 342 955 340 941 l 340 132 b 348 85 340 108 343 92 b 379 75 353 78 363 75 b 397 76 382 75 388 75 b 418 76 405 76 413 76 l 653 76 b 826 126 734 76 792 93 b 886 288 861 159 881 213 b 888 311 887 294 888 302 b 888 331 888 320 888 327 b 892 343 889 334 890 338 b 905 352 895 348 899 351 b 929 354 911 353 919 354 b 961 325 950 354 961 344 b 960 306 961 321 961 315 b 958 285 959 297 958 290 l 958 74 b 959 53 958 68 959 61 b 960 36 959 44 960 39 b 950 7 960 21 956 12 b 907 0 944 2 929 0 l 143 0 b 122 -1 140 0 133 0 b 94 -3 110 -2 101 -3 b 56 15 69 -3 56 3 b 55 32 56 18 55 24 b 54 50 54 40 54 46 b 71 76 54 68 60 76 l 157 76 b 199 96 178 76 192 83 b 210 154 206 109 210 128 b 209 181 210 160 209 169 b 208 210 209 194 208 203 l 208 936 b 203 960 208 949 206 957 b 171 965 199 964 188 965 "},"M":{"ha":1438,"x_min":0,"x_max":0,"o":"m 133 965 b 97 970 113 965 101 967 b 90 997 92 973 90 982 l 90 1015 b 95 1038 90 1026 92 1034 b 113 1043 98 1041 104 1043 b 124 1042 114 1043 118 1043 b 139 1042 130 1042 135 1042 l 369 1042 b 400 1040 381 1042 392 1041 b 419 1035 408 1038 415 1037 b 432 1024 424 1034 428 1030 b 440 1013 436 1018 438 1014 b 447 993 441 1011 443 1004 b 453 971 450 982 452 975 l 694 238 b 699 223 696 233 698 228 b 703 210 701 218 702 214 b 706 200 704 207 705 204 b 708 190 706 196 707 193 b 711 183 709 188 710 185 b 714 179 712 181 713 180 b 717 178 715 178 716 178 b 738 221 721 178 728 192 l 986 974 b 1019 1030 995 1003 1006 1022 b 1086 1042 1032 1038 1055 1042 l 1275 1042 b 1297 1042 1281 1042 1288 1042 b 1314 1043 1305 1043 1311 1043 b 1340 1035 1327 1043 1336 1040 b 1347 999 1345 1029 1347 1017 b 1343 970 1347 983 1346 973 b 1318 965 1340 967 1332 965 l 1256 965 b 1208 960 1231 965 1215 963 b 1199 933 1202 956 1199 947 b 1199 919 1199 931 1199 926 b 1200 901 1200 912 1200 906 l 1226 263 l 1226 239 b 1226 203 1226 230 1226 218 b 1225 171 1225 188 1225 177 b 1246 98 1225 137 1232 112 b 1333 76 1260 84 1289 76 b 1350 77 1338 76 1344 77 b 1364 78 1356 78 1361 78 b 1383 71 1373 78 1380 75 b 1389 43 1387 66 1389 57 b 1383 6 1389 23 1387 10 b 1349 0 1380 2 1368 0 l 1011 0 b 989 -1 1006 0 998 0 b 969 -1 980 -1 973 -1 b 945 7 958 -1 950 1 b 938 40 940 13 938 24 b 944 70 938 55 940 65 b 965 78 948 75 955 78 b 981 77 968 78 973 78 b 1000 76 989 77 995 76 b 1083 85 1044 76 1072 79 b 1099 136 1093 91 1099 108 b 1098 157 1099 140 1098 147 b 1097 182 1097 167 1097 175 l 1079 885 b 1069 921 1079 909 1076 921 b 1050 890 1063 921 1056 911 l 769 46 b 763 25 768 41 766 34 b 758 7 761 16 759 10 b 749 -4 756 4 753 0 b 731 -12 744 -9 738 -12 b 704 -14 724 -13 715 -14 b 685 -13 697 -14 690 -14 b 671 -10 679 -13 675 -12 l 663 -6 b 657 1 661 -5 659 -2 b 653 10 655 5 654 8 b 649 23 652 13 650 17 b 644 38 647 29 645 34 l 351 915 b 335 946 345 936 339 946 b 326 911 330 946 327 934 l 299 188 b 296 151 299 178 298 166 b 293 119 294 135 293 125 b 306 86 293 104 297 93 b 358 76 315 80 332 76 b 388 78 365 76 375 77 b 415 79 400 79 410 79 b 458 43 444 79 458 67 b 452 8 458 25 456 13 b 426 0 448 3 439 0 l 111 0 b 92 -1 106 0 100 0 b 75 -3 84 -2 79 -3 b 49 24 57 -3 49 6 b 56 69 49 49 51 64 b 99 76 60 74 75 76 l 106 76 b 135 76 113 76 123 76 b 158 75 147 75 155 75 b 197 87 177 75 190 79 b 208 138 203 95 207 112 l 243 893 l 243 910 b 232 956 243 934 239 949 b 192 967 225 963 211 967 b 165 966 187 967 178 966 b 133 965 152 966 142 965 "},"N":{"ha":1215,"x_min":0,"x_max":0,"o":"m 144 965 b 117 964 137 965 128 965 b 94 963 106 963 98 963 b 65 972 81 963 71 966 b 56 1008 59 978 56 990 b 62 1036 56 1022 58 1031 b 83 1043 66 1041 73 1043 b 99 1042 86 1043 91 1043 b 117 1042 106 1042 112 1042 l 278 1042 b 317 1040 294 1042 307 1041 b 346 1028 328 1038 338 1034 b 363 1015 354 1022 360 1018 b 379 993 365 1013 371 1005 b 396 969 388 981 393 973 l 896 314 b 940 268 920 283 935 268 b 951 325 948 268 951 287 l 951 914 b 952 930 951 918 952 923 b 953 943 953 937 953 941 b 947 960 953 951 951 957 b 922 965 944 964 935 965 l 828 965 b 803 972 815 965 807 967 b 799 1006 800 976 799 987 b 803 1035 799 1021 800 1031 b 825 1042 807 1040 814 1042 l 1114 1042 b 1134 1043 1118 1042 1124 1042 b 1156 1044 1144 1044 1151 1044 b 1188 1022 1177 1044 1188 1037 b 1178 975 1188 998 1184 982 b 1144 964 1172 968 1161 964 b 1121 965 1141 964 1133 964 b 1092 965 1109 965 1099 965 l 1085 965 b 1047 958 1063 965 1051 963 b 1042 917 1044 954 1042 940 l 1042 67 b 1043 44 1042 62 1042 55 b 1044 21 1044 34 1044 26 b 1019 -14 1044 -2 1036 -14 b 998 -10 1011 -14 1004 -13 b 985 -4 992 -8 988 -6 b 975 9 983 -2 980 2 b 965 22 970 16 967 20 l 354 817 b 334 846 349 823 342 833 b 315 873 326 859 320 868 b 304 881 311 878 307 881 b 292 803 296 881 292 855 l 292 114 b 297 83 292 98 294 88 b 319 76 301 79 308 76 l 421 76 b 445 69 433 76 441 74 b 451 33 449 64 451 52 b 447 6 451 19 450 9 b 428 0 444 2 438 0 l 107 0 b 63 8 82 0 67 3 b 56 56 58 13 56 29 b 71 78 56 70 61 78 b 81 77 73 78 76 78 b 92 76 85 77 89 76 l 150 76 b 193 83 172 76 187 79 b 203 113 200 88 203 98 b 202 129 203 115 203 121 b 201 150 202 138 201 144 l 201 925 b 192 958 201 942 198 953 b 144 965 185 963 169 965 "},"O":{"ha":1153,"x_min":0,"x_max":0,"o":"m 76 521 b 213 902 76 673 122 800 b 576 1056 304 1004 425 1056 b 940 902 727 1056 848 1004 b 1076 521 1031 800 1076 673 b 935 141 1076 371 1029 244 b 576 -14 841 38 722 -14 b 213 140 425 -14 304 37 b 76 521 122 242 76 369 m 236 521 b 321 186 236 385 264 273 b 576 56 377 99 463 56 b 737 92 638 56 692 68 b 842 194 782 116 817 150 b 899 341 868 238 887 287 b 917 521 911 395 917 455 b 832 856 917 657 888 769 b 576 986 775 943 690 986 b 321 856 463 986 377 943 b 236 521 264 769 236 657 "},"P":{"ha":965,"x_min":0,"x_max":0,"o":"m 74 965 b 59 969 66 965 61 967 b 56 990 57 972 56 979 l 56 1013 b 58 1038 56 1026 56 1035 b 76 1042 60 1040 66 1042 l 549 1042 b 821 966 671 1042 762 1016 b 910 750 880 916 910 844 b 821 534 910 656 880 584 b 549 458 762 484 671 458 l 406 458 b 385 459 401 458 394 459 b 368 460 377 459 371 460 b 340 429 350 460 340 450 l 340 115 b 346 83 340 99 342 88 b 369 76 350 79 357 76 l 444 76 b 459 77 448 76 453 77 b 472 78 465 78 469 78 b 493 60 486 78 493 72 l 493 36 b 485 6 493 20 491 10 b 444 0 480 2 467 0 l 88 0 b 60 6 73 0 64 2 b 56 40 57 10 56 22 b 60 70 56 56 57 66 b 81 76 64 74 70 76 l 164 76 b 201 83 183 76 196 78 b 208 108 206 87 208 95 l 208 943 b 189 967 208 959 202 967 b 178 966 187 967 183 966 b 164 965 172 966 168 965 m 549 535 b 701 594 613 535 664 555 b 757 750 738 634 757 686 b 701 906 757 814 738 866 b 549 965 664 945 613 965 l 389 965 b 348 959 367 965 353 963 b 340 928 343 955 340 944 l 340 565 b 344 540 340 551 342 543 b 364 535 347 536 354 535 "},"Q":{"ha":1153,"x_min":0,"x_max":0,"o":"m 76 521 b 213 902 76 673 122 800 b 576 1056 304 1004 425 1056 b 940 902 727 1056 848 1004 b 1076 521 1031 800 1076 673 b 1027 279 1076 434 1060 353 b 888 94 994 205 948 144 b 868 80 882 90 875 85 b 851 68 861 75 855 71 b 842 58 848 65 844 62 b 838 46 839 55 838 50 b 856 6 838 37 844 23 b 928 -51 881 -32 906 -51 b 1040 47 984 -51 1022 -19 b 1044 74 1042 55 1044 64 b 1047 97 1045 85 1046 92 b 1058 108 1048 101 1052 105 b 1086 114 1064 112 1073 114 b 1115 81 1106 114 1115 103 b 1114 56 1115 70 1115 62 b 1050 -110 1106 -13 1084 -68 b 917 -174 1016 -153 971 -174 b 744 -21 836 -174 779 -123 b 708 7 739 -2 727 7 b 653 -3 701 7 683 3 b 576 -14 624 -10 599 -14 b 213 140 425 -14 304 37 b 76 521 122 242 76 369 m 576 56 b 658 63 600 56 627 58 b 706 85 690 68 706 75 b 703 94 706 88 705 91 b 695 107 701 97 698 101 b 688 122 692 113 689 118 b 613 247 665 176 641 218 b 506 292 586 277 550 292 b 421 256 470 292 442 280 b 389 172 400 231 389 204 b 464 74 389 123 414 90 b 576 56 500 62 538 56 m 825 168 b 917 521 886 247 917 364 b 832 856 917 657 888 769 b 576 986 775 943 690 986 b 321 856 463 986 377 943 b 236 521 264 769 236 657 b 265 303 236 440 246 368 b 289 242 276 269 284 249 b 307 215 298 224 304 215 b 312 223 309 215 310 218 b 319 251 313 228 316 238 b 331 292 322 265 326 279 b 392 384 343 329 363 359 b 503 421 422 409 458 421 b 772 164 610 421 700 335 b 794 132 781 143 788 132 b 802 136 797 132 800 133 b 813 151 804 139 808 144 b 825 168 817 158 821 163 "},"R":{"ha":1076,"x_min":0,"x_max":0,"o":"m 1074 135 b 1096 125 1080 135 1088 131 b 1108 107 1104 119 1108 113 b 1092 69 1108 99 1103 86 b 938 -14 1059 14 1008 -14 b 834 13 894 -14 859 -5 b 783 84 809 31 792 55 b 767 181 775 113 769 145 b 757 285 764 216 761 251 b 736 381 753 320 746 352 b 678 452 726 410 706 434 b 563 479 649 470 611 479 l 381 479 b 347 472 362 479 351 477 b 340 431 342 468 340 454 l 340 111 b 349 83 340 97 343 88 b 389 76 354 79 368 76 l 447 76 b 461 77 451 76 456 77 b 472 78 467 78 470 78 b 493 50 486 78 493 69 b 484 8 493 29 490 15 b 453 -1 478 2 468 -1 b 431 -1 449 -1 442 -1 b 403 0 419 0 410 0 l 82 0 b 59 4 69 0 61 1 b 56 31 57 7 56 16 b 62 69 56 51 58 64 b 89 76 66 74 75 76 l 176 76 b 203 84 190 76 199 79 b 208 122 206 89 208 102 l 208 938 b 202 960 208 950 206 957 b 169 965 198 964 187 965 l 89 965 b 61 970 74 965 65 967 b 56 990 57 973 56 980 l 56 1014 b 61 1038 56 1026 57 1034 b 79 1043 65 1041 71 1043 b 94 1042 82 1043 87 1043 b 111 1042 101 1042 106 1042 l 604 1042 b 867 965 723 1042 810 1016 b 951 764 923 913 951 846 b 794 535 951 645 899 569 b 738 513 756 523 738 515 b 782 486 738 510 752 501 b 863 404 818 467 845 439 b 892 297 880 369 890 333 b 898 193 895 261 897 226 b 916 111 899 160 905 132 b 974 79 927 90 946 79 b 1044 106 1000 79 1024 88 b 1057 119 1049 109 1053 114 b 1065 131 1061 125 1063 129 b 1074 135 1067 134 1070 135 m 604 563 b 751 615 662 563 711 580 b 813 764 792 649 813 699 b 751 913 813 829 792 878 b 604 965 711 948 662 965 l 408 965 b 388 966 403 965 396 966 b 371 967 379 966 374 967 b 348 960 361 967 353 964 b 340 931 343 955 340 945 l 340 642 b 340 617 340 635 340 627 b 339 599 339 608 339 601 b 349 571 339 586 342 576 b 389 563 355 565 369 563 "},"S":{"ha":889,"x_min":0,"x_max":0,"o":"m 717 792 b 622 933 700 851 669 898 b 458 985 576 967 521 985 b 290 938 382 985 326 969 b 236 813 254 906 236 864 b 270 715 236 774 247 741 b 358 654 293 688 322 668 b 476 617 393 640 433 628 b 607 579 520 606 563 593 b 726 527 650 565 690 548 b 813 436 761 506 791 476 b 847 292 836 396 847 348 b 749 63 847 194 814 118 b 472 -21 683 7 591 -21 b 219 69 377 -21 293 9 b 189 88 205 81 194 88 b 183 85 186 88 184 87 b 178 78 181 84 180 81 b 173 67 176 74 174 70 b 167 50 172 63 170 57 b 161 31 165 43 163 36 b 158 22 160 29 159 26 b 155 14 156 17 155 15 l 152 8 b 149 3 151 6 150 4 b 144 -1 148 2 146 1 b 139 -3 143 -2 141 -3 b 131 -6 137 -4 134 -5 b 121 -7 128 -6 125 -7 l 108 -7 b 76 -1 91 -7 80 -5 b 69 22 72 2 69 10 l 69 275 b 68 299 69 281 69 288 b 67 319 67 309 67 316 b 106 354 67 343 80 354 l 119 354 b 141 350 131 354 139 353 b 147 322 143 347 145 338 b 244 133 156 251 188 188 b 458 50 300 78 371 50 b 656 113 545 50 611 71 b 722 257 700 154 722 202 b 688 365 722 300 711 335 b 601 431 666 394 636 416 b 482 471 565 447 525 460 b 351 507 438 482 395 494 b 233 554 308 520 268 536 b 145 637 197 573 168 600 b 111 771 122 673 111 718 b 206 983 111 863 143 934 b 444 1056 269 1031 348 1056 b 636 1001 515 1056 579 1038 b 661 979 642 998 650 990 b 686 963 672 968 681 963 b 701 978 693 963 698 968 l 719 1019 b 733 1039 724 1031 728 1037 b 764 1042 737 1041 747 1042 b 777 1042 768 1042 772 1042 b 788 1043 782 1043 786 1043 b 806 1019 800 1043 806 1035 l 806 772 b 806 751 806 767 806 759 b 807 733 807 742 807 736 b 799 708 807 721 804 713 b 764 701 793 704 781 701 b 732 713 748 701 738 705 b 722 753 726 721 723 734 b 717 792 720 772 719 785 "},"T":{"ha":993,"x_min":0,"x_max":0,"o":"m 328 0 b 305 -1 322 0 315 0 b 283 -3 295 -2 288 -3 b 250 28 261 -3 250 7 l 250 58 b 281 78 250 71 260 78 b 301 77 285 78 292 78 b 319 76 309 77 316 76 l 392 76 b 424 82 408 76 419 78 b 432 104 429 86 432 93 b 431 119 432 107 432 112 b 431 136 431 126 431 131 l 431 922 b 420 965 431 944 427 958 b 388 975 413 972 402 975 b 363 974 383 975 375 975 b 333 972 352 973 342 972 b 170 937 258 972 204 960 b 106 811 136 913 115 871 b 105 771 106 809 105 796 b 97 710 104 746 102 726 b 72 688 93 695 84 688 b 35 696 54 688 41 690 b 26 724 29 701 26 711 b 27 742 26 726 27 733 b 28 767 28 752 28 760 l 28 1008 b 67 1044 28 1032 41 1044 b 92 1043 71 1044 80 1044 b 119 1042 104 1042 113 1042 l 933 1042 b 959 1034 946 1042 955 1039 b 965 997 963 1029 965 1017 l 965 758 b 967 738 965 754 966 747 b 968 718 968 728 968 722 b 939 688 968 698 958 688 b 901 700 919 688 907 692 b 892 738 895 708 892 721 b 892 749 892 740 892 744 b 893 758 893 753 893 756 b 892 767 893 760 893 763 b 892 778 892 772 892 775 b 831 930 885 851 865 902 b 660 972 797 958 740 972 l 586 972 b 567 967 576 972 569 970 b 563 939 564 963 563 954 l 563 129 b 574 85 563 106 566 91 b 633 76 581 79 601 76 l 715 76 b 739 72 728 76 736 75 b 743 42 742 68 743 58 l 743 17 b 717 -3 743 4 734 -3 b 699 -1 713 -3 707 -2 b 681 0 690 0 684 0 "},"U":{"ha":1139,"x_min":0,"x_max":0,"o":"m 750 965 b 737 965 747 965 743 965 b 725 964 731 964 727 964 b 708 981 714 964 708 969 l 708 1019 b 711 1038 708 1030 709 1036 b 725 1042 713 1041 718 1042 l 1050 1042 b 1070 1042 1055 1042 1061 1042 b 1089 1043 1079 1043 1085 1043 b 1118 1017 1108 1043 1118 1034 b 1112 973 1118 993 1116 978 b 1078 965 1108 968 1096 965 l 1058 965 b 1032 967 1053 965 1044 966 b 1006 968 1020 968 1011 968 b 965 936 979 968 965 957 l 965 417 b 873 85 965 266 934 155 b 576 -21 811 14 713 -21 b 269 96 436 -21 333 18 b 174 417 206 174 174 281 l 174 926 b 165 958 174 943 171 954 b 119 965 159 963 144 965 l 92 965 b 72 964 88 965 81 965 b 51 963 63 963 56 963 b 21 986 31 963 21 970 l 21 1025 b 42 1043 21 1037 28 1043 b 55 1042 44 1043 49 1043 b 69 1042 61 1042 66 1042 l 450 1042 b 472 1019 465 1042 472 1034 l 472 1006 b 469 983 472 994 471 987 b 448 972 468 978 460 975 b 386 965 435 968 415 966 l 382 965 b 364 966 378 965 372 966 b 346 967 356 966 350 967 b 306 928 319 967 306 954 l 306 431 b 372 160 306 315 328 225 b 597 63 416 95 491 63 b 819 144 703 63 777 90 b 882 417 861 198 882 289 l 882 922 b 876 958 882 941 880 953 b 851 965 873 963 864 965 "},"V":{"ha":1194,"x_min":0,"x_max":0,"o":"m 958 926 b 965 951 963 938 965 947 b 919 965 965 961 950 965 l 842 965 b 810 970 823 965 813 967 b 806 1001 807 973 806 984 b 815 1035 806 1018 809 1029 b 843 1044 821 1041 830 1044 b 865 1043 848 1044 855 1044 b 892 1042 875 1042 884 1042 l 1172 1042 b 1191 1037 1182 1042 1189 1040 b 1194 1010 1193 1034 1194 1025 b 1189 972 1194 988 1193 976 b 1154 965 1185 967 1174 965 l 1103 965 b 1075 962 1092 965 1082 964 b 1057 955 1068 959 1062 957 b 1042 938 1052 953 1047 947 b 1031 915 1037 928 1033 921 b 1017 883 1028 910 1023 899 b 1001 843 1010 866 1005 853 l 683 71 b 672 40 681 65 677 55 b 660 8 668 24 664 14 b 641 -11 657 2 651 -5 b 603 -21 631 -18 619 -21 b 569 -8 590 -21 578 -17 b 549 17 559 0 552 8 b 535 53 545 25 541 37 b 525 85 530 70 527 80 l 182 907 b 174 925 180 911 178 917 b 167 941 171 933 169 939 b 160 951 166 943 164 947 b 149 960 157 956 153 959 b 132 963 145 961 139 962 b 106 965 125 965 116 965 l 46 965 b 6 972 24 965 10 968 b 0 1015 2 977 0 991 b 25 1043 0 1034 8 1043 b 42 1042 28 1043 33 1043 b 61 1042 50 1042 56 1042 l 432 1042 b 453 1037 443 1042 450 1040 b 458 1013 457 1034 458 1025 l 458 1006 b 449 975 458 992 455 981 b 406 965 443 969 429 965 l 364 965 b 339 965 353 965 344 965 b 326 960 333 964 329 963 b 321 947 322 957 321 953 b 333 904 321 940 325 925 l 615 204 b 643 164 626 177 636 164 b 655 175 648 164 652 168 b 668 212 658 182 663 195 b 682 251 674 229 678 242 "},"W":{"ha":1653,"x_min":0,"x_max":0,"o":"m 785 760 b 807 853 800 801 807 832 b 794 922 807 871 803 894 b 775 959 788 943 781 955 b 728 965 769 963 753 965 l 689 965 b 665 972 677 965 669 968 b 660 1006 662 977 660 988 b 665 1035 660 1020 662 1030 b 686 1042 669 1039 676 1042 l 964 1042 b 989 1043 969 1042 978 1042 b 1013 1044 1000 1044 1008 1044 b 1049 1014 1037 1044 1049 1034 b 1040 974 1049 994 1046 980 b 1010 964 1034 967 1024 964 b 988 965 1006 964 999 964 b 960 965 976 965 967 965 b 922 950 935 965 922 960 b 924 939 922 947 923 944 b 930 922 926 934 928 929 b 936 906 932 916 934 910 l 1121 281 b 1153 207 1136 231 1146 207 b 1159 211 1155 207 1157 208 b 1166 225 1161 214 1164 219 b 1173 245 1168 231 1171 238 b 1182 274 1175 252 1178 262 b 1192 306 1186 286 1189 296 l 1386 885 b 1403 943 1397 918 1403 938 b 1372 965 1403 958 1393 965 l 1281 965 b 1256 986 1264 965 1256 972 b 1256 999 1256 988 1256 992 b 1257 1014 1257 1005 1257 1010 b 1282 1043 1257 1033 1265 1043 b 1297 1042 1285 1043 1290 1043 b 1314 1042 1303 1042 1309 1042 l 1614 1042 b 1640 1034 1627 1042 1635 1039 b 1646 997 1644 1029 1646 1017 b 1600 961 1646 973 1631 961 b 1569 963 1594 961 1583 962 b 1539 965 1556 965 1545 965 b 1510 963 1527 965 1517 965 b 1494 954 1503 962 1498 959 b 1485 943 1490 950 1487 946 b 1478 924 1483 940 1481 934 b 1472 901 1476 913 1474 906 l 1201 89 b 1193 56 1200 83 1197 72 b 1183 20 1189 40 1186 28 b 1165 -3 1179 12 1173 5 b 1131 -14 1156 -10 1144 -14 b 1098 -8 1118 -14 1107 -12 b 1077 10 1089 -5 1082 1 b 1066 33 1072 18 1068 26 b 1058 64 1064 41 1061 51 b 1051 93 1056 77 1053 87 l 878 651 b 853 711 866 691 857 711 b 824 647 849 711 839 690 l 621 89 b 611 56 619 84 616 73 b 599 20 606 39 603 27 b 580 -2 596 13 590 6 b 543 -14 570 -10 558 -14 b 510 -10 529 -14 518 -13 b 492 4 503 -8 496 -3 b 481 26 487 12 484 19 b 472 61 479 33 476 44 b 458 106 467 78 463 93 l 175 918 b 150 958 167 939 158 953 b 99 965 142 963 125 965 l 81 965 b 58 965 75 965 68 965 b 40 964 49 964 43 964 b 15 973 28 964 20 967 b 7 1010 9 979 7 991 b 49 1044 7 1033 21 1044 b 76 1043 54 1044 63 1044 b 106 1042 89 1042 99 1042 l 389 1042 b 413 1042 394 1042 402 1042 b 432 1043 423 1043 429 1043 b 458 1035 444 1043 453 1040 b 465 1001 463 1029 465 1018 b 429 963 465 975 453 963 b 406 964 425 963 417 963 b 381 965 396 965 387 965 l 344 965 b 314 963 330 965 319 964 b 306 949 308 961 306 956 b 315 910 306 944 309 931 l 535 260 b 572 193 550 215 562 193 b 590 214 579 193 584 200 b 609 275 595 228 601 248 b 629 339 617 302 624 323 "},"X":{"ha":1208,"x_min":0,"x_max":0,"o":"m 479 1042 b 515 1036 499 1042 510 1040 b 521 1003 519 1032 521 1021 l 521 996 b 485 963 521 974 509 963 b 460 964 480 963 472 963 b 435 965 449 965 440 965 b 376 954 396 965 376 962 b 406 913 376 952 386 938 l 599 660 b 606 650 600 657 603 654 b 612 641 608 646 610 643 b 617 635 613 639 615 637 b 622 631 619 633 620 631 b 626 629 623 630 625 629 b 649 649 632 629 639 636 l 861 921 b 888 957 879 942 888 954 b 843 965 888 963 873 965 l 756 965 b 733 969 743 965 735 967 b 729 996 730 972 729 981 l 729 1024 b 756 1043 729 1037 738 1043 b 773 1042 759 1043 765 1043 b 790 1042 781 1042 787 1042 l 1118 1042 b 1140 1035 1129 1042 1137 1039 b 1146 1001 1144 1030 1146 1019 b 1140 972 1146 987 1144 977 b 1118 965 1135 968 1128 965 l 1040 965 b 1020 965 1033 965 1026 965 b 1005 963 1014 964 1009 964 b 992 959 1001 963 997 961 b 983 955 988 957 985 955 b 974 949 980 954 978 952 b 968 942 971 945 969 943 b 960 932 967 941 964 938 b 951 921 955 926 952 923 l 719 618 b 708 604 717 614 713 610 l 698 592 b 691 582 696 589 693 586 b 686 572 689 578 687 575 b 685 563 685 568 685 565 b 704 524 685 552 691 539 l 996 143 b 1010 123 1000 138 1004 132 b 1024 103 1015 114 1020 108 b 1039 90 1027 99 1032 95 b 1063 79 1045 84 1053 81 b 1096 76 1072 77 1083 76 l 1172 76 b 1190 72 1181 76 1188 75 b 1194 46 1193 68 1194 60 b 1195 32 1194 42 1195 38 b 1196 21 1196 26 1196 23 b 1171 0 1196 7 1188 0 l 807 0 b 785 -1 801 0 794 0 b 767 -1 777 -1 770 -1 b 743 6 756 -1 748 1 b 736 35 738 11 736 21 b 735 48 736 38 736 43 b 735 58 735 53 735 56 b 757 76 735 70 742 76 l 810 76 b 871 89 850 76 871 81 b 836 135 871 91 859 106 l 615 424 b 607 435 613 427 610 431 b 600 445 604 440 602 443 b 594 453 598 447 596 450 b 589 458 593 456 591 457 b 583 460 587 459 585 460 b 558 438 579 460 570 452 l 296 104 b 285 82 288 94 285 87 b 303 74 285 76 291 74 b 326 75 306 74 314 74 b 357 76 338 76 349 76 b 379 77 363 76 370 77 b 399 78 388 78 395 78 b 431 43 420 78 431 66 l 431 31 b 425 5 431 17 429 8 b 393 0 421 2 411 0 l 71 0 b 54 -1 66 0 61 0 b 40 -1 48 -1 43 -1 b 19 6 30 -1 23 1 b 14 38 16 11 14 22 b 18 70 14 55 15 66 b 42 76 21 74 29 76 l 149 76 b 178 82 160 76 170 78 b 197 93 187 86 193 89 b 211 113 200 97 205 103 b 225 132 218 123 222 129 l 514 496 b 531 528 525 510 531 520 b 506 568 531 531 522 545 l 238 921 b 215 949 226 936 219 945 b 192 960 210 953 203 957 b 143 965 181 964 164 965 b 119 964 138 965 130 965 b 97 963 109 963 102 963 b 63 996 74 963 63 974 b 70 1034 63 1015 65 1028 b 97 1043 75 1040 84 1043 b 117 1042 101 1043 107 1043 b 140 1042 126 1042 134 1042 "},"Y":{"ha":1090,"x_min":0,"x_max":0,"o":"m 392 1042 b 410 1042 395 1042 401 1042 b 429 1043 418 1043 425 1043 b 458 1024 449 1043 458 1037 b 459 1006 458 1019 459 1013 b 460 990 459 998 460 993 b 453 971 460 981 457 975 b 425 965 448 967 439 965 l 336 965 b 296 953 309 965 296 961 b 301 940 296 949 298 945 b 316 922 305 936 310 930 b 329 904 322 915 326 909 l 539 590 b 576 547 558 562 571 547 b 580 548 577 547 578 547 b 585 551 581 548 583 550 l 590 556 b 594 563 591 558 593 560 b 599 571 596 565 598 568 b 606 581 601 574 603 577 b 614 593 609 585 612 589 l 839 938 b 850 960 846 950 850 957 b 829 965 850 963 843 965 l 728 965 b 712 965 723 965 718 965 b 699 964 706 964 701 964 b 679 971 689 964 683 966 b 674 999 675 975 674 985 l 674 1022 b 678 1038 674 1030 675 1035 b 700 1042 682 1040 689 1042 l 1031 1042 b 1048 1042 1035 1042 1041 1042 b 1063 1043 1055 1043 1060 1043 b 1085 1035 1074 1043 1081 1041 b 1090 1004 1088 1030 1090 1020 l 1090 997 b 1085 969 1090 981 1088 972 b 1053 965 1081 967 1070 965 l 994 965 b 967 963 983 965 974 965 b 949 955 960 962 954 959 b 937 944 943 951 939 947 b 927 927 934 941 931 935 b 917 910 923 919 919 913 l 651 501 b 647 494 650 500 649 498 b 642 487 644 491 643 488 b 639 481 642 485 641 483 b 635 474 637 478 636 476 b 633 467 635 473 634 471 b 630 460 631 464 630 462 l 628 451 b 626 442 627 448 626 444 b 626 431 626 439 626 435 b 625 418 625 427 625 423 l 625 131 b 633 83 625 104 628 88 b 683 76 638 79 655 76 l 753 76 b 785 71 769 76 780 75 b 792 49 789 67 792 60 l 792 24 b 768 -1 792 7 784 -1 b 753 -1 765 -1 760 -1 b 736 0 747 0 741 0 l 372 0 b 347 8 359 0 351 3 b 340 46 342 13 340 25 b 344 72 340 61 342 69 b 372 76 347 75 356 76 l 458 76 b 487 84 473 76 483 79 b 493 124 491 89 493 102 l 493 379 b 492 401 493 388 493 395 b 490 420 492 408 491 414 b 485 435 488 426 487 431 b 479 448 484 438 482 443 b 473 459 476 453 474 457 b 465 472 472 461 469 466 b 456 485 460 478 457 482 l 164 921 b 156 933 162 924 159 928 b 149 943 153 938 151 941 b 143 951 148 945 146 947 b 135 958 140 954 138 956 b 124 962 132 959 128 960 b 108 965 119 963 114 964 b 89 965 103 965 96 965 l 40 965 b 6 972 21 965 9 967 b 0 1010 2 976 0 988 b 3 1037 0 1025 1 1034 b 22 1042 6 1040 12 1042 "},"Z":{"ha":1021,"x_min":0,"x_max":0,"o":"m 104 1013 b 136 1044 104 1034 115 1044 b 156 1043 140 1044 146 1044 b 178 1042 165 1042 172 1042 l 844 1042 b 865 1042 849 1042 856 1042 b 882 1043 873 1043 879 1043 b 903 1036 892 1043 899 1041 b 910 1010 908 1031 910 1023 b 908 978 910 998 909 987 b 899 954 906 970 903 962 b 890 938 895 947 892 941 b 876 921 887 935 883 929 b 861 904 869 913 864 907 l 314 210 b 276 167 305 199 292 184 b 242 126 261 149 249 136 b 231 103 234 117 231 109 b 356 76 231 85 272 76 l 660 76 b 836 120 744 76 803 91 b 894 285 869 149 889 204 l 894 321 b 902 347 894 333 897 341 b 933 354 907 352 918 354 b 960 349 947 354 956 353 b 965 331 963 346 965 340 l 965 65 b 957 10 965 36 963 17 b 915 0 951 3 938 0 l 136 0 b 117 -1 131 0 125 0 b 100 -1 109 -1 104 -1 b 49 36 66 -1 49 11 b 56 88 49 58 51 75 b 86 130 60 100 70 114 b 114 160 102 146 111 156 l 717 924 b 740 957 732 944 740 955 b 689 965 740 963 723 965 l 410 965 b 239 928 329 965 272 953 b 178 793 206 903 185 858 b 177 785 178 791 178 788 b 176 776 177 781 176 778 b 177 767 176 775 177 772 b 178 758 178 763 178 760 b 144 715 178 730 167 715 b 110 724 128 715 116 718 b 101 753 104 730 101 740 b 103 775 101 756 102 764 b 104 801 104 786 104 795 "},"[":{"ha":451,"x_min":0,"x_max":0,"o":"m 382 1083 b 406 1078 395 1083 403 1081 b 410 1046 408 1074 410 1063 b 405 1013 410 1027 408 1016 b 375 1007 402 1009 392 1007 l 251 1007 b 209 997 230 1007 216 1003 b 199 963 202 990 199 978 b 200 936 199 958 199 949 b 201 904 201 923 201 913 l 201 -29 b 200 -60 201 -37 201 -47 b 199 -89 199 -74 199 -83 b 208 -122 199 -104 202 -115 b 247 -132 215 -128 228 -132 l 375 -132 b 404 -140 391 -132 400 -134 b 410 -179 408 -145 410 -158 b 374 -211 410 -200 398 -211 b 351 -210 369 -211 361 -211 b 326 -208 340 -209 332 -208 l 139 -208 b 86 -194 113 -208 95 -203 b 72 -149 77 -184 72 -169 b 74 -111 72 -142 73 -130 b 76 -67 76 -93 76 -78 l 76 1007 b 94 1070 77 1038 83 1059 b 144 1086 106 1081 122 1086 b 172 1085 150 1086 159 1086 b 201 1083 184 1084 194 1083 "},"\\":{"ha":722,"x_min":0,"x_max":0,"o":"m 626 -108 b 640 -137 629 -117 634 -126 b 654 -165 646 -149 650 -158 b 660 -185 658 -173 660 -179 b 599 -208 660 -200 639 -208 b 564 -193 584 -208 572 -203 b 540 -142 556 -183 548 -166 b 529 -104 533 -118 529 -105 l 75 1033 b 60 1071 65 1057 60 1070 b 90 1083 60 1079 70 1083 b 136 1074 109 1083 124 1080 b 159 1056 148 1067 156 1061 b 173 1019 162 1050 167 1038 b 185 983 179 1001 183 989 "},"]":{"ha":451,"x_min":0,"x_max":0,"o":"m 69 -208 b 46 -203 56 -208 49 -206 b 42 -171 43 -199 42 -188 b 47 -137 42 -152 43 -141 b 76 -132 50 -134 60 -132 l 200 -132 b 242 -122 220 -132 234 -128 b 253 -87 249 -115 253 -103 b 251 -61 253 -83 252 -74 b 250 -29 250 -48 250 -37 l 250 904 b 251 936 250 913 250 923 b 253 964 252 949 253 958 b 243 997 253 979 250 990 b 204 1007 237 1003 224 1007 l 76 1007 b 47 1015 61 1007 51 1009 b 42 1054 44 1020 42 1033 b 78 1086 42 1075 54 1086 b 101 1085 82 1086 90 1086 b 125 1083 111 1084 119 1083 l 313 1083 b 365 1069 338 1083 356 1078 b 379 1024 375 1059 379 1044 b 377 986 379 1017 378 1005 b 375 942 376 968 375 953 l 375 -132 b 357 -195 374 -163 368 -184 b 307 -211 346 -206 329 -211 b 280 -210 301 -211 292 -211 b 250 -208 267 -209 257 -208 "},"^":{"ha":757,"x_min":0,"x_max":0,"o":"m 681 810 b 667 793 681 804 676 799 b 642 785 657 788 649 785 b 622 790 634 785 628 787 b 598 810 616 794 608 800 b 578 828 588 819 581 825 l 425 954 b 379 983 403 974 388 983 b 336 958 371 983 356 975 l 164 815 b 117 785 141 795 125 785 b 92 792 111 785 103 787 b 75 808 81 797 75 803 b 79 817 75 811 76 814 b 92 829 82 821 86 825 b 103 839 97 834 101 837 l 297 1033 l 306 1042 l 315 1051 b 322 1057 316 1052 318 1054 b 331 1063 325 1060 328 1062 b 342 1066 333 1063 337 1065 b 356 1069 346 1067 351 1068 b 375 1069 361 1069 368 1069 b 405 1068 387 1069 397 1069 b 428 1060 413 1067 420 1065 b 442 1051 435 1056 440 1053 b 458 1036 445 1050 450 1044 b 472 1021 466 1028 470 1023 l 642 851 b 658 838 644 849 650 844 b 675 822 666 832 671 827 b 681 810 679 818 681 813 "},"_":{"ha":778,"x_min":0,"x_max":0,"o":"m 29 -90 b -2 -85 12 -90 1 -88 b -7 -49 -5 -81 -7 -69 b -1 -20 -7 -34 -5 -24 b 19 -14 2 -16 9 -14 l 749 -14 b 768 -15 757 -14 763 -14 b 780 -22 773 -16 777 -19 b 785 -40 783 -26 785 -32 l 785 -60 b 776 -85 785 -74 782 -82 b 744 -90 770 -89 759 -90 "},"`":{"ha":549,"x_min":0,"x_max":0,"o":"m 250 1000 b 216 1015 237 1001 226 1006 b 201 1049 206 1025 201 1036 b 214 1081 201 1061 206 1072 b 249 1096 222 1091 234 1096 b 264 1094 255 1096 260 1095 l 561 1022 b 576 1020 563 1022 568 1022 b 591 1015 584 1019 589 1017 b 594 1006 593 1013 594 1010 b 589 989 594 996 593 991 b 567 988 585 987 578 987 l 250 1000 "},"a":{"ha":765,"x_min":0,"x_max":0,"o":"m 401 363 b 234 319 324 363 268 348 b 183 192 200 291 183 248 b 222 95 183 148 196 116 b 319 64 248 74 281 64 b 440 118 368 64 408 82 b 488 265 472 154 488 203 l 488 292 b 488 313 488 297 488 304 b 489 331 489 322 489 328 b 481 356 489 343 486 351 b 447 363 476 360 465 363 m 725 107 b 748 97 733 107 741 103 b 758 78 755 90 758 83 b 728 32 758 68 748 52 b 615 -14 697 1 660 -14 b 506 36 564 -14 528 3 b 494 62 500 44 496 53 b 490 82 491 71 490 77 b 486 89 489 87 488 89 b 461 68 483 89 475 82 b 257 -14 405 13 337 -14 b 102 35 194 -14 142 3 b 42 171 62 68 42 113 b 136 345 42 240 73 298 b 401 415 199 392 288 415 l 456 415 b 489 442 478 415 489 424 b 488 458 489 444 489 450 b 488 478 488 467 488 473 l 488 510 b 453 630 488 562 476 602 b 331 672 430 658 389 672 b 240 656 294 672 264 667 b 203 618 215 646 203 633 b 222 593 203 613 209 604 b 242 546 235 582 242 566 b 222 492 242 523 235 505 b 165 472 208 479 189 472 b 107 494 142 472 123 480 b 83 560 91 509 83 531 b 163 687 83 612 110 654 b 351 736 215 720 278 736 b 553 672 447 736 514 715 b 613 510 593 630 613 575 l 613 99 b 649 58 613 72 625 58 b 694 78 666 58 681 65 b 705 90 698 81 702 85 b 715 103 708 96 711 100 b 725 107 718 106 721 107 "},"b":{"ha":872,"x_min":0,"x_max":0,"o":"m 271 361 b 328 148 271 279 290 208 b 476 58 366 88 415 58 b 616 149 533 58 579 88 b 671 361 653 209 671 280 b 616 574 671 443 653 513 b 476 664 579 634 533 664 b 328 574 415 664 366 634 b 271 361 290 515 271 444 m 85 1007 b 66 1006 80 1007 74 1007 b 50 1006 58 1006 53 1006 b 28 1013 40 1006 32 1008 b 21 1043 23 1018 21 1028 b 28 1076 21 1060 23 1071 b 51 1085 32 1082 40 1085 b 68 1084 54 1085 60 1084 b 89 1083 76 1084 83 1083 l 239 1083 b 265 1076 252 1083 260 1081 b 271 1039 269 1071 271 1058 l 271 685 b 281 603 271 630 274 603 b 291 612 283 603 287 606 b 307 636 295 618 300 626 b 326 661 313 646 320 655 b 501 735 373 710 431 735 b 720 633 588 735 660 701 b 810 361 780 566 810 475 b 720 88 810 247 780 156 b 501 -14 660 20 588 -14 b 369 19 451 -14 407 -3 b 288 114 330 41 303 72 b 278 129 283 124 280 129 b 271 85 273 129 271 114 l 271 51 b 265 8 271 27 269 13 b 228 0 260 3 248 0 l 56 0 b 27 4 41 0 31 1 b 21 24 23 7 21 13 l 21 47 b 67 76 21 67 36 76 l 93 76 b 138 85 117 76 132 79 b 147 131 144 90 147 106 b 147 165 147 136 147 147 b 146 210 146 182 146 197 l 146 951 b 139 999 146 977 144 993 b 99 1007 134 1004 121 1007 l 85 1007 "},"c":{"ha":761,"x_min":0,"x_max":0,"o":"m 681 529 b 653 460 681 499 672 476 b 592 438 635 445 615 438 b 537 460 571 438 553 445 b 513 518 521 475 513 494 b 535 569 513 537 520 554 b 557 607 550 585 557 598 b 518 653 557 625 544 641 b 422 671 492 665 460 671 b 260 583 352 671 298 641 b 203 375 222 524 203 455 b 252 144 203 281 219 203 b 408 54 285 84 337 54 b 615 200 504 54 573 103 b 622 215 617 204 619 209 b 626 226 624 221 625 225 b 633 233 627 228 629 231 b 645 239 636 236 640 238 b 665 240 650 240 657 240 b 699 225 688 240 699 235 b 693 203 699 219 697 211 b 581 42 663 133 626 80 b 406 -14 536 5 478 -14 b 149 88 293 -14 207 20 b 63 347 91 156 63 243 b 154 628 63 462 93 556 b 408 736 215 700 300 736 b 606 676 491 736 557 716 b 681 529 656 637 681 588 "},"d":{"ha":872,"x_min":0,"x_max":0,"o":"m 601 361 b 544 574 601 444 582 515 b 396 664 506 634 457 664 b 256 574 339 664 293 634 b 201 361 220 513 201 443 b 256 149 201 280 220 209 b 396 58 293 88 339 58 b 544 148 457 58 506 88 b 601 361 582 208 601 279 m 851 26 b 800 0 851 9 834 0 l 650 0 b 609 6 628 0 614 2 b 601 35 604 9 601 19 l 601 93 b 597 135 601 121 600 135 b 592 129 596 135 595 133 b 583 113 590 125 587 120 b 572 93 580 105 576 99 b 371 -14 523 22 456 -14 b 152 88 285 -14 212 20 b 63 361 92 156 63 247 b 152 633 63 475 92 566 b 371 735 212 701 285 735 b 525 681 430 735 481 717 b 557 647 536 671 547 660 b 581 614 567 633 575 622 b 593 601 586 606 590 601 b 601 704 599 601 601 636 l 601 942 b 602 960 601 946 602 953 b 603 976 603 968 603 974 b 594 1000 603 988 600 995 b 561 1007 589 1005 578 1007 b 537 1006 555 1007 547 1007 b 518 1006 527 1006 521 1006 b 485 1017 501 1006 490 1009 b 476 1067 479 1024 476 1041 b 500 1085 476 1079 484 1085 b 515 1084 504 1085 509 1084 b 531 1083 522 1084 527 1083 l 675 1083 b 718 1076 697 1083 712 1081 b 728 1046 725 1071 728 1061 b 727 1029 728 1043 728 1038 b 726 1008 727 1021 726 1014 l 726 143 l 726 121 b 728 105 726 116 727 111 b 729 92 729 99 729 95 b 734 85 729 90 731 88 b 741 80 737 82 740 80 b 752 78 742 79 746 79 b 766 76 758 77 763 76 l 786 76 l 811 76 l 818 76 b 837 74 826 76 833 76 b 847 60 841 73 844 68 b 851 26 850 53 851 41 "},"e":{"ha":758,"x_min":0,"x_max":0,"o":"m 556 475 b 396 675 536 608 483 675 b 276 628 346 675 306 659 b 215 503 246 596 225 555 b 206 442 209 467 206 446 b 215 426 206 433 209 428 b 251 422 221 423 233 422 l 522 422 b 560 442 547 422 560 429 b 558 458 560 444 559 450 b 556 475 556 466 556 471 m 256 363 b 213 358 233 363 219 361 b 204 335 207 354 204 347 b 206 306 204 324 205 314 b 403 54 220 138 286 54 b 610 193 496 54 565 100 b 617 211 612 197 614 203 b 624 228 619 219 622 225 b 635 236 625 231 629 233 b 660 240 641 239 650 240 b 696 226 684 240 696 236 b 685 192 696 224 692 212 b 386 -14 635 55 535 -14 b 149 90 285 -14 206 21 b 63 347 91 160 63 245 b 148 628 63 463 91 557 b 396 736 205 700 288 736 b 611 652 492 736 564 708 b 694 431 658 596 686 522 b 696 404 695 424 696 415 b 685 370 696 387 692 375 b 646 363 678 365 665 363 "},"f":{"ha":557,"x_min":0,"x_max":0,"o":"m 293 129 b 300 85 293 105 295 90 b 332 76 305 79 315 76 l 421 76 b 453 71 438 76 449 75 b 460 44 458 67 460 58 l 460 32 b 454 6 460 19 458 10 b 435 -1 450 1 444 -1 b 421 -1 432 -1 427 -1 b 404 0 414 0 409 0 l 101 0 b 83 -1 97 0 91 0 b 68 -1 76 -1 71 -1 b 43 24 51 -1 43 7 l 43 31 b 50 70 43 53 45 66 b 93 76 55 74 69 76 l 118 76 b 160 86 140 76 154 80 b 168 140 165 93 168 111 l 168 582 b 169 602 168 588 168 594 b 169 618 169 610 169 615 b 163 640 169 628 167 635 b 135 646 158 644 149 646 l 76 646 b 49 651 63 646 53 648 b 42 671 44 655 42 662 b 42 685 42 674 42 678 b 43 701 43 691 43 697 b 49 720 43 711 45 717 b 67 725 52 723 58 725 b 89 724 70 725 78 725 b 118 722 100 723 110 722 b 160 731 139 722 153 725 b 171 760 167 737 171 747 b 168 794 171 766 170 778 b 239 1016 168 888 192 962 b 442 1097 286 1070 354 1097 b 609 1051 509 1097 565 1082 b 675 943 653 1020 675 984 b 653 875 675 913 668 891 b 593 851 638 859 618 851 b 535 870 569 851 550 858 b 513 918 520 883 513 899 b 527 963 513 933 517 948 b 542 997 537 977 542 989 b 518 1024 542 1007 534 1016 b 444 1035 502 1031 478 1035 b 328 967 391 1035 352 1012 b 293 764 305 922 293 855 l 293 757 b 299 727 293 740 295 730 b 332 722 302 724 313 722 l 447 722 b 481 713 465 722 476 719 b 488 665 485 706 488 690 b 468 644 488 651 481 644 b 457 645 466 644 463 645 b 443 646 451 646 447 646 l 360 646 b 339 647 354 646 347 646 b 322 647 331 647 325 647 b 293 613 303 647 293 636 "},"g":{"ha":829,"x_min":0,"x_max":0,"o":"m 624 -149 b 588 -51 624 -110 612 -77 b 486 -12 563 -25 530 -12 l 328 -12 b 249 -11 292 -12 265 -12 l 240 -11 b 182 -56 213 -11 194 -26 b 167 -142 172 -79 167 -107 b 221 -255 167 -190 185 -228 b 383 -296 257 -282 311 -296 b 551 -258 447 -296 503 -283 b 624 -149 600 -232 624 -196 m 282 226 b 211 199 260 226 236 217 b 174 147 186 180 174 163 b 183 118 174 135 177 125 b 214 102 189 111 199 105 b 253 97 229 99 242 97 b 308 96 265 96 283 96 b 384 97 319 96 345 96 b 463 97 423 97 450 97 b 560 90 500 97 533 95 b 640 63 587 86 613 77 b 701 -1 667 50 688 28 b 722 -114 715 -31 722 -69 b 625 -295 722 -191 690 -251 b 361 -361 560 -339 472 -361 b 122 -317 259 -361 179 -347 b 35 -187 64 -288 35 -245 b 114 -31 35 -125 61 -73 b 127 -20 119 -27 123 -23 b 138 -12 131 -17 135 -14 b 145 -8 140 -11 143 -9 b 150 -4 147 -6 149 -5 b 151 -1 151 -3 151 -2 b 147 3 151 0 150 1 b 133 13 144 5 140 8 b 114 28 127 17 120 22 b 79 117 91 48 79 78 b 181 242 79 170 113 212 b 197 256 192 246 197 251 b 190 264 197 258 195 261 b 172 274 186 267 179 270 b 153 286 164 278 157 282 b 69 479 97 334 69 399 b 145 665 69 556 95 618 b 346 736 196 713 263 736 b 518 688 412 736 469 720 b 551 671 535 676 546 671 b 560 674 554 671 557 672 b 573 685 563 675 567 679 b 590 700 579 690 585 695 b 685 736 623 724 654 736 b 792 701 732 736 768 725 b 829 610 817 678 829 648 b 808 554 829 587 822 568 b 756 533 794 540 777 533 b 708 551 736 533 720 539 b 689 594 695 562 689 577 b 702 638 689 611 693 625 b 715 664 711 650 715 658 b 689 685 715 678 706 685 b 627 665 670 685 650 678 b 593 619 604 652 593 637 b 606 578 593 613 597 599 b 622 479 617 549 622 516 b 547 293 622 402 597 340 b 346 222 496 246 429 222 b 313 224 338 222 328 223 b 282 226 299 226 288 226 m 201 479 b 235 335 201 421 213 373 b 346 278 258 297 295 278 b 456 335 397 278 434 297 b 490 479 479 373 490 421 b 456 624 490 538 479 586 b 346 681 434 662 397 681 b 235 624 295 681 258 662 b 201 479 213 586 201 538 "},"h":{"ha":917,"x_min":0,"x_max":0,"o":"m 83 1007 b 65 1006 79 1007 72 1007 b 49 1006 57 1006 51 1006 b 27 1013 38 1006 31 1008 b 21 1042 23 1017 21 1027 b 28 1076 21 1059 23 1071 b 53 1085 32 1082 41 1085 b 72 1084 56 1085 63 1084 b 94 1083 81 1084 89 1083 l 233 1083 b 265 1078 249 1083 259 1081 b 272 1057 270 1074 272 1067 b 272 1042 272 1054 272 1049 b 271 1025 271 1035 271 1030 l 271 703 b 269 648 271 686 270 668 b 268 614 269 628 268 617 b 272 600 268 605 269 600 b 311 642 275 600 288 614 b 525 736 363 705 434 736 b 701 683 610 736 669 718 b 750 513 734 647 750 590 l 750 119 b 758 83 750 99 753 87 b 803 76 763 78 778 76 b 825 77 808 76 816 77 b 843 78 834 78 840 78 b 867 69 854 78 862 75 b 875 36 872 64 875 53 l 875 18 b 871 3 875 11 874 6 b 850 0 868 1 861 0 l 539 0 b 508 5 522 0 512 2 b 501 26 503 8 501 15 l 501 47 b 506 72 501 60 503 69 b 524 78 509 76 515 78 b 535 77 525 78 529 78 b 550 76 541 77 546 76 l 603 76 b 628 106 619 76 628 86 b 626 125 628 109 627 116 b 625 144 625 134 625 141 l 625 497 b 493 657 625 604 581 657 b 332 581 426 657 373 631 b 271 393 291 530 271 467 l 271 131 b 278 85 271 106 273 91 b 311 76 282 79 294 76 l 361 76 b 390 69 376 76 385 74 b 396 31 394 64 396 51 b 390 5 396 18 394 9 b 371 -1 387 1 380 -1 b 356 -1 368 -1 363 -1 b 339 0 349 0 344 0 l 64 0 b 27 6 44 0 31 2 b 21 40 23 9 21 21 l 21 47 b 24 72 21 61 22 69 b 47 76 27 75 34 76 l 103 76 b 138 82 121 76 133 78 b 146 107 143 86 146 94 l 146 944 b 138 999 146 976 143 994 b 83 1007 133 1004 115 1007 "},"i":{"ha":431,"x_min":0,"x_max":0,"o":"m 74 646 b 40 652 55 646 44 648 b 35 689 37 656 35 669 b 40 717 35 704 36 713 b 60 722 43 720 50 722 l 239 722 b 277 715 258 722 271 720 b 286 688 283 709 286 700 b 285 671 286 685 286 679 b 285 650 285 663 285 656 l 285 172 b 283 133 285 161 284 148 b 282 106 282 119 282 109 b 291 81 282 92 285 83 b 336 76 297 78 312 76 b 358 77 342 76 349 77 b 378 78 368 78 374 78 b 403 69 390 78 398 75 b 410 33 407 64 410 52 b 402 6 410 19 407 10 b 376 0 397 2 388 0 l 97 0 b 78 -1 93 0 86 0 b 63 -1 71 -1 65 -1 b 41 6 52 -1 45 1 b 35 33 37 10 35 19 b 40 69 35 53 37 65 b 68 76 44 74 53 76 l 122 76 b 154 85 140 76 150 79 b 160 125 158 91 160 105 l 160 575 b 161 594 160 579 160 585 b 163 615 162 604 163 611 b 139 646 163 636 155 646 m 132 972 b 156 1031 132 995 140 1015 b 215 1056 172 1047 192 1056 b 274 1031 238 1056 258 1047 b 299 972 291 1015 299 995 b 274 913 299 949 291 929 b 215 889 258 897 238 889 b 156 913 192 889 172 897 b 132 972 140 929 132 949 "},"j":{"ha":364,"x_min":0,"x_max":0,"o":"m 56 646 b 33 665 41 646 33 652 b 34 676 33 667 34 671 b 35 690 34 682 35 687 b 39 717 35 704 36 713 b 57 722 42 720 48 722 l 233 722 b 276 715 256 722 270 720 b 285 689 282 711 285 702 l 285 15 b 281 -105 285 -31 283 -71 b 262 -206 278 -139 272 -172 b 224 -289 252 -240 239 -268 b 158 -341 208 -310 186 -328 b 60 -361 131 -354 98 -361 b -83 -312 0 -361 -47 -345 b -136 -194 -118 -279 -136 -240 b -113 -125 -136 -168 -128 -144 b -54 -96 -98 -106 -78 -96 b 4 -117 -30 -96 -11 -103 b 26 -174 19 -132 26 -150 b 13 -219 26 -191 22 -206 b 0 -249 4 -231 0 -241 b 60 -300 0 -283 20 -300 b 169 -87 133 -300 169 -229 b 165 34 169 -60 168 -19 b 160 144 161 87 160 124 l 160 596 b 160 611 160 600 160 605 b 161 624 161 618 161 622 b 156 641 161 632 159 638 b 131 646 152 644 144 646 m 128 972 b 152 1031 128 995 136 1015 b 211 1056 168 1047 188 1056 b 270 1031 234 1056 254 1047 b 294 972 286 1015 294 995 b 270 913 294 949 286 929 b 211 889 254 897 234 889 b 152 913 188 889 168 897 b 128 972 136 929 128 949 "},"k":{"ha":829,"x_min":0,"x_max":0,"o":"m 60 1007 b 27 1012 42 1007 31 1009 b 21 1036 23 1015 21 1023 l 21 1054 b 50 1086 21 1075 31 1086 b 68 1085 54 1086 60 1086 b 89 1083 76 1084 83 1083 l 214 1083 b 262 1074 239 1083 255 1080 b 272 1042 269 1068 272 1057 b 272 1019 272 1038 272 1031 b 271 992 271 1008 271 999 l 271 521 l 271 481 b 273 454 271 472 272 463 b 278 435 274 445 276 439 b 289 431 281 432 284 431 b 333 457 295 431 310 439 l 518 607 b 527 614 521 609 524 611 b 535 621 530 617 533 619 l 542 626 b 548 632 545 628 547 630 b 550 636 549 634 550 635 b 504 646 550 643 535 646 l 447 646 b 421 667 430 646 421 653 b 422 681 421 669 421 674 b 422 696 422 687 422 692 b 447 724 422 714 431 724 b 463 723 450 724 455 723 b 481 722 470 722 476 722 l 743 722 b 761 723 748 722 754 722 b 776 724 769 723 774 724 b 801 696 793 724 801 714 b 794 655 801 675 799 661 b 765 646 790 649 780 646 l 731 646 b 710 645 723 646 716 646 b 693 644 703 645 698 644 b 678 640 688 643 684 642 b 667 636 673 638 670 637 b 657 630 665 635 662 633 b 648 624 652 627 649 625 b 638 615 647 623 643 620 b 626 606 632 609 628 606 b 515 515 601 586 564 556 b 404 425 465 475 428 444 b 544 279 436 393 482 344 b 682 133 605 214 651 166 b 697 116 686 130 691 124 b 713 99 704 108 709 103 b 728 88 716 96 721 92 b 750 79 734 84 742 81 b 781 76 758 77 769 76 l 797 76 b 817 72 807 76 814 75 b 821 46 819 68 821 60 b 822 32 821 42 821 38 b 822 21 822 26 822 23 b 793 0 822 7 813 0 l 551 0 b 533 -1 547 0 541 0 b 518 -1 526 -1 521 -1 b 498 6 509 -1 502 1 b 492 33 494 10 492 19 l 492 50 b 497 72 492 61 494 68 b 526 76 501 75 511 76 b 569 82 555 76 569 78 b 547 108 569 83 562 92 l 361 300 b 338 326 358 303 351 312 b 303 364 326 341 314 354 b 279 379 293 374 285 379 b 271 363 274 379 271 374 l 271 118 b 279 83 271 100 274 88 b 326 76 285 79 300 76 b 343 77 330 76 336 77 b 358 78 350 78 356 78 b 382 54 374 78 382 70 b 375 8 382 28 380 13 b 336 0 370 3 357 0 l 85 0 b 65 -1 80 0 74 0 b 49 -1 57 -1 51 -1 b 21 29 30 -1 21 9 b 27 69 21 50 23 64 b 57 76 31 74 41 76 l 81 76 b 99 76 85 76 91 76 b 115 75 107 75 113 75 b 139 83 126 75 134 78 b 146 117 144 89 146 100 l 146 971 b 139 1001 146 988 144 998 b 101 1007 134 1005 122 1007 "},"l":{"ha":417,"x_min":0,"x_max":0,"o":"m 67 1007 b 28 1013 46 1007 34 1009 b 21 1042 23 1017 21 1027 l 21 1064 b 51 1085 21 1078 31 1085 b 71 1084 56 1085 63 1084 b 89 1083 79 1084 85 1083 l 240 1083 b 265 1076 253 1083 262 1081 b 271 1039 269 1071 271 1058 l 271 169 b 270 141 271 162 271 153 b 269 118 270 129 269 122 b 280 85 269 102 273 91 b 325 76 287 79 302 76 l 379 76 b 392 72 386 76 390 75 b 396 53 395 69 396 63 l 396 22 b 394 3 396 12 395 6 b 381 0 392 1 388 0 l 67 0 b 28 6 45 0 32 2 b 21 35 23 9 21 19 l 21 53 b 56 79 21 70 32 79 b 78 78 60 79 68 79 b 100 76 88 77 95 76 b 147 163 131 76 147 105 b 147 192 147 169 147 179 b 146 222 146 206 146 216 l 146 976 b 140 1002 146 990 144 999 b 106 1007 135 1005 124 1007 "},"m":{"ha":1282,"x_min":0,"x_max":0,"o":"m 78 646 b 49 652 63 646 53 648 b 42 674 44 656 42 663 l 42 701 b 69 724 42 716 51 724 b 87 723 73 724 79 723 b 106 722 95 722 101 722 l 253 722 b 272 716 262 722 269 720 b 278 688 276 712 278 702 b 283 607 278 634 280 607 b 292 615 285 607 288 610 b 310 640 297 621 302 629 b 333 668 317 650 325 660 b 506 736 379 713 436 736 b 606 716 549 736 583 729 b 664 653 630 703 649 681 b 697 611 678 625 689 611 b 710 619 701 611 705 614 b 729 642 714 624 721 631 b 756 669 738 652 746 661 b 931 736 803 714 861 736 b 1083 682 1003 736 1054 718 b 1128 513 1113 646 1128 589 l 1128 188 b 1126 155 1128 180 1127 169 b 1124 124 1124 141 1124 130 b 1164 76 1124 92 1137 76 l 1214 76 b 1237 73 1227 76 1234 75 b 1240 49 1239 71 1240 63 b 1234 8 1240 26 1238 13 b 1204 0 1230 3 1220 0 l 906 0 b 878 5 892 0 883 2 b 872 24 874 8 872 14 b 873 36 872 25 872 30 b 874 51 873 43 874 48 b 901 78 874 69 883 78 b 919 77 905 78 911 78 b 939 76 928 77 934 76 b 992 85 968 76 985 79 b 1003 122 999 90 1003 103 l 1003 497 b 979 617 1003 551 995 591 b 899 657 963 644 937 657 b 703 393 768 657 703 569 l 703 229 b 701 154 703 206 702 181 b 699 108 699 127 699 112 b 706 83 699 95 701 87 b 736 76 710 78 720 76 l 792 76 b 811 73 802 76 808 75 b 815 58 814 71 815 66 l 815 43 b 808 7 815 25 813 13 b 783 -1 804 1 795 -1 b 767 -1 781 -1 775 -1 b 747 0 758 0 752 0 l 519 0 b 504 -1 516 0 511 0 b 490 -1 498 -1 493 -1 b 467 26 475 -1 467 8 l 467 33 b 473 71 467 55 469 67 b 514 76 477 75 491 76 l 547 76 b 573 81 560 76 569 78 b 579 100 577 84 579 91 b 578 112 579 102 579 106 b 578 126 578 118 578 123 l 578 497 b 554 617 578 551 570 591 b 474 657 538 644 512 657 b 327 583 409 657 360 632 b 278 393 294 533 278 470 l 278 107 b 282 81 278 93 279 84 b 299 76 285 78 290 76 l 322 76 b 347 78 328 76 336 77 b 371 79 358 79 366 79 b 407 46 395 79 407 68 l 407 28 b 401 4 407 15 405 7 b 369 0 398 1 387 0 l 111 0 b 90 -1 106 0 98 0 b 71 -1 81 -1 75 -1 b 49 5 61 -1 53 1 b 42 32 44 9 42 18 l 42 39 b 47 72 42 57 44 68 b 83 76 51 75 63 76 b 141 88 113 76 132 80 b 154 129 150 95 154 109 b 153 156 154 134 154 143 b 153 188 153 169 153 179 l 153 607 b 144 639 153 623 150 633 b 119 647 139 644 131 647 b 100 647 116 647 109 647 b 78 646 91 646 83 646 "},"n":{"ha":938,"x_min":0,"x_max":0,"o":"m 86 646 b 49 652 67 646 54 648 b 42 678 44 656 42 665 l 42 707 b 68 724 42 718 50 724 b 86 723 72 724 78 723 b 103 722 94 722 100 722 l 264 722 b 286 715 275 722 282 720 b 292 685 290 711 292 700 l 292 646 b 297 592 292 610 294 592 b 304 599 299 592 301 594 b 317 621 307 604 311 612 b 333 644 322 630 328 638 b 546 736 385 706 456 736 b 722 683 631 736 690 718 b 771 513 755 647 771 590 l 771 149 b 770 126 771 143 771 136 b 769 107 770 117 769 111 b 776 83 769 96 772 88 b 803 76 780 79 789 76 l 863 76 b 891 69 878 76 888 74 b 896 32 894 65 896 52 b 888 5 896 18 893 9 b 864 -1 883 1 875 -1 b 844 -1 860 -1 854 -1 b 822 0 835 0 828 0 l 553 0 b 526 6 540 0 531 2 b 519 25 522 9 519 16 b 520 38 519 28 520 32 b 521 54 521 44 521 50 b 549 78 521 70 530 78 b 565 77 552 78 558 78 b 583 76 573 77 579 76 l 606 76 b 640 82 624 76 635 78 b 646 107 644 86 646 94 l 646 497 b 514 657 646 604 602 657 b 324 535 428 657 364 616 b 292 338 302 492 292 426 l 292 132 b 299 85 292 106 294 90 b 339 76 303 79 317 76 l 376 76 b 410 68 394 76 405 74 b 417 24 414 63 417 48 b 368 -3 417 6 400 -3 b 335 -1 360 -3 349 -2 b 306 0 321 0 311 0 l 103 0 b 83 -1 97 0 91 0 b 69 -1 76 -1 71 -1 b 48 6 59 -1 52 1 b 42 35 44 10 42 20 b 47 69 42 53 44 65 b 71 76 51 74 59 76 l 100 76 b 157 85 131 76 150 79 b 167 132 163 90 167 106 l 167 590 b 159 637 167 614 164 630 b 128 647 154 644 144 647 b 109 647 125 647 119 647 b 86 646 99 646 92 646 "},"o":{"ha":789,"x_min":0,"x_max":0,"o":"m 208 375 b 394 49 208 157 270 49 b 581 347 519 49 581 148 b 394 674 581 565 519 674 b 208 375 270 674 208 574 m 63 347 b 148 628 63 463 91 557 b 394 736 205 700 287 736 b 640 633 501 736 583 702 b 726 375 698 565 726 479 b 641 94 726 259 698 166 b 394 -14 584 22 502 -14 b 149 89 288 -14 206 20 b 63 347 91 157 63 244 "},"p":{"ha":872,"x_min":0,"x_max":0,"o":"m 271 361 b 328 148 271 279 290 208 b 476 58 366 88 415 58 b 616 149 533 58 579 88 b 671 361 653 209 671 280 b 616 574 671 443 653 513 b 476 664 579 634 533 664 b 328 574 415 664 366 634 b 271 361 290 515 271 444 m 21 686 b 31 716 21 701 24 711 b 61 724 37 721 47 724 b 80 723 65 724 71 723 b 101 722 89 722 96 722 l 232 722 b 265 715 249 722 259 720 b 272 693 270 711 272 703 b 272 676 272 690 272 685 b 271 656 271 668 271 661 b 276 592 271 613 273 592 b 283 599 278 592 281 594 b 296 621 286 604 290 612 b 313 646 301 630 307 638 b 501 736 360 706 423 736 b 720 634 588 736 660 702 b 810 361 780 566 810 475 b 720 89 810 247 780 156 b 501 -12 660 21 588 -12 b 326 61 431 -12 373 12 b 306 90 320 69 313 78 b 288 119 298 101 292 111 b 278 131 283 127 280 131 b 271 69 273 131 271 110 l 271 -226 b 281 -263 271 -246 274 -258 b 332 -271 287 -268 304 -271 b 351 -270 337 -271 343 -271 b 367 -269 359 -270 364 -269 b 390 -277 378 -269 385 -272 b 396 -311 394 -282 396 -294 l 396 -329 b 392 -343 396 -336 394 -340 b 374 -347 389 -346 383 -347 l 79 -347 b 62 -348 75 -347 70 -347 b 46 -349 54 -348 49 -349 b 21 -325 29 -349 21 -341 b 28 -280 21 -301 23 -286 b 60 -271 32 -274 43 -271 l 96 -271 b 138 -265 118 -271 132 -269 b 146 -235 143 -260 146 -250 l 146 600 b 141 638 146 620 144 633 b 115 646 138 643 129 646 l 82 646 b 31 652 54 646 37 648 b 21 676 24 656 21 664 l 21 686 "},"q":{"ha":872,"x_min":0,"x_max":0,"o":"m 601 361 b 544 574 601 444 582 515 b 396 664 506 634 457 664 b 256 574 339 664 293 634 b 201 361 220 513 201 443 b 256 149 201 280 220 209 b 396 58 293 88 339 58 b 544 148 457 58 506 88 b 601 361 582 208 601 279 m 828 -271 b 847 -274 838 -271 844 -272 b 851 -287 850 -277 851 -281 l 851 -318 b 846 -342 851 -331 850 -339 b 814 -347 842 -346 831 -347 l 547 -347 b 525 -349 542 -347 534 -348 b 506 -350 516 -350 509 -350 b 476 -319 486 -350 476 -340 l 476 -294 b 480 -275 476 -284 478 -278 b 493 -271 482 -272 487 -271 l 572 -271 b 604 -233 594 -271 604 -258 b 603 -209 604 -229 604 -221 b 601 -183 602 -197 601 -189 l 601 35 b 593 111 601 86 599 111 b 585 106 591 111 588 109 b 568 87 581 102 575 96 b 547 63 561 78 554 70 b 371 -12 502 13 443 -12 b 152 89 285 -12 212 21 b 63 361 92 156 63 247 b 152 634 63 475 92 566 b 371 736 212 702 285 736 b 547 660 442 736 501 711 b 569 631 555 652 562 643 l 585 603 b 594 593 590 597 593 593 b 601 661 599 593 601 616 b 608 713 601 689 604 706 b 644 722 613 719 625 722 l 781 722 b 803 724 786 722 794 723 b 822 725 812 725 819 725 b 851 694 842 725 851 715 l 851 674 b 845 651 851 662 849 654 b 814 646 841 647 831 646 l 756 646 b 731 642 743 646 734 644 b 726 625 728 639 726 633 l 726 -178 b 725 -207 726 -185 726 -195 b 724 -232 724 -219 724 -227 b 733 -261 724 -245 727 -255 b 767 -271 739 -268 750 -271 "},"r":{"ha":629,"x_min":0,"x_max":0,"o":"m 64 0 b 39 5 50 0 42 2 b 35 35 36 8 35 18 l 35 54 b 40 72 35 63 37 69 b 65 76 44 75 52 76 l 138 76 b 161 100 153 76 161 84 b 160 115 161 103 161 108 b 160 132 160 123 160 128 l 160 617 b 153 641 160 630 158 638 b 121 646 149 644 138 646 l 68 646 b 39 650 51 646 42 647 b 35 679 36 653 35 663 l 35 704 b 67 725 35 718 45 725 b 89 724 71 725 79 725 b 110 722 99 723 106 722 l 238 722 b 278 714 260 722 273 719 b 285 663 282 708 285 691 b 290 610 285 627 287 610 b 299 621 292 610 295 613 b 314 649 302 628 307 638 b 332 675 320 660 326 669 b 479 736 368 716 417 736 b 585 700 520 736 555 724 b 629 606 614 676 629 644 b 604 531 629 576 621 551 b 543 500 588 510 567 500 b 483 519 519 500 499 506 b 458 571 466 532 458 550 b 474 622 458 590 464 607 b 490 647 485 636 490 644 b 449 668 490 661 476 668 b 353 615 413 668 381 650 b 294 482 325 580 306 536 b 285 347 288 450 285 405 l 285 115 b 292 82 285 97 287 86 b 332 76 296 78 310 76 l 371 76 b 405 72 390 76 402 75 b 410 38 408 68 410 57 b 404 7 410 22 408 12 b 382 0 400 2 393 0 "},"s":{"ha":654,"x_min":0,"x_max":0,"o":"m 503 539 b 429 633 490 578 465 609 b 325 668 393 656 358 668 b 217 640 281 668 244 659 b 175 564 189 622 175 596 b 208 489 175 533 186 508 b 289 447 229 469 256 456 b 394 417 321 439 356 429 b 499 381 431 406 466 394 b 580 319 531 369 558 348 b 613 211 602 290 613 254 b 540 44 613 141 588 85 b 353 -17 491 4 429 -17 b 182 40 289 -17 232 2 b 167 54 177 44 172 49 b 153 66 161 60 157 64 b 146 69 150 68 148 69 b 129 39 141 69 136 59 b 125 23 128 35 127 30 b 121 9 123 16 122 11 b 116 -1 120 7 118 3 b 108 -9 114 -5 111 -8 b 94 -12 104 -10 100 -12 b 72 -14 88 -13 81 -14 b 48 -8 60 -14 52 -12 b 42 10 44 -5 42 1 b 42 24 42 13 42 17 b 43 42 43 31 43 37 l 43 213 b 48 236 43 225 45 233 b 75 240 51 239 60 240 b 112 234 94 240 106 238 b 125 206 118 230 122 221 b 135 172 128 192 131 181 b 215 88 151 137 178 109 b 325 56 252 66 289 56 b 451 92 379 56 421 68 b 497 185 482 117 497 148 b 453 266 497 219 482 246 b 345 310 423 286 387 301 b 219 343 303 320 261 331 b 111 407 177 355 141 376 b 67 528 81 438 67 478 b 133 685 67 596 89 649 b 296 739 178 721 232 739 b 439 694 350 739 398 724 b 460 676 446 689 453 683 b 475 659 466 669 471 663 b 483 653 479 655 481 653 b 504 692 489 653 496 666 b 511 713 507 698 509 705 b 515 728 513 721 514 726 b 523 733 516 730 519 731 b 542 736 527 735 533 736 b 556 737 545 736 550 736 b 567 738 561 737 565 738 b 588 711 581 738 588 729 l 588 510 b 581 490 588 500 585 493 b 553 486 577 488 568 486 b 524 490 540 486 530 487 b 513 497 518 492 515 494 b 508 515 512 500 510 506 b 503 539 506 525 505 532 "},"t":{"ha":531,"x_min":0,"x_max":0,"o":"m 443 163 b 470 153 453 163 462 159 b 482 135 478 146 482 140 b 461 89 482 128 475 113 b 283 -17 421 19 362 -17 b 178 21 236 -17 201 -4 b 143 119 155 46 143 79 l 143 563 b 144 588 143 569 144 578 b 146 611 145 599 146 606 b 138 638 146 623 143 632 b 106 646 132 643 121 646 l 35 646 b 18 651 26 646 21 647 b 14 676 15 654 14 663 b 19 715 14 699 16 712 b 56 722 22 719 34 721 b 154 764 101 724 134 738 b 190 924 175 790 187 843 b 199 967 191 949 194 963 b 236 972 204 970 217 972 b 263 966 249 972 258 970 b 269 944 267 962 269 955 b 269 927 269 942 269 936 b 268 907 268 918 268 912 l 268 764 b 274 728 268 744 270 731 b 314 722 278 724 292 722 l 422 722 b 437 723 426 722 431 722 b 449 724 443 723 447 724 b 467 717 458 724 464 722 b 472 690 471 713 472 704 l 472 674 b 467 651 472 662 470 654 b 436 646 463 647 453 646 l 303 646 b 274 640 288 646 278 644 b 268 619 270 637 268 630 l 268 149 b 329 69 268 96 288 69 b 403 113 357 69 381 84 b 412 128 406 116 409 122 b 420 145 415 135 418 141 b 429 157 422 149 425 153 b 443 163 433 161 438 163 "},"u":{"ha":938,"x_min":0,"x_max":0,"o":"m 167 624 b 162 642 167 634 165 640 b 136 646 159 645 150 646 l 72 646 b 48 653 60 646 52 648 b 42 688 44 659 42 670 b 48 717 42 702 44 712 b 69 724 52 721 59 724 b 85 723 72 724 78 723 b 106 722 93 722 100 722 l 231 722 b 249 723 236 722 242 722 b 263 724 255 723 260 724 b 285 716 274 724 281 721 b 292 682 290 711 292 700 l 292 225 b 324 98 292 171 303 129 b 424 51 346 67 379 51 b 584 134 489 51 543 79 b 646 329 625 189 646 254 l 646 599 b 638 639 646 621 643 634 b 586 646 632 644 615 646 b 565 645 581 646 574 646 b 549 644 557 645 551 644 b 527 652 538 644 531 647 b 521 682 523 657 521 667 b 526 716 521 700 522 712 b 551 722 529 720 538 722 l 708 722 b 761 715 737 722 755 720 b 771 674 768 709 771 696 l 771 163 b 769 137 771 156 770 147 b 768 114 769 126 768 119 b 777 85 768 101 771 91 b 811 76 783 79 794 76 l 858 76 b 890 72 876 76 887 75 b 896 47 894 68 896 60 l 896 35 b 890 6 896 20 894 10 b 869 -1 885 1 879 -1 b 856 -1 867 -1 862 -1 b 839 0 849 0 844 0 l 678 0 b 652 8 665 0 656 3 b 646 46 648 13 646 25 b 647 89 646 58 646 72 b 649 118 648 106 649 115 b 646 129 649 125 648 129 b 622 101 642 129 634 120 b 392 -14 569 25 493 -14 b 215 40 306 -14 248 4 b 167 210 183 75 167 132 "},"v":{"ha":818,"x_min":0,"x_max":0,"o":"m 603 593 b 610 609 605 598 607 603 b 616 623 613 615 615 620 b 618 632 617 626 618 629 b 578 646 618 641 605 646 l 528 646 b 504 650 516 646 508 647 b 499 667 500 653 499 658 b 499 678 499 669 499 672 b 500 693 500 684 500 689 b 504 718 500 706 501 714 b 521 724 507 722 513 724 b 533 723 523 724 527 723 b 547 722 539 722 544 722 l 786 722 b 806 716 795 722 802 720 b 811 688 809 712 811 702 b 806 652 811 669 809 657 b 782 644 802 647 794 644 b 767 645 779 644 774 645 b 750 646 760 646 755 646 l 717 646 b 699 640 708 646 702 644 b 689 617 695 635 692 628 l 683 599 l 486 71 b 479 46 485 67 483 59 b 469 16 475 33 472 23 b 454 -4 467 9 462 2 b 428 -14 447 -11 438 -14 l 408 -14 b 381 -6 397 -14 388 -11 b 367 11 374 0 369 6 b 358 38 364 17 361 25 b 350 63 354 50 352 58 l 143 604 b 131 632 138 619 134 628 b 117 642 129 636 124 639 b 81 646 109 644 97 646 l 42 646 b 12 649 25 646 15 647 b 7 672 9 652 7 659 l 7 703 b 12 718 7 710 9 715 b 33 722 15 721 22 722 l 297 722 b 324 723 305 722 313 722 b 344 724 334 723 341 724 b 375 714 359 724 369 720 b 383 671 381 707 383 693 b 379 651 383 661 382 654 b 364 646 376 647 371 646 l 317 646 b 268 619 284 646 268 637 b 282 578 268 611 273 597 b 299 540 291 559 297 547 l 390 276 b 404 227 394 265 399 249 b 419 178 410 205 415 189 b 432 163 423 168 427 163 b 461 210 440 163 450 178 "},"w":{"ha":1201,"x_min":0,"x_max":0,"o":"m 563 688 b 566 699 563 689 565 693 b 569 708 567 704 568 707 b 572 715 569 709 570 711 b 578 719 574 718 576 719 b 588 721 581 719 584 720 b 603 722 592 722 597 722 b 626 722 612 722 620 722 b 644 718 633 721 639 720 b 655 714 649 716 653 715 b 663 706 657 713 660 710 b 667 696 665 701 667 698 b 672 681 668 694 669 689 b 678 663 675 672 677 666 l 814 229 b 838 171 826 190 834 171 b 863 243 841 171 850 195 l 958 582 b 968 626 965 606 968 621 b 955 643 968 636 964 641 b 897 646 946 645 927 646 l 883 646 b 848 653 864 646 852 648 b 842 696 844 659 842 673 b 889 725 842 715 857 725 b 919 724 895 725 905 725 b 947 722 932 723 942 722 l 1122 722 b 1144 723 1129 722 1136 722 b 1161 724 1153 723 1158 724 b 1188 715 1174 724 1183 721 b 1194 676 1192 709 1194 696 b 1190 651 1194 663 1193 654 b 1174 646 1188 647 1182 646 l 1108 646 b 1081 644 1097 646 1088 645 b 1065 635 1074 644 1069 641 b 1056 624 1060 630 1058 626 b 1050 604 1055 621 1053 614 b 1044 582 1047 594 1045 587 l 900 82 b 893 53 898 75 896 65 b 886 26 890 41 888 32 b 876 6 884 20 881 13 b 856 -10 872 -2 865 -7 b 822 -14 847 -12 836 -14 b 787 -7 807 -14 796 -12 b 770 5 778 -2 772 2 b 761 31 768 8 765 17 b 754 60 757 46 755 55 l 628 465 b 606 528 615 507 607 528 b 586 482 602 528 595 513 l 460 71 b 453 43 459 66 457 57 b 445 13 450 29 447 19 b 430 -5 443 7 438 1 b 400 -14 422 -11 412 -14 b 368 -12 387 -14 376 -13 b 349 -8 360 -10 353 -9 b 335 3 344 -6 340 -3 b 328 16 331 9 329 14 b 322 36 327 18 325 25 b 314 60 318 47 316 55 l 142 588 b 135 607 140 592 138 599 b 130 624 133 615 131 621 b 122 635 128 628 126 631 b 108 644 119 640 114 642 b 83 646 102 645 94 646 l 42 646 b 13 651 27 646 17 648 b 7 672 9 655 7 662 l 7 696 b 38 725 7 715 17 725 b 57 724 41 725 48 725 b 78 722 66 723 73 722 l 381 722 b 406 716 394 722 402 720 b 411 682 409 712 411 700 b 406 651 411 665 409 655 b 382 646 403 648 395 646 l 294 646 b 254 633 268 646 254 642 b 265 596 254 631 258 618 l 376 229 b 400 167 389 188 397 167 b 424 226 404 167 412 187 "},"x":{"ha":785,"x_min":0,"x_max":0,"o":"m 563 614 b 582 640 575 629 582 638 b 535 646 582 644 566 646 b 512 649 522 646 514 647 b 508 672 509 652 508 659 l 508 703 b 540 725 508 718 519 725 b 562 724 545 725 552 725 b 582 722 572 723 578 722 l 747 722 b 773 716 761 722 770 720 b 778 683 776 712 778 701 b 774 651 778 666 776 655 b 750 646 771 648 763 646 l 732 646 b 697 639 719 646 707 644 b 674 625 686 634 678 630 b 654 602 669 620 663 613 b 636 581 646 591 640 584 l 518 450 b 481 389 493 424 481 404 b 525 314 481 379 495 354 l 642 156 b 658 130 645 151 651 142 b 677 102 666 117 672 108 b 701 85 682 96 690 90 b 738 76 711 79 724 76 l 750 76 b 774 72 763 76 771 75 b 778 42 776 68 778 58 b 772 7 778 24 776 13 b 747 -1 767 1 759 -1 b 733 -1 745 -1 741 -1 b 715 0 726 0 720 0 l 489 0 b 463 6 475 0 466 2 b 457 42 459 10 457 22 b 460 72 457 58 458 68 b 483 76 463 75 470 76 l 547 76 b 450 208 505 136 472 180 b 428 243 444 216 437 227 b 405 276 419 259 411 270 b 385 285 399 282 392 285 b 349 261 375 285 363 277 l 233 133 b 216 117 230 130 224 124 b 197 100 208 110 202 105 b 190 88 193 95 190 91 b 226 76 190 80 202 76 b 244 77 230 76 236 77 b 260 78 252 78 257 78 b 285 56 276 78 285 70 l 285 28 b 278 6 285 18 282 10 b 249 0 273 2 263 0 l 63 0 b 47 -1 58 0 53 0 b 33 -1 41 -1 36 -1 b 14 6 24 -1 18 1 b 8 33 10 10 8 19 b 8 47 8 37 8 42 b 7 58 7 53 7 56 b 26 76 7 70 13 76 b 71 83 43 76 58 79 b 98 97 84 88 93 92 b 121 122 103 101 111 109 b 142 147 131 135 138 144 l 282 303 b 296 318 285 306 289 312 b 308 331 302 325 306 329 b 316 342 310 334 313 337 b 322 353 319 346 321 350 b 324 363 323 356 324 359 b 299 414 324 375 315 392 l 163 597 b 151 615 160 601 156 607 b 140 631 147 622 143 628 b 124 641 136 634 131 638 b 99 646 117 644 109 646 l 51 646 b 15 651 31 646 19 648 b 8 685 10 655 8 666 l 8 692 b 15 717 8 705 11 713 b 38 724 20 722 27 724 b 56 723 41 724 47 723 b 76 722 64 722 71 722 l 315 722 b 344 718 330 722 340 721 b 350 699 348 715 350 709 l 350 675 b 346 651 350 662 349 654 b 329 646 343 647 338 646 l 310 646 b 288 635 295 646 288 642 b 295 617 288 630 290 624 b 315 595 300 610 307 603 b 331 578 322 587 328 581 l 386 503 b 392 494 388 500 390 497 b 398 488 395 492 397 489 b 403 481 399 486 401 484 b 407 476 405 479 406 477 b 410 472 408 474 409 473 b 414 469 412 470 413 469 b 417 467 415 468 416 468 b 421 467 419 467 420 467 b 454 494 427 467 438 476 "},"y":{"ha":872,"x_min":0,"x_max":0,"o":"m 189 -361 b 65 -308 137 -361 96 -344 b 18 -182 34 -273 18 -231 b 43 -108 18 -151 26 -127 b 103 -81 60 -90 80 -81 b 153 -99 124 -81 141 -87 b 172 -149 166 -111 172 -127 b 143 -196 172 -168 163 -184 b 114 -231 124 -208 114 -219 b 135 -274 114 -247 121 -262 b 189 -292 149 -286 167 -292 b 290 -244 221 -292 255 -276 b 386 -83 324 -213 356 -159 l 396 -58 b 407 -12 403 -38 407 -23 b 385 56 407 -1 400 21 l 132 611 b 110 641 125 628 117 638 b 61 646 102 644 86 646 l 47 646 b 13 653 29 646 17 648 b 7 694 9 657 7 671 b 32 724 7 714 15 724 b 47 723 35 724 40 723 b 64 722 53 722 59 722 l 308 722 b 331 723 314 722 321 722 b 350 724 340 723 346 724 b 375 716 361 724 369 721 b 383 683 381 711 383 700 b 378 652 383 667 382 656 b 356 646 375 648 368 646 l 308 646 b 261 628 277 646 261 640 b 265 613 261 624 263 619 b 277 592 268 607 272 600 b 289 569 282 583 286 576 l 442 231 b 476 168 460 189 472 168 b 511 236 481 168 493 191 l 653 597 b 665 633 661 619 665 631 b 617 646 665 642 649 646 b 574 653 593 646 578 648 b 567 693 569 657 567 671 l 567 700 b 593 725 567 717 575 725 b 611 724 597 725 603 725 b 631 722 619 723 626 722 l 842 722 b 865 703 857 722 865 716 l 865 681 b 859 651 865 666 863 656 b 838 644 855 647 848 644 b 822 645 835 644 829 645 b 803 646 814 646 807 646 b 776 644 792 646 783 645 b 759 635 769 642 763 639 b 750 624 755 630 752 626 b 743 606 748 621 746 615 b 736 586 740 597 738 591 l 447 -142 b 189 -361 389 -288 303 -361 "},"z":{"ha":765,"x_min":0,"x_max":0,"o":"m 335 653 b 206 624 273 653 230 643 b 161 533 181 605 167 575 b 160 513 160 529 160 522 l 160 489 b 151 453 160 473 157 461 b 117 442 146 446 134 442 b 85 478 95 442 85 454 b 86 502 85 482 85 491 b 88 528 87 514 88 522 l 88 669 b 94 715 88 695 90 711 b 142 722 99 720 115 722 l 619 722 b 639 723 624 722 631 722 b 657 724 647 723 653 724 b 679 717 667 724 675 722 b 686 692 684 713 686 705 b 678 648 686 676 683 661 b 661 617 672 634 667 624 b 635 589 656 610 647 601 b 613 564 624 577 616 569 l 256 131 b 238 111 251 125 245 119 b 222 93 231 104 226 98 b 217 82 219 88 217 85 b 272 69 217 74 235 69 l 422 69 b 589 103 506 69 561 81 b 631 226 617 125 631 166 b 630 244 631 230 630 236 b 629 261 629 252 629 257 b 656 297 629 285 638 297 b 694 289 675 297 688 294 b 703 260 700 283 703 274 b 702 239 703 256 703 249 b 701 214 702 229 701 220 l 701 44 b 691 8 701 26 698 14 b 642 0 684 3 668 0 l 108 0 b 56 25 73 0 56 8 l 56 39 b 56 60 56 49 56 56 b 61 75 57 65 58 69 b 69 88 64 81 67 85 b 88 109 72 91 78 98 b 115 142 97 120 106 131 l 492 600 b 507 617 495 605 500 610 b 521 633 513 624 518 630 b 525 643 524 637 525 640 b 467 653 525 650 506 653 l 335 653 "},"{":{"ha":378,"x_min":0,"x_max":0,"o":"m 247 -203 b 115 -142 185 -194 141 -173 b 76 -14 89 -111 76 -69 b 97 134 76 41 83 90 b 139 247 111 178 125 216 b 160 326 153 278 160 304 b 147 377 160 350 155 367 b 118 390 138 387 128 391 b 90 401 108 389 98 393 b 76 446 81 410 76 425 b 79 465 76 454 77 461 b 85 474 81 470 83 473 b 97 479 87 476 91 477 b 111 483 104 481 108 482 b 160 550 144 494 160 517 b 139 630 160 572 153 599 b 97 742 125 661 111 698 b 76 890 83 786 76 836 b 120 1024 76 948 91 992 b 272 1081 149 1055 200 1074 b 284 1082 275 1081 279 1081 b 298 1084 289 1083 294 1084 b 310 1085 302 1084 306 1085 b 336 1058 327 1085 336 1076 b 333 1031 336 1046 335 1037 b 326 1020 330 1025 328 1022 b 309 1017 325 1019 319 1018 b 286 1014 299 1016 292 1015 b 206 899 232 1003 206 964 b 229 761 206 866 213 820 b 253 599 245 702 253 648 b 226 496 253 560 244 525 b 209 471 221 487 215 478 b 195 455 203 463 198 458 b 188 447 192 452 189 449 b 185 440 186 444 185 442 b 221 388 185 438 197 421 b 253 278 242 359 253 322 b 229 115 253 229 245 175 b 206 -22 213 56 206 10 b 261 -131 206 -85 224 -121 b 297 -137 272 -133 284 -135 b 322 -140 309 -138 317 -139 b 332 -149 326 -141 329 -144 b 336 -175 335 -154 336 -163 b 288 -207 336 -196 320 -207 b 247 -203 286 -207 272 -206 "},"|":{"ha":417,"x_min":0,"x_max":0,"o":"m 192 1083 b 258 1068 225 1083 247 1078 b 274 1018 268 1058 274 1041 b 272 981 274 1012 273 999 b 271 935 271 962 271 947 l 271 -282 b 260 -338 271 -313 267 -332 b 192 -347 252 -344 230 -347 b 153 -336 172 -347 159 -344 b 143 -301 146 -329 143 -317 b 144 -274 143 -297 144 -287 b 146 -240 145 -260 146 -249 l 146 964 b 144 1000 146 972 145 984 b 142 1033 142 1016 142 1027 b 192 1083 142 1067 158 1083 "},"}":{"ha":378,"x_min":0,"x_max":0,"o":"m 131 1078 b 263 1017 193 1069 237 1048 b 301 889 288 986 301 944 b 281 741 301 834 294 785 b 239 628 267 697 253 659 b 218 549 225 597 218 571 b 231 498 218 525 222 508 b 260 485 240 488 250 484 b 288 474 270 486 279 482 b 301 429 297 465 301 450 b 299 410 301 421 300 414 b 293 401 297 405 295 402 b 281 396 291 399 287 398 b 267 392 274 394 269 393 b 218 325 234 381 218 358 b 239 245 218 303 225 276 b 281 133 253 214 267 177 b 301 -15 294 89 301 39 b 258 -149 301 -73 287 -117 b 106 -206 228 -180 178 -199 l 68 -210 b 42 -183 50 -210 42 -201 b 45 -156 42 -171 43 -162 b 51 -145 47 -150 50 -147 b 69 -142 53 -144 59 -143 b 92 -139 78 -141 86 -140 b 172 -24 145 -128 172 -89 b 149 114 172 9 164 55 b 125 276 133 173 125 227 b 151 379 125 315 134 350 b 169 404 157 388 163 397 b 183 420 175 412 179 417 b 190 428 186 423 188 426 b 193 435 192 431 193 433 b 157 488 193 437 181 454 b 125 597 136 516 125 553 b 149 760 125 646 133 700 b 172 897 164 819 172 865 b 117 1006 172 960 154 996 b 81 1012 106 1008 94 1010 b 56 1015 69 1013 60 1014 b 46 1024 52 1016 49 1019 b 42 1050 43 1029 42 1038 b 90 1082 42 1071 58 1082 b 131 1078 92 1082 106 1081 "},"~":{"ha":956,"x_min":0,"x_max":0,"o":"m 338 607 b 240 568 290 607 258 594 b 228 531 235 561 231 548 b 215 491 226 514 222 501 b 178 476 209 481 196 476 b 138 501 151 476 138 485 b 144 540 138 502 140 515 b 215 666 155 596 178 638 b 346 708 252 694 296 708 b 443 688 383 708 415 702 b 505 643 471 675 491 660 b 554 598 518 626 535 611 b 618 578 574 584 595 578 b 732 657 682 578 720 604 b 735 679 733 663 734 670 b 738 697 736 688 737 694 b 749 705 740 700 743 703 b 775 708 754 707 763 708 b 817 675 803 708 817 697 b 803 615 817 668 812 648 b 728 512 788 570 763 535 b 610 476 694 488 654 476 b 500 497 567 476 531 483 b 435 542 469 510 448 525 b 390 587 422 558 407 573 b 338 607 374 600 356 607 "},"":{"ha":443,"x_min":0,"x_max":0,"o":"m 304 654 b 281 596 304 631 296 612 b 222 572 265 580 245 572 b 164 596 199 572 180 580 b 140 654 148 612 140 631 b 164 713 140 677 148 697 b 222 736 180 728 199 736 b 281 713 245 736 265 728 b 304 654 296 697 304 677 m 140 -193 b 169 76 144 -132 154 -42 b 193 349 185 195 193 286 b 192 367 193 352 193 359 b 192 388 192 376 192 383 b 218 433 192 418 200 433 b 251 390 240 433 251 419 l 251 343 b 276 85 254 287 263 201 b 304 -193 290 -30 300 -123 l 304 -219 b 222 -331 304 -294 277 -331 b 139 -219 167 -331 139 -294 b 140 -207 139 -217 139 -212 b 140 -193 140 -201 140 -197 "},"":{"ha":761,"x_min":0,"x_max":0,"o":"m 390 615 b 393 644 392 632 393 642 b 379 667 393 659 388 667 b 340 654 371 667 358 663 b 238 545 296 633 262 597 b 203 375 215 494 203 437 b 256 138 203 273 220 194 b 300 89 276 105 291 89 b 322 138 309 89 317 105 m 289 -96 b 293 -61 289 -91 290 -80 b 297 -25 296 -43 297 -31 b 297 -15 297 -21 297 -18 b 294 -8 296 -12 295 -10 b 290 -2 292 -5 291 -3 b 283 3 289 -1 287 1 b 275 6 280 5 277 6 b 263 10 273 7 269 8 b 249 17 257 13 252 15 b 109 146 187 44 140 88 b 63 347 78 204 63 271 b 133 606 63 449 86 535 b 332 729 181 677 247 718 b 355 732 339 730 347 731 b 373 733 363 733 369 733 b 386 735 377 733 381 734 b 396 736 391 736 394 736 b 403 740 398 736 400 737 b 408 743 406 742 407 743 b 410 749 408 743 409 745 b 412 758 411 753 411 756 b 413 772 412 760 413 765 b 415 788 414 778 414 784 b 419 807 417 792 418 799 b 419 829 419 815 419 823 b 424 847 419 836 421 841 b 439 854 426 852 431 854 l 476 854 b 499 835 491 854 499 848 b 492 787 499 823 496 807 b 485 753 487 767 485 756 b 536 715 485 738 502 725 b 642 644 581 701 617 678 b 681 529 668 610 681 572 b 653 460 681 499 672 476 b 592 438 635 445 615 438 b 537 460 571 438 553 445 b 513 518 521 475 513 494 b 535 569 513 537 520 554 b 557 607 550 585 557 598 b 504 658 557 629 539 646 b 486 663 496 661 490 663 b 478 660 482 663 480 662 b 473 653 476 659 474 657 b 470 644 472 650 471 647 b 469 631 470 642 469 637 b 467 615 468 624 468 619 l 399 135 l 393 111 b 388 78 389 96 388 85 b 408 54 388 62 394 54 b 615 200 504 54 573 103 b 622 215 617 204 619 209 b 626 226 624 221 625 225 b 633 233 627 228 629 231 b 645 239 636 236 640 238 b 665 240 650 240 657 240 b 701 231 689 240 701 237 b 693 203 701 226 699 217 b 406 -14 640 58 544 -14 b 388 -15 398 -14 392 -14 b 378 -22 384 -16 381 -18 b 374 -29 376 -25 375 -27 b 373 -43 374 -31 373 -36 b 371 -60 372 -50 372 -56 b 369 -77 370 -64 369 -70 b 367 -92 368 -84 368 -89 b 365 -103 367 -96 366 -99 b 358 -112 363 -108 361 -110 b 345 -116 354 -113 350 -115 b 326 -118 340 -117 334 -118 b 289 -96 301 -118 289 -111 "},"":{"ha":736,"x_min":0,"x_max":0,"o":"m 761 171 b 528 -42 746 29 669 -42 b 380 -21 473 -42 424 -35 b 267 21 336 -7 298 7 b 188 42 236 35 210 42 b 150 31 174 42 161 38 b 125 7 139 23 131 15 b 107 -17 119 -1 113 -9 b 89 -28 100 -24 94 -28 l 56 -28 b 24 10 34 -28 24 -15 b 32 63 24 14 26 32 b 89 181 41 101 60 141 b 168 287 118 222 144 257 b 204 363 192 317 204 342 b 178 442 204 402 195 429 b 97 463 160 456 133 463 b 40 460 86 463 67 462 b -25 458 12 459 -9 458 b -47 463 -36 458 -44 460 b -53 481 -51 466 -53 472 b -52 492 -53 482 -53 486 b -51 507 -52 498 -51 503 b -48 531 -51 520 -50 528 b -31 535 -46 533 -40 535 l 92 535 b 153 549 132 535 153 539 b 132 599 153 550 146 567 b 92 764 105 659 92 714 b 190 981 92 859 125 932 b 461 1056 256 1031 346 1056 b 694 994 562 1056 640 1035 b 775 842 748 954 775 903 b 748 773 775 811 766 788 b 686 750 730 758 709 750 b 631 772 666 750 647 757 b 607 831 615 787 607 806 b 629 882 607 849 614 866 b 651 919 644 898 651 910 b 594 973 651 939 632 957 b 461 997 555 989 511 997 b 297 933 385 997 330 976 b 246 778 263 890 246 838 b 285 599 246 729 259 669 b 292 578 287 594 289 587 b 298 560 294 569 297 563 b 306 549 299 558 302 554 b 317 540 309 544 313 541 b 335 537 322 539 328 538 b 364 535 343 535 353 535 l 549 535 b 569 528 560 535 567 533 b 574 499 572 524 574 514 b 569 465 574 480 572 469 b 543 458 566 460 557 458 l 392 458 b 374 459 389 458 383 459 b 354 460 366 459 359 460 b 324 444 334 460 324 455 b 322 405 324 431 323 417 b 317 372 320 392 319 381 b 308 340 316 362 313 351 b 297 314 303 329 299 320 b 283 289 295 307 291 299 b 269 268 276 279 271 272 b 252 247 268 264 262 257 b 235 230 242 237 237 231 b 215 211 233 228 226 222 l 197 193 b 131 110 153 149 131 121 b 136 106 131 107 132 106 b 176 122 142 106 155 111 b 236 135 192 131 212 135 b 399 111 285 135 339 127 b 536 88 458 95 504 88 b 681 153 605 88 653 109 b 689 178 683 157 686 166 b 699 207 692 190 695 200 b 719 218 703 214 710 218 b 754 214 737 218 749 217 b 763 194 760 211 763 205 b 761 171 763 185 762 177 "},"":{"ha":1090,"x_min":0,"x_max":0,"o":"m 392 1042 b 410 1042 395 1042 401 1042 b 429 1043 418 1043 425 1043 b 458 1024 449 1043 458 1037 b 459 1006 458 1019 459 1013 b 460 990 459 998 460 993 b 453 971 460 981 457 975 b 425 965 448 967 439 965 l 336 965 b 296 953 309 965 296 961 b 301 940 296 949 298 945 b 316 922 305 936 310 930 b 329 904 322 915 326 909 l 539 590 b 576 547 558 562 571 547 b 580 548 577 547 578 547 b 585 551 581 548 583 550 l 590 556 b 594 563 591 558 593 560 b 599 571 596 565 598 568 b 606 581 601 574 603 577 b 614 593 609 585 612 589 l 839 938 b 850 960 846 950 850 957 b 829 965 850 963 843 965 l 728 965 b 712 965 723 965 718 965 b 699 964 706 964 701 964 b 679 971 689 964 683 966 b 674 999 675 975 674 985 l 674 1022 b 678 1038 674 1030 675 1035 b 700 1042 682 1040 689 1042 l 1031 1042 b 1048 1042 1035 1042 1041 1042 b 1063 1043 1055 1043 1060 1043 b 1085 1035 1074 1043 1081 1041 b 1090 1004 1088 1030 1090 1020 l 1090 997 b 1085 969 1090 981 1088 972 b 1053 965 1081 967 1070 965 l 994 965 b 967 963 983 965 974 965 b 949 955 960 962 954 959 b 937 944 943 951 939 947 b 927 927 934 941 931 935 b 917 910 923 919 919 913 b 784 706 887 864 843 796 b 651 501 725 615 681 547 b 649 493 650 499 649 496 b 671 483 649 487 656 483 b 698 485 676 483 685 484 b 724 486 710 486 719 486 l 832 486 b 851 485 840 486 847 486 b 863 478 856 484 860 481 b 868 460 866 474 868 468 l 868 440 b 859 415 868 426 865 418 b 828 410 853 411 843 410 l 683 410 b 664 410 678 410 671 410 b 650 411 656 411 652 411 b 631 404 641 411 634 409 b 625 375 627 400 625 390 l 625 303 b 643 276 625 285 631 276 b 654 277 645 276 649 277 b 668 278 660 278 664 278 l 832 278 b 851 276 840 278 847 277 b 863 269 856 275 860 273 b 868 251 866 266 868 260 l 868 232 b 859 206 868 218 865 209 b 828 201 853 203 843 201 b 784 203 824 201 809 202 b 721 204 759 204 738 204 b 625 182 657 204 625 197 l 625 131 b 633 83 625 104 628 88 b 683 76 638 79 655 76 l 753 76 b 785 71 769 76 780 75 b 792 49 789 67 792 60 l 792 24 b 768 -1 792 7 784 -1 b 753 -1 765 -1 760 -1 b 736 0 747 0 741 0 l 372 0 b 347 8 359 0 351 3 b 340 46 342 13 340 25 b 344 72 340 61 342 69 b 372 76 347 75 356 76 l 458 76 b 487 84 473 76 483 79 b 493 124 491 89 493 102 l 493 172 b 489 198 493 187 492 196 b 463 201 486 200 477 201 l 293 201 b 262 207 275 201 265 203 b 257 243 259 211 257 223 b 263 272 257 258 259 267 b 283 278 266 276 273 278 l 411 278 l 420 278 l 434 278 l 450 278 b 487 283 470 278 483 280 b 493 317 491 287 493 298 l 493 379 b 489 405 493 393 492 402 b 469 410 486 408 480 410 l 293 410 b 262 415 275 410 265 412 b 257 451 259 419 257 431 b 263 480 257 466 259 476 b 283 486 266 484 273 486 l 411 486 l 420 486 l 434 486 l 450 486 l 451 488 b 421 538 451 496 441 513 l 164 921 b 156 933 162 924 159 928 b 149 943 153 938 151 941 b 143 951 148 945 146 947 b 135 958 140 954 138 956 b 124 962 132 959 128 960 b 108 965 119 963 114 964 b 89 965 103 965 96 965 l 40 965 b 6 972 21 965 9 967 b 0 1010 2 976 0 988 b 3 1037 0 1025 1 1034 b 22 1042 6 1040 12 1042 "},"":{"ha":417,"x_min":0,"x_max":0,"o":"m 192 1083 b 258 1078 225 1083 247 1081 b 274 1060 268 1074 274 1068 b 272 1046 274 1057 273 1052 b 271 1029 271 1039 271 1034 l 271 592 b 260 572 271 581 267 574 b 192 568 252 569 230 568 b 143 585 159 568 143 574 b 144 595 143 587 144 590 b 146 607 145 600 146 604 l 146 1040 b 144 1053 146 1043 145 1047 b 142 1065 142 1059 142 1063 b 192 1083 142 1077 158 1083 m 192 231 b 258 225 225 231 247 229 b 274 204 268 221 274 214 b 272 189 274 201 273 196 b 271 171 271 181 271 175 l 271 -321 b 260 -344 271 -334 267 -341 b 192 -347 252 -346 230 -347 b 143 -329 159 -347 143 -341 b 144 -318 143 -327 144 -324 b 146 -304 145 -312 146 -308 l 146 182 b 144 197 146 186 145 191 b 142 210 142 203 142 207 b 192 231 142 224 158 231 "},"":{"ha":742,"x_min":0,"x_max":0,"o":"m 174 565 b 181 528 174 551 176 539 b 203 497 185 517 193 506 b 234 474 214 488 224 480 b 276 453 244 467 258 460 b 322 435 295 445 310 440 b 375 418 334 431 352 425 b 428 401 398 411 416 405 b 486 383 464 389 483 383 b 522 424 500 383 512 397 b 531 476 528 440 531 458 b 519 520 531 492 527 507 b 492 553 511 534 502 545 b 445 581 481 562 466 571 b 394 602 424 590 407 597 b 331 623 380 607 359 614 b 269 643 303 632 282 638 b 217 656 243 651 225 656 b 184 635 202 656 191 649 b 174 565 177 622 174 599 m 496 914 b 447 965 496 935 479 952 b 338 985 414 978 377 985 b 222 956 292 985 253 975 b 174 881 190 937 174 912 b 223 803 174 851 190 825 b 342 748 256 782 295 763 b 481 699 388 733 434 716 b 601 628 528 682 568 659 b 650 521 634 598 650 563 b 604 390 650 473 635 429 b 586 369 599 383 593 376 b 573 355 580 363 575 358 b 569 346 571 352 569 349 b 599 307 569 340 579 327 b 639 197 625 277 639 241 b 550 41 639 130 609 78 b 340 -14 491 4 421 -14 b 121 40 255 -14 182 4 b 29 206 60 76 29 131 b 57 282 29 237 38 263 b 118 311 75 301 96 311 b 173 289 138 311 157 304 b 197 231 189 274 197 255 b 175 179 197 212 190 195 b 153 142 160 163 153 151 b 216 83 153 120 174 101 b 339 57 258 66 299 57 b 471 86 387 57 431 67 b 531 161 511 106 531 131 b 480 238 531 191 514 216 b 358 294 446 260 405 278 b 214 342 310 309 262 325 b 91 413 166 359 125 383 b 40 521 57 443 40 479 b 100 663 40 580 60 627 b 133 700 122 682 133 694 b 130 708 133 703 132 706 b 117 723 128 711 123 716 b 99 743 110 730 104 737 b 65 844 76 771 65 805 b 140 1001 65 913 90 965 b 322 1056 190 1038 251 1056 b 533 1004 406 1056 476 1038 b 619 850 591 970 619 919 b 592 774 619 819 610 793 b 531 744 573 754 553 744 b 476 767 510 744 492 752 b 451 825 459 781 451 801 b 474 876 451 844 459 861 b 496 914 488 892 496 905 "},"":{"ha":556,"x_min":0,"x_max":0,"o":"m 333 1028 b 358 1087 333 1051 341 1071 b 417 1111 374 1103 394 1111 b 476 1087 440 1111 459 1103 b 500 1028 492 1071 500 1051 b 476 969 500 1005 492 985 b 417 944 459 953 440 944 b 358 969 394 944 374 953 b 333 1028 341 985 333 1005 m 56 1028 b 80 1087 56 1051 64 1071 b 139 1111 96 1103 116 1111 b 198 1087 162 1111 182 1103 b 222 1028 214 1071 222 1051 b 198 969 222 1005 214 985 b 139 944 182 953 162 944 b 80 969 116 944 96 953 b 56 1028 64 985 56 1005 "},"":{"ha":1208,"x_min":0,"x_max":0,"o":"m 139 521 b 275 191 139 392 184 282 b 604 54 366 100 475 54 b 933 191 733 54 843 100 b 1069 521 1024 282 1069 392 b 933 851 1069 650 1024 759 b 604 988 843 942 733 988 b 275 851 475 988 366 942 b 139 521 184 759 139 650 m 56 521 b 217 899 56 668 109 794 b 604 1056 324 1003 453 1056 b 992 899 755 1056 884 1003 b 1153 521 1099 794 1153 668 b 992 143 1153 374 1099 248 b 604 -14 884 38 755 -14 b 217 143 453 -14 324 38 b 56 521 109 248 56 374 m 879 428 b 792 263 870 360 841 305 b 603 200 743 221 680 200 b 384 290 514 200 441 230 b 299 521 327 350 299 427 b 392 750 299 613 330 689 b 615 842 455 811 529 842 b 790 774 683 842 741 819 b 810 760 800 764 806 760 b 822 790 812 760 816 770 b 826 806 823 793 824 798 b 830 823 827 814 828 820 b 839 833 831 826 834 829 b 857 838 844 836 850 838 b 872 835 865 838 870 837 b 874 821 873 834 874 829 l 874 649 b 870 624 874 635 872 627 b 847 621 868 622 860 621 l 843 621 b 828 626 836 621 831 623 b 822 645 825 630 823 636 b 818 664 820 654 819 660 b 744 756 804 701 779 732 b 619 793 708 781 667 793 b 454 716 549 793 494 767 b 394 521 414 665 394 600 b 451 325 394 441 413 376 b 611 249 488 274 542 249 b 760 301 671 249 721 266 b 833 429 799 337 823 379 b 840 451 835 442 837 450 b 863 454 842 453 850 454 b 882 444 875 454 882 451 b 879 428 882 443 881 437 "},"":{"ha":490,"x_min":0,"x_max":0,"o":"m 235 888 b 104 785 148 888 104 853 b 128 727 104 759 112 740 b 186 708 144 715 163 708 b 259 741 216 708 240 719 b 288 829 278 763 288 792 l 288 868 b 283 883 288 875 286 881 b 263 888 279 886 273 888 m 429 733 b 443 728 434 733 438 731 b 450 717 448 724 450 720 b 431 689 450 711 444 702 b 364 661 412 670 390 661 b 297 692 333 661 311 671 b 291 706 294 696 292 701 b 288 718 290 711 289 715 b 286 722 288 721 287 722 b 271 710 284 722 279 718 b 149 661 238 677 198 661 b 56 691 111 661 80 671 b 19 772 31 711 19 738 b 76 876 19 814 38 849 b 235 918 113 904 166 918 l 268 918 b 288 935 281 918 288 924 l 288 975 b 193 1072 288 1040 256 1072 b 139 1063 172 1072 154 1069 b 117 1040 124 1056 117 1049 b 128 1025 117 1037 120 1031 b 139 997 135 1019 139 1009 b 93 953 139 968 124 953 b 58 966 79 953 68 957 b 44 1006 49 975 44 988 b 92 1081 44 1036 60 1061 b 206 1111 124 1101 162 1111 b 363 975 310 1111 363 1066 l 363 729 b 383 704 363 713 369 704 b 411 717 394 704 403 708 b 417 724 413 719 415 721 b 423 731 420 726 422 729 b 429 733 424 732 426 733 "},"":{"ha":965,"x_min":0,"x_max":0,"o":"m 490 868 b 513 846 496 868 503 861 b 526 814 522 831 526 820 b 523 802 526 809 525 805 b 506 787 521 799 515 794 b 486 771 496 780 490 775 l 296 611 b 273 592 289 606 282 599 b 253 577 264 585 258 580 b 240 565 249 574 245 570 b 231 553 236 561 232 556 b 228 542 229 549 228 545 b 271 486 228 530 242 511 l 490 301 b 507 289 493 300 499 295 b 524 274 515 282 521 277 b 528 261 526 270 528 266 b 518 239 528 256 525 248 b 488 210 505 219 495 210 b 449 232 482 210 469 217 l 124 458 b 76 489 108 469 92 480 b 47 507 61 498 51 504 b 38 517 44 510 41 513 b 35 538 36 522 35 528 b 35 553 35 545 35 550 b 38 563 36 557 37 560 b 49 572 40 565 43 568 b 67 583 54 575 60 578 b 99 603 74 587 85 594 b 146 633 114 612 129 622 l 460 851 b 490 868 475 863 486 868 m 872 867 b 899 848 881 867 890 860 b 914 815 909 835 914 825 b 909 799 914 809 912 803 b 887 780 906 794 898 788 b 864 763 875 772 868 766 l 633 568 b 610 536 618 555 610 544 b 612 528 610 533 610 531 b 618 521 613 526 615 524 b 626 513 621 518 624 516 b 639 504 629 511 633 508 b 653 493 644 500 649 497 l 867 313 b 885 299 871 309 877 304 b 901 285 892 293 898 289 b 911 274 905 282 908 278 b 915 261 914 270 915 266 b 903 232 915 254 911 244 b 875 210 893 217 883 210 b 862 213 870 210 866 211 b 844 226 858 216 852 220 b 825 242 836 233 830 238 l 444 507 b 437 511 443 508 440 509 b 431 515 434 513 431 514 b 427 520 430 516 428 518 b 424 528 426 522 425 525 b 424 540 424 532 424 536 b 429 560 424 549 425 555 b 449 575 433 564 440 569 b 465 585 459 581 464 584 l 846 856 b 872 867 856 863 865 867 "},"":{"ha":667,"x_min":0,"x_max":0,"o":"m 601 854 b 628 851 610 854 619 853 b 644 831 639 850 644 843 l 644 594 b 639 576 644 584 643 578 b 603 574 635 575 623 574 b 575 577 588 574 579 575 b 569 589 571 579 569 583 l 569 778 l 131 778 b 94 783 110 778 98 780 b 89 819 91 787 89 799 b 95 848 89 834 91 844 b 119 854 99 852 107 854 "},"":{"ha":639,"x_min":0,"x_max":0,"o":"m 519 576 b 539 575 528 576 534 576 b 551 568 544 574 547 572 b 556 550 554 564 556 558 l 556 531 b 547 505 556 517 553 508 b 515 500 541 502 530 500 l 119 500 b 88 506 102 500 91 502 b 83 542 85 509 83 521 b 89 570 83 556 85 566 b 110 576 93 574 100 576 "},"":{"ha":1208,"x_min":0,"x_max":0,"o":"m 139 521 b 275 191 139 392 184 282 b 604 54 366 100 475 54 b 933 191 733 54 843 100 b 1069 521 1024 282 1069 392 b 933 851 1069 650 1024 759 b 604 988 843 942 733 988 b 275 851 475 988 366 942 b 139 521 184 759 139 650 m 56 521 b 217 899 56 668 109 794 b 604 1056 324 1003 453 1056 b 992 899 755 1056 884 1003 b 1153 521 1099 794 1153 668 b 992 143 1153 374 1099 248 b 604 -14 884 38 755 -14 b 217 143 453 -14 324 38 b 56 521 109 248 56 374 m 919 286 b 933 281 924 286 929 284 b 940 269 938 277 940 273 b 931 247 940 263 937 256 b 838 197 911 214 880 197 b 761 228 802 197 777 207 b 735 301 745 248 737 273 b 728 388 733 330 731 359 b 698 463 726 417 716 442 b 613 493 680 483 651 493 l 503 493 b 483 489 492 493 485 492 b 479 464 480 486 479 478 l 479 272 b 484 256 479 264 481 258 b 508 251 487 253 495 251 l 543 251 b 551 252 545 251 548 252 b 558 253 555 253 557 253 b 571 236 567 253 571 247 b 547 204 571 215 563 204 b 533 205 544 204 540 204 b 517 206 527 205 521 206 l 324 206 b 310 208 316 206 312 206 b 308 224 309 209 308 214 b 312 247 308 236 309 243 b 328 251 314 250 319 251 l 381 251 b 397 256 389 251 394 253 b 400 279 399 259 400 267 l 400 768 b 397 782 400 775 399 780 b 376 785 394 784 388 785 l 328 785 b 312 788 319 785 314 786 b 308 800 309 789 308 794 l 308 814 b 322 832 308 826 313 832 b 331 831 324 832 327 832 b 342 831 335 831 339 831 l 638 831 b 795 785 709 831 761 815 b 846 664 829 754 846 714 b 751 526 846 593 814 547 b 718 513 729 520 718 515 b 744 497 718 512 727 506 b 800 433 771 483 790 462 b 813 351 810 405 815 377 b 820 283 812 325 814 303 b 860 253 826 263 839 253 b 901 269 874 253 888 258 b 907 276 903 271 905 273 b 911 281 909 278 910 280 b 915 285 912 283 913 284 b 919 286 916 286 918 286 m 638 543 b 726 574 672 543 701 553 b 763 664 750 595 763 625 b 726 753 763 703 750 733 b 638 785 701 774 672 785 l 519 785 b 507 785 516 785 512 785 b 497 786 502 786 499 786 b 479 764 485 786 479 779 l 479 590 b 478 576 479 587 479 582 b 478 565 478 571 478 567 b 483 548 478 557 480 551 b 508 543 487 545 495 543 "},"":{"ha":667,"x_min":0,"x_max":0,"o":"m 601 854 b 625 853 612 854 619 854 b 639 846 631 852 635 850 b 644 828 643 842 644 836 l 644 808 b 633 783 644 795 641 787 b 596 778 626 780 613 778 l 131 778 b 94 783 110 778 98 780 b 89 819 91 787 89 799 b 95 848 89 834 91 844 b 119 854 99 852 107 854 "},"":{"ha":444,"x_min":0,"x_max":0,"o":"m 132 944 b 158 880 132 919 141 897 b 222 854 175 863 196 854 b 287 880 248 854 270 863 b 313 944 304 897 313 919 b 287 1009 313 970 304 992 b 222 1035 270 1026 248 1035 b 158 1009 196 1035 175 1026 b 132 944 141 992 132 970 m 56 944 b 104 1063 56 991 72 1030 b 222 1111 137 1095 176 1111 b 340 1063 269 1111 308 1095 b 389 944 373 1030 389 991 b 340 826 389 898 373 859 b 222 778 308 794 269 778 b 104 826 176 778 137 794 b 56 944 72 859 56 898 "},"":{"ha":736,"x_min":0,"x_max":0,"o":"m 610 115 b 633 114 620 115 628 115 b 647 107 639 113 644 111 b 653 89 651 103 653 97 l 653 69 b 642 44 653 56 649 47 b 604 39 635 41 623 39 l 128 39 b 90 44 106 39 94 41 b 83 81 85 48 83 60 b 90 109 83 95 86 105 b 115 115 95 113 103 115 m 613 532 b 647 525 631 532 642 530 b 653 483 651 520 653 506 b 621 453 653 463 642 453 b 601 454 617 453 611 453 b 579 456 592 455 585 456 l 460 456 b 413 449 434 456 418 453 b 406 404 408 444 406 429 l 406 243 b 399 214 406 227 403 218 b 360 208 394 210 381 208 b 329 236 339 208 329 218 b 330 253 329 239 329 244 b 331 272 330 261 331 268 l 331 403 b 324 447 331 427 328 442 b 292 456 320 453 309 456 l 132 456 b 91 462 110 456 96 458 b 83 493 86 466 83 476 l 83 511 b 106 533 83 526 91 533 b 119 533 108 533 113 533 b 135 532 126 532 131 532 l 297 532 b 324 540 311 532 320 534 b 331 578 328 545 331 557 l 331 739 b 336 773 331 758 332 770 b 371 778 340 776 351 778 b 400 772 386 778 395 776 b 407 750 405 767 407 760 b 406 736 407 748 407 744 b 406 717 406 729 406 722 l 406 589 b 414 539 406 560 408 544 b 468 532 419 534 438 532 "},"":{"ha":653,"x_min":0,"x_max":0,"o":"m 521 726 b 486 636 517 684 506 654 b 406 610 467 619 440 610 b 308 635 374 610 342 618 b 226 660 275 651 248 660 b 190 649 212 660 200 656 b 180 633 189 648 186 642 b 160 618 174 623 167 618 b 136 621 148 618 140 619 b 131 633 132 623 131 627 b 133 657 131 636 131 644 b 307 858 145 747 203 814 b 394 914 349 876 378 894 b 419 985 411 933 419 957 b 324 1075 419 1045 388 1075 b 249 1060 294 1075 269 1070 b 218 1028 228 1051 218 1040 b 231 1006 218 1022 222 1015 b 244 975 240 996 244 986 b 230 940 244 960 240 948 b 197 926 220 931 209 926 b 160 940 183 926 171 931 b 144 982 150 950 144 963 b 197 1072 144 1016 162 1046 b 324 1110 231 1097 274 1110 b 459 1076 378 1110 423 1098 b 513 976 495 1053 513 1020 b 319 810 513 903 448 848 b 221 749 282 800 250 779 b 193 711 209 737 200 724 b 189 700 190 706 189 702 b 192 699 189 699 190 699 b 216 707 193 699 201 701 b 256 715 231 713 244 715 b 341 701 285 715 314 711 b 411 688 368 692 392 688 b 478 725 446 688 469 700 b 480 741 479 728 479 733 b 484 759 480 749 482 755 b 499 765 486 763 491 765 b 524 749 515 765 524 760 b 521 726 524 747 523 739 "},"":{"ha":625,"x_min":0,"x_max":0,"o":"m 289 853 b 365 878 322 856 348 864 b 397 918 383 892 393 905 b 401 969 400 931 401 948 b 375 1047 401 1002 393 1028 b 296 1075 357 1066 331 1075 b 236 1059 271 1075 251 1070 b 214 1025 221 1048 214 1037 b 228 1002 214 1019 219 1012 b 242 971 237 992 242 982 b 226 937 242 957 237 946 b 193 924 216 928 205 924 b 156 937 179 924 167 928 b 140 978 146 946 140 959 b 185 1072 140 1015 155 1046 b 313 1110 214 1097 257 1110 b 435 1074 360 1110 400 1098 b 486 969 469 1051 486 1016 b 418 849 486 910 463 870 b 383 835 408 844 396 839 b 372 829 376 832 372 830 b 377 826 372 828 374 827 b 394 821 380 825 386 824 b 421 810 403 818 412 814 b 503 668 475 783 503 736 b 449 549 503 621 485 581 b 304 501 414 517 365 501 b 165 540 244 501 197 514 b 115 633 132 566 115 597 b 131 675 115 652 121 666 b 168 689 142 684 154 689 b 201 676 180 689 191 684 b 217 640 212 667 217 655 b 203 610 217 629 212 619 b 189 588 194 600 189 593 b 218 553 189 575 199 564 b 296 536 238 542 263 536 b 388 576 338 536 368 549 b 418 668 408 602 418 633 b 297 807 418 749 378 795 b 283 808 294 807 290 807 b 268 809 277 808 272 809 b 258 814 264 809 261 811 b 254 828 256 817 254 821 l 254 838 b 274 853 254 848 261 853 "},"":{"ha":549,"x_min":0,"x_max":0,"o":"m -56 986 b -74 1006 -68 986 -74 993 b -69 1016 -74 1010 -72 1014 b -51 1021 -66 1018 -60 1020 b -33 1024 -43 1022 -37 1023 l 257 1094 b 272 1096 261 1095 266 1096 b 307 1081 287 1096 299 1091 b 319 1049 315 1072 319 1061 b 305 1015 319 1036 315 1025 b 271 1000 295 1006 284 1001 l -33 988 b -45 987 -36 988 -40 987 b -56 986 -50 986 -54 986 "},"":{"ha":938,"x_min":0,"x_max":0,"o":"m 363 -199 b 419 -221 386 -199 404 -206 b 440 -279 433 -236 440 -255 b 411 -338 440 -303 431 -323 b 342 -361 392 -353 369 -361 b 219 -309 295 -361 255 -344 b 167 -169 184 -274 167 -228 l 167 624 b 162 642 167 634 165 640 b 136 646 159 645 150 646 l 72 646 b 48 653 60 646 52 648 b 42 688 44 659 42 670 b 48 717 42 702 44 712 b 69 724 52 721 59 724 b 85 723 72 724 78 723 b 106 722 93 722 100 722 l 231 722 b 249 723 236 722 242 722 b 263 724 255 723 260 724 b 285 716 274 724 281 721 b 292 682 290 711 292 700 l 292 225 b 324 98 292 171 303 129 b 424 51 346 67 379 51 b 584 134 489 51 543 79 b 646 329 625 189 646 254 l 646 599 b 638 639 646 621 643 634 b 586 646 632 644 615 646 b 565 645 581 646 574 646 b 549 644 557 645 551 644 b 527 652 538 644 531 647 b 521 682 523 657 521 667 b 526 716 521 700 522 712 b 551 722 529 720 538 722 l 708 722 b 761 715 737 722 755 720 b 771 674 768 709 771 696 l 771 163 b 769 137 771 156 770 147 b 768 114 769 126 768 119 b 777 85 768 101 771 91 b 811 76 783 79 794 76 l 858 76 b 890 72 876 76 887 75 b 896 47 894 68 896 60 l 896 35 b 890 6 896 20 894 10 b 869 -1 885 1 879 -1 b 856 -1 867 -1 862 -1 b 839 0 849 0 844 0 l 678 0 b 652 8 665 0 656 3 b 646 46 648 13 646 25 b 647 89 646 58 646 72 b 649 118 648 106 649 115 b 646 129 649 125 648 129 b 622 101 642 129 634 120 b 392 -14 569 25 493 -14 b 299 -4 355 -14 324 -11 b 269 8 290 -1 280 3 b 247 15 257 13 250 15 b 236 -31 240 15 236 0 l 236 -165 b 288 -225 236 -205 253 -225 b 317 -212 295 -225 305 -221 b 363 -199 330 -203 345 -199 "},"":{"ha":275,"x_min":0,"x_max":0,"o":"m 56 556 b 80 615 56 579 64 598 b 139 639 96 631 116 639 b 198 615 162 639 182 631 b 222 556 214 598 222 579 b 198 497 222 532 214 513 b 139 472 182 480 162 472 b 80 497 116 472 96 480 b 56 556 64 513 56 532 "},"":{"ha":764,"x_min":0,"x_max":0,"o":"m 303 -278 b 426 -256 356 -278 397 -270 b 471 -208 456 -241 471 -225 b 294 -139 471 -168 412 -144 b 242 -131 259 -138 242 -135 b 260 -103 242 -129 248 -119 l 385 57 l 482 57 l 399 -49 b 379 -79 386 -66 379 -76 b 381 -84 379 -81 380 -83 b 389 -87 383 -85 385 -87 l 400 -90 b 417 -94 404 -91 409 -92 b 436 -97 424 -95 431 -96 b 556 -194 516 -117 556 -149 b 497 -292 556 -232 536 -265 b 307 -335 458 -320 395 -334 b 292 -335 303 -335 298 -335 b 278 -336 285 -336 281 -336 b 258 -331 269 -336 262 -334 b 251 -307 253 -327 251 -319 b 271 -275 251 -286 258 -275 b 285 -276 274 -275 278 -275 b 303 -278 291 -277 297 -278 "},"":{"ha":736,"x_min":0,"x_max":0,"o":"m 240 633 b 226 633 237 633 232 633 b 214 632 220 632 216 632 b 194 656 201 632 194 640 b 213 681 194 672 200 681 b 222 680 214 681 218 680 b 233 679 227 679 231 679 l 297 679 b 331 684 316 679 327 681 b 336 711 334 687 336 696 l 336 956 b 333 972 336 964 335 969 b 322 975 331 974 328 975 l 251 975 b 238 974 248 975 243 975 b 228 974 233 974 230 974 b 208 997 215 974 208 981 l 208 1007 b 210 1013 208 1010 209 1012 b 212 1017 211 1015 211 1016 b 216 1019 212 1018 214 1018 b 222 1020 218 1019 220 1020 b 229 1021 223 1021 225 1021 l 239 1021 b 320 1038 275 1022 302 1028 b 371 1107 338 1049 355 1072 b 374 1114 372 1109 373 1111 b 376 1120 375 1117 375 1119 b 381 1124 377 1122 379 1123 b 390 1125 384 1125 387 1125 l 400 1125 b 413 1122 407 1125 412 1124 b 415 1104 415 1119 415 1113 l 415 704 b 420 683 415 692 417 685 b 446 679 423 680 432 679 l 526 679 b 546 676 538 679 544 678 b 549 654 548 673 549 666 b 533 632 549 639 544 632 b 525 633 531 632 529 632 b 515 633 521 633 518 633 "},"":{"ha":789,"x_min":0,"x_max":0,"o":"m 283 893 b 394 697 283 763 320 697 b 507 876 469 697 507 757 b 394 1072 507 1007 469 1072 b 283 893 320 1072 283 1013 m 196 876 b 247 1045 196 946 213 1002 b 394 1110 280 1088 330 1110 b 542 1048 458 1110 508 1089 b 594 893 577 1007 594 955 b 543 724 594 824 577 767 b 394 660 509 681 459 660 b 247 722 331 660 281 680 b 196 876 213 763 196 814 "},"":{"ha":965,"x_min":0,"x_max":0,"o":"m 475 208 b 453 231 469 208 462 216 b 439 263 444 245 439 256 b 442 274 439 267 440 271 b 460 290 445 278 450 283 b 479 306 469 297 475 302 l 669 465 b 692 484 676 471 684 477 b 712 499 701 491 708 496 b 725 511 716 503 720 506 b 735 524 730 516 733 520 b 738 535 737 527 738 531 b 694 590 738 547 723 565 l 475 775 b 458 788 472 777 467 781 b 442 803 450 794 444 799 b 438 815 439 806 438 811 b 447 838 438 821 441 828 b 478 867 460 857 470 867 b 517 844 483 867 496 859 l 842 618 b 889 588 857 607 873 597 b 918 569 905 578 914 572 b 927 559 922 567 925 563 b 931 539 929 555 931 548 b 930 523 931 531 930 526 b 927 514 929 520 928 517 b 917 505 926 511 922 508 b 898 494 911 502 905 498 b 866 474 891 490 880 483 b 819 443 852 464 836 454 l 506 225 b 475 208 491 214 481 208 m 93 210 b 66 228 85 210 76 216 b 51 261 56 241 51 252 b 56 278 51 268 53 273 b 78 297 59 282 67 289 b 101 314 90 304 98 310 l 332 508 b 356 540 348 521 356 532 b 353 548 356 543 355 546 b 347 556 352 550 350 553 b 339 563 344 558 342 561 b 326 572 336 566 332 569 b 313 583 321 576 316 580 l 99 764 b 81 778 94 768 88 772 b 64 791 73 783 68 788 b 54 802 60 794 57 798 b 50 815 51 806 50 811 b 63 844 50 822 54 831 b 90 867 73 859 82 867 b 103 863 95 867 99 866 b 122 850 108 861 114 856 b 140 835 129 844 136 838 l 521 569 b 528 565 523 569 525 567 b 535 561 532 563 534 562 b 538 556 536 560 537 559 b 541 548 540 554 541 551 b 542 536 541 545 542 541 b 536 517 542 528 540 521 b 516 501 532 512 526 507 b 500 492 506 496 501 493 l 119 221 b 93 210 109 213 100 210 "},"":{"ha":1389,"x_min":0,"x_max":0,"o":"m 1003 1042 b 1047 1021 1032 1042 1047 1035 b 1042 1003 1047 1016 1045 1010 b 1024 976 1038 997 1032 988 b 1008 953 1016 965 1011 957 l 457 57 b 445 35 455 53 451 46 b 432 15 439 24 435 17 b 415 6 429 12 423 9 b 381 0 406 2 394 0 b 338 21 352 0 338 7 b 347 46 338 27 341 36 b 372 80 354 56 362 67 b 393 107 382 92 389 101 l 929 969 b 943 997 930 970 935 980 b 967 1033 951 1015 959 1027 b 1000 1042 975 1039 986 1042 l 1003 1042 m 1156 -54 b 1152 -76 1156 -65 1154 -72 b 1136 -81 1150 -79 1144 -81 l 953 -81 b 938 -77 944 -81 939 -79 b 935 -57 936 -75 935 -68 b 954 -33 935 -41 941 -33 b 960 -34 955 -33 957 -34 b 968 -35 964 -34 966 -35 b 1007 -22 989 -35 1002 -30 b 1014 36 1012 -13 1014 6 l 1014 75 b 1010 96 1014 87 1013 94 b 989 99 1008 98 1001 99 l 799 99 b 790 98 797 99 794 98 b 783 97 787 97 784 97 b 772 111 776 97 772 102 b 788 164 772 128 777 145 b 888 308 800 188 834 236 b 983 472 941 381 973 435 b 986 491 984 476 985 482 b 992 508 987 500 989 505 b 1011 511 996 510 1002 511 l 1036 511 b 1063 496 1054 511 1063 506 b 1057 467 1063 491 1061 481 b 1010 372 1050 435 1034 404 b 924 271 987 341 958 307 b 853 188 891 235 867 207 b 831 154 838 166 831 155 b 863 144 831 148 841 144 l 989 144 b 1010 148 1000 144 1007 146 b 1014 164 1013 150 1014 156 l 1014 235 b 1016 256 1014 245 1015 252 b 1026 269 1017 260 1021 265 b 1038 279 1032 274 1036 277 b 1065 333 1047 290 1056 308 b 1075 351 1068 344 1071 350 b 1083 353 1077 352 1080 353 b 1094 343 1091 353 1094 350 b 1094 337 1094 342 1094 340 b 1093 329 1093 334 1093 331 l 1093 165 b 1098 148 1093 156 1095 150 b 1122 144 1101 146 1109 144 b 1137 145 1126 144 1131 145 b 1149 146 1143 146 1147 146 b 1164 141 1156 146 1161 144 b 1168 119 1167 138 1168 131 b 1144 97 1168 105 1160 97 b 1129 98 1142 97 1137 97 b 1113 99 1122 98 1116 99 b 1097 96 1104 99 1099 98 b 1093 85 1094 94 1093 90 l 1093 43 b 1094 3 1093 25 1094 12 b 1103 -23 1095 -6 1098 -15 b 1125 -35 1109 -31 1116 -35 b 1132 -34 1127 -35 1129 -34 b 1138 -33 1135 -34 1137 -33 b 1156 -54 1150 -33 1156 -40 m 240 633 b 226 633 237 633 232 633 b 214 632 220 632 216 632 b 194 656 201 632 194 640 b 213 681 194 672 200 681 b 222 680 214 681 218 680 b 233 679 227 679 231 679 l 297 679 b 331 684 316 679 327 681 b 336 711 334 687 336 696 l 336 956 b 333 972 336 964 335 969 b 322 975 331 974 328 975 l 251 975 b 238 974 248 975 243 975 b 228 974 233 974 230 974 b 208 997 215 974 208 981 l 208 1007 b 210 1013 208 1010 209 1012 b 212 1017 211 1015 211 1016 b 216 1019 212 1018 214 1018 b 222 1020 218 1019 220 1020 b 229 1021 223 1021 225 1021 l 239 1021 b 320 1038 275 1022 302 1028 b 371 1107 338 1049 355 1072 b 374 1114 372 1109 373 1111 b 376 1120 375 1117 375 1119 b 381 1124 377 1122 379 1123 b 390 1125 384 1125 387 1125 l 400 1125 b 413 1122 407 1125 412 1124 b 415 1104 415 1119 415 1113 l 415 704 b 420 683 415 692 417 685 b 446 679 423 680 432 679 l 526 679 b 546 676 538 679 544 678 b 549 654 548 673 549 666 b 533 632 549 639 544 632 b 525 633 531 632 529 632 b 515 633 521 633 518 633 "},"":{"ha":1389,"x_min":0,"x_max":0,"o":"m 1003 1042 b 1047 1021 1032 1042 1047 1035 b 1042 1003 1047 1016 1045 1010 b 1024 976 1038 997 1032 988 b 1008 953 1016 965 1011 957 l 457 57 b 445 35 455 53 451 46 b 432 15 439 24 435 17 b 415 6 429 12 423 9 b 381 0 406 2 394 0 b 338 21 352 0 338 7 b 347 46 338 27 341 36 b 372 80 354 56 362 67 b 393 107 382 92 389 101 l 929 969 b 943 997 930 970 935 980 b 967 1033 951 1015 959 1027 b 1000 1042 975 1039 986 1042 l 1003 1042 m 1215 115 b 1181 25 1212 73 1200 43 b 1100 -1 1161 7 1134 -1 b 1003 24 1069 -1 1036 7 b 921 49 969 40 942 49 b 885 38 906 49 894 45 b 874 22 884 37 880 31 b 854 7 868 12 862 7 b 831 10 842 7 834 8 b 825 22 827 12 825 16 b 828 46 825 25 826 33 b 1001 247 840 136 898 203 b 1089 303 1043 265 1072 283 b 1114 374 1106 322 1114 346 b 1018 464 1114 434 1082 464 b 943 449 988 464 963 459 b 913 417 923 440 913 429 b 926 394 913 411 917 404 b 939 364 934 385 939 375 b 924 328 939 349 934 337 b 892 315 915 320 904 315 b 855 329 878 315 866 320 b 839 371 844 338 839 352 b 891 460 839 405 856 435 b 1018 499 926 486 968 499 b 1153 465 1073 499 1118 487 b 1207 365 1189 442 1207 409 b 1014 199 1207 292 1143 237 b 915 138 977 188 944 168 b 888 100 903 125 894 113 b 883 89 885 94 883 91 b 886 88 883 88 884 88 b 910 96 887 88 895 90 b 950 104 926 101 939 104 b 1035 90 980 104 1008 100 b 1106 76 1063 81 1086 76 b 1172 114 1140 76 1162 89 b 1174 130 1173 117 1174 122 b 1178 148 1175 138 1176 144 b 1193 154 1181 152 1186 154 b 1218 138 1210 154 1218 149 b 1215 115 1218 136 1217 128 m 240 633 b 226 633 237 633 232 633 b 214 632 220 632 216 632 b 194 656 201 632 194 640 b 213 681 194 672 200 681 b 222 680 214 681 218 680 b 233 679 227 679 231 679 l 297 679 b 331 684 316 679 327 681 b 336 711 334 687 336 696 l 336 956 b 333 972 336 964 335 969 b 322 975 331 974 328 975 l 251 975 b 238 974 248 975 243 975 b 228 974 233 974 230 974 b 208 997 215 974 208 981 l 208 1007 b 210 1013 208 1010 209 1012 b 212 1017 211 1015 211 1016 b 216 1019 212 1018 214 1018 b 222 1020 218 1019 220 1020 b 229 1021 223 1021 225 1021 l 239 1021 b 320 1038 275 1022 302 1028 b 371 1107 338 1049 355 1072 b 374 1114 372 1109 373 1111 b 376 1120 375 1117 375 1119 b 381 1124 377 1122 379 1123 b 390 1125 384 1125 387 1125 l 400 1125 b 413 1122 407 1125 412 1124 b 415 1104 415 1119 415 1113 l 415 704 b 420 683 415 692 417 685 b 446 679 423 680 432 679 l 526 679 b 546 676 538 679 544 678 b 549 654 548 673 549 666 b 533 632 549 639 544 632 b 525 633 531 632 529 632 b 515 633 521 633 518 633 "},"":{"ha":1389,"x_min":0,"x_max":0,"o":"m 1003 1042 b 1047 1021 1032 1042 1047 1035 b 1042 1003 1047 1016 1045 1010 b 1024 976 1038 997 1032 988 b 1008 953 1016 965 1011 957 l 457 57 b 445 35 455 53 451 46 b 432 15 439 24 435 17 b 415 6 429 12 423 9 b 381 0 406 2 394 0 b 338 21 352 0 338 7 b 347 46 338 27 341 36 b 372 80 354 56 362 67 b 393 107 382 92 389 101 l 929 969 b 943 997 930 970 935 980 b 967 1033 951 1015 959 1027 b 1000 1042 975 1039 986 1042 l 1003 1042 m 1156 -54 b 1152 -76 1156 -65 1154 -72 b 1136 -81 1150 -79 1144 -81 l 953 -81 b 938 -77 944 -81 939 -79 b 935 -57 936 -75 935 -68 b 954 -33 935 -41 941 -33 b 960 -34 955 -33 957 -34 b 968 -35 964 -34 966 -35 b 1007 -22 989 -35 1002 -30 b 1014 36 1012 -13 1014 6 l 1014 75 b 1010 96 1014 87 1013 94 b 989 99 1008 98 1001 99 l 799 99 b 790 98 797 99 794 98 b 783 97 787 97 784 97 b 772 111 776 97 772 102 b 788 164 772 128 777 145 b 888 308 800 188 834 236 b 983 472 941 381 973 435 b 986 491 984 476 985 482 b 992 508 987 500 989 505 b 1011 511 996 510 1002 511 l 1036 511 b 1063 496 1054 511 1063 506 b 1057 467 1063 491 1061 481 b 1010 372 1050 435 1034 404 b 924 271 987 341 958 307 b 853 188 891 235 867 207 b 831 154 838 166 831 155 b 863 144 831 148 841 144 l 989 144 b 1010 148 1000 144 1007 146 b 1014 164 1013 150 1014 156 l 1014 235 b 1016 256 1014 245 1015 252 b 1026 269 1017 260 1021 265 b 1038 279 1032 274 1036 277 b 1065 333 1047 290 1056 308 b 1075 351 1068 344 1071 350 b 1083 353 1077 352 1080 353 b 1094 343 1091 353 1094 350 b 1094 337 1094 342 1094 340 b 1093 329 1093 334 1093 331 l 1093 165 b 1098 148 1093 156 1095 150 b 1122 144 1101 146 1109 144 b 1137 145 1126 144 1131 145 b 1149 146 1143 146 1147 146 b 1164 141 1156 146 1161 144 b 1168 119 1167 138 1168 131 b 1144 97 1168 105 1160 97 b 1129 98 1142 97 1137 97 b 1113 99 1122 98 1116 99 b 1097 96 1104 99 1099 98 b 1093 85 1094 94 1093 90 l 1093 43 b 1094 3 1093 25 1094 12 b 1103 -23 1095 -6 1098 -15 b 1125 -35 1109 -31 1116 -35 b 1132 -34 1127 -35 1129 -34 b 1138 -33 1135 -34 1137 -33 b 1156 -54 1150 -33 1156 -40 m 289 853 b 365 878 322 856 348 864 b 397 918 383 892 393 905 b 401 969 400 931 401 948 b 375 1047 401 1002 393 1028 b 296 1075 357 1066 331 1075 b 236 1059 271 1075 251 1070 b 214 1025 221 1048 214 1037 b 228 1002 214 1019 219 1012 b 242 971 237 992 242 982 b 226 937 242 957 237 946 b 193 924 216 928 205 924 b 156 937 179 924 167 928 b 140 978 146 946 140 959 b 185 1072 140 1015 155 1046 b 313 1110 214 1097 257 1110 b 435 1074 360 1110 400 1098 b 486 969 469 1051 486 1016 b 418 849 486 910 463 870 b 383 835 408 844 396 839 b 372 829 376 832 372 830 b 377 826 372 828 374 827 b 394 821 380 825 386 824 b 421 810 403 818 412 814 b 503 668 475 783 503 736 b 449 549 503 621 485 581 b 304 501 414 517 365 501 b 165 540 244 501 197 514 b 115 633 132 566 115 597 b 131 675 115 652 121 666 b 168 689 142 684 154 689 b 201 676 180 689 191 684 b 217 640 212 667 217 655 b 203 610 217 629 212 619 b 189 588 194 600 189 593 b 218 553 189 575 199 564 b 296 536 238 542 263 536 b 388 576 338 536 368 549 b 418 668 408 602 418 633 b 297 807 418 749 378 795 b 283 808 294 807 290 807 b 268 809 277 808 272 809 b 258 814 264 809 261 811 b 254 828 256 817 254 821 l 254 838 b 274 853 254 848 261 853 "},"":{"ha":764,"x_min":0,"x_max":0,"o":"m 550 -197 b 528 -151 550 -186 543 -171 b 507 -83 514 -132 507 -109 b 534 -21 507 -56 516 -35 b 601 0 552 -7 575 0 b 667 -26 627 0 649 -9 b 694 -99 685 -43 694 -67 b 614 -262 694 -161 668 -215 b 394 -333 560 -310 487 -333 b 147 -257 285 -333 203 -308 b 63 -42 91 -206 63 -134 b 129 144 63 24 85 86 b 308 268 174 202 233 243 b 332 274 314 270 322 272 b 353 279 342 275 349 277 b 366 292 358 281 362 285 b 372 318 370 298 372 307 l 372 365 b 372 385 372 370 372 376 b 371 401 371 393 371 399 b 379 426 371 413 374 422 b 415 432 385 430 397 432 b 449 426 433 432 444 430 b 457 401 454 422 457 413 b 456 385 457 399 457 393 b 456 365 456 378 456 371 l 456 292 b 449 251 456 274 453 260 b 437 231 445 241 441 234 b 411 219 433 228 424 224 b 381 207 398 215 388 211 b 251 91 326 178 283 140 b 203 -69 219 42 203 -11 b 251 -215 203 -127 219 -175 b 394 -275 283 -255 331 -275 b 512 -250 447 -275 486 -267 b 550 -197 537 -233 550 -216 m 494 653 b 470 594 494 630 486 610 b 411 569 454 578 434 569 b 352 594 388 569 368 578 b 328 653 336 610 328 630 b 352 712 328 676 336 696 b 411 736 368 728 388 736 b 470 712 434 736 454 728 b 494 653 486 696 494 676 "},"":{"ha":1278,"x_min":0,"x_max":0,"o":"m 444 1153 b 410 1168 431 1154 420 1159 b 396 1201 401 1177 396 1188 b 408 1234 396 1213 400 1224 b 443 1249 417 1244 428 1249 b 458 1247 450 1249 455 1248 l 756 1175 b 770 1173 757 1175 762 1174 b 785 1168 778 1172 783 1170 b 789 1158 788 1166 789 1163 b 783 1142 789 1149 787 1144 b 761 1140 780 1140 772 1139 l 444 1153 m 429 458 b 407 400 414 424 407 405 b 423 385 407 393 412 388 b 483 382 434 383 454 382 l 747 382 b 770 381 754 382 761 382 b 788 381 779 381 785 381 b 808 393 801 381 808 385 b 803 414 808 399 806 406 l 644 836 b 614 885 631 869 621 885 b 603 873 610 885 606 881 b 589 836 599 865 594 853 b 574 794 583 819 578 806 m 1065 114 b 1085 82 1072 96 1078 86 b 1133 76 1091 78 1107 76 l 1206 76 b 1231 72 1219 76 1228 75 b 1236 54 1234 69 1236 63 l 1236 33 b 1228 6 1236 19 1234 10 b 1206 -1 1223 1 1216 -1 b 1186 -1 1202 -1 1195 -1 b 1164 0 1177 0 1169 0 l 811 0 b 784 8 797 0 788 3 b 778 47 780 14 778 27 b 783 72 778 59 780 67 b 803 78 787 76 794 78 b 818 77 806 78 811 78 b 836 76 825 77 831 76 l 874 76 b 919 93 904 76 919 82 b 907 136 919 97 915 111 l 861 258 b 857 270 860 261 859 265 b 853 281 855 275 854 279 b 850 290 853 284 852 286 b 844 297 848 293 846 295 b 837 301 843 298 840 300 b 825 305 834 303 830 304 b 808 306 820 305 815 306 l 431 306 b 372 299 399 306 379 303 b 346 261 364 295 355 282 l 289 128 b 275 89 280 106 275 94 b 286 78 275 83 279 80 b 336 76 294 77 310 76 l 397 76 b 423 72 409 76 418 75 b 431 50 428 68 431 61 l 431 25 b 424 5 431 15 428 8 b 394 0 420 2 410 0 l 72 0 b 47 3 58 0 50 1 b 42 21 43 6 42 12 l 42 42 b 46 70 42 56 43 66 b 65 76 49 74 55 76 l 117 76 b 170 84 143 76 160 79 b 199 122 180 89 189 102 l 579 1003 b 585 1019 581 1006 583 1012 b 591 1035 588 1027 590 1032 b 598 1046 592 1038 595 1041 b 608 1056 601 1050 605 1054 b 624 1060 612 1057 617 1059 b 647 1063 630 1062 638 1063 b 673 1060 657 1063 666 1062 b 690 1051 680 1059 685 1056 b 698 1040 694 1047 697 1043 b 704 1022 699 1038 701 1031 b 711 1003 707 1013 709 1006 "},"":{"ha":1278,"x_min":0,"x_max":0,"o":"m 522 1139 b 504 1158 510 1139 504 1145 b 509 1169 504 1163 506 1166 b 526 1174 512 1171 518 1173 b 544 1176 535 1175 541 1175 l 835 1247 b 850 1249 838 1248 844 1249 b 885 1234 865 1249 876 1244 b 897 1201 893 1224 897 1213 b 883 1168 897 1188 892 1177 b 849 1153 873 1159 862 1154 l 544 1140 b 533 1140 542 1140 538 1140 b 522 1139 528 1139 524 1139 m 429 458 b 407 400 414 424 407 405 b 423 385 407 393 412 388 b 483 382 434 383 454 382 l 747 382 b 770 381 754 382 761 382 b 788 381 779 381 785 381 b 808 393 801 381 808 385 b 803 414 808 399 806 406 l 644 836 b 614 885 631 869 621 885 b 603 873 610 885 606 881 b 589 836 599 865 594 853 b 574 794 583 819 578 806 m 1065 114 b 1085 82 1072 96 1078 86 b 1133 76 1091 78 1107 76 l 1206 76 b 1231 72 1219 76 1228 75 b 1236 54 1234 69 1236 63 l 1236 33 b 1228 6 1236 19 1234 10 b 1206 -1 1223 1 1216 -1 b 1186 -1 1202 -1 1195 -1 b 1164 0 1177 0 1169 0 l 811 0 b 784 8 797 0 788 3 b 778 47 780 14 778 27 b 783 72 778 59 780 67 b 803 78 787 76 794 78 b 818 77 806 78 811 78 b 836 76 825 77 831 76 l 874 76 b 919 93 904 76 919 82 b 907 136 919 97 915 111 l 861 258 b 857 270 860 261 859 265 b 853 281 855 275 854 279 b 850 290 853 284 852 286 b 844 297 848 293 846 295 b 837 301 843 298 840 300 b 825 305 834 303 830 304 b 808 306 820 305 815 306 l 431 306 b 372 299 399 306 379 303 b 346 261 364 295 355 282 l 289 128 b 275 89 280 106 275 94 b 286 78 275 83 279 80 b 336 76 294 77 310 76 l 397 76 b 423 72 409 76 418 75 b 431 50 428 68 431 61 l 431 25 b 424 5 431 15 428 8 b 394 0 420 2 410 0 l 72 0 b 47 3 58 0 50 1 b 42 21 43 6 42 12 l 42 42 b 46 70 42 56 43 66 b 65 76 49 74 55 76 l 117 76 b 170 84 143 76 160 79 b 199 122 180 89 189 102 l 579 1003 b 585 1019 581 1006 583 1012 b 591 1035 588 1027 590 1032 b 598 1046 592 1038 595 1041 b 608 1056 601 1050 605 1054 b 624 1060 612 1057 617 1059 b 647 1063 630 1062 638 1063 b 673 1060 657 1063 666 1062 b 690 1051 680 1059 685 1056 b 698 1040 694 1047 697 1043 b 704 1022 699 1038 701 1031 b 711 1003 707 1013 709 1006 "},"":{"ha":1278,"x_min":0,"x_max":0,"o":"m 949 1185 b 935 1168 949 1179 944 1174 b 910 1160 925 1163 917 1160 b 890 1165 902 1160 896 1162 b 866 1185 884 1169 876 1175 b 846 1203 856 1194 850 1200 l 693 1329 b 647 1358 671 1349 656 1358 b 604 1333 640 1358 625 1350 l 432 1190 b 385 1160 409 1170 393 1160 b 360 1167 379 1160 371 1162 b 343 1183 349 1172 343 1178 b 347 1192 343 1186 344 1189 b 360 1204 350 1196 354 1200 b 371 1214 365 1209 369 1212 l 565 1408 l 574 1417 l 583 1426 b 590 1432 584 1427 586 1429 b 599 1438 593 1435 596 1437 b 610 1441 601 1438 605 1440 b 624 1444 614 1442 619 1443 b 643 1444 629 1444 636 1444 b 673 1443 655 1444 665 1444 b 696 1435 681 1442 688 1440 b 710 1426 703 1431 708 1428 b 726 1411 713 1425 718 1419 b 740 1396 734 1403 738 1398 l 910 1226 b 926 1213 913 1224 918 1219 b 943 1197 934 1207 939 1202 b 949 1185 947 1193 949 1188 m 429 458 b 407 400 414 424 407 405 b 423 385 407 393 412 388 b 483 382 434 383 454 382 l 747 382 b 770 381 754 382 761 382 b 788 381 779 381 785 381 b 808 393 801 381 808 385 b 803 414 808 399 806 406 l 644 836 b 614 885 631 869 621 885 b 603 873 610 885 606 881 b 589 836 599 865 594 853 b 574 794 583 819 578 806 m 1065 114 b 1085 82 1072 96 1078 86 b 1133 76 1091 78 1107 76 l 1206 76 b 1231 72 1219 76 1228 75 b 1236 54 1234 69 1236 63 l 1236 33 b 1228 6 1236 19 1234 10 b 1206 -1 1223 1 1216 -1 b 1186 -1 1202 -1 1195 -1 b 1164 0 1177 0 1169 0 l 811 0 b 784 8 797 0 788 3 b 778 47 780 14 778 27 b 783 72 778 59 780 67 b 803 78 787 76 794 78 b 818 77 806 78 811 78 b 836 76 825 77 831 76 l 874 76 b 919 93 904 76 919 82 b 907 136 919 97 915 111 l 861 258 b 857 270 860 261 859 265 b 853 281 855 275 854 279 b 850 290 853 284 852 286 b 844 297 848 293 846 295 b 837 301 843 298 840 300 b 825 305 834 303 830 304 b 808 306 820 305 815 306 l 431 306 b 372 299 399 306 379 303 b 346 261 364 295 355 282 l 289 128 b 275 89 280 106 275 94 b 286 78 275 83 279 80 b 336 76 294 77 310 76 l 397 76 b 423 72 409 76 418 75 b 431 50 428 68 431 61 l 431 25 b 424 5 431 15 428 8 b 394 0 420 2 410 0 l 72 0 b 47 3 58 0 50 1 b 42 21 43 6 42 12 l 42 42 b 46 70 42 56 43 66 b 65 76 49 74 55 76 l 117 76 b 170 84 143 76 160 79 b 199 122 180 89 189 102 l 579 1003 b 585 1019 581 1006 583 1012 b 591 1035 588 1027 590 1032 b 598 1046 592 1038 595 1041 b 608 1056 601 1050 605 1054 b 624 1060 612 1057 617 1059 b 647 1063 630 1062 638 1063 b 673 1060 657 1063 666 1062 b 690 1051 680 1059 685 1056 b 698 1040 694 1047 697 1043 b 704 1022 699 1038 701 1031 b 711 1003 707 1013 709 1006 "},"":{"ha":1278,"x_min":0,"x_max":0,"o":"m 507 1297 b 410 1258 460 1297 427 1284 b 398 1222 404 1251 400 1239 b 385 1181 396 1204 391 1191 b 347 1167 378 1172 366 1167 b 307 1192 320 1167 307 1175 l 314 1231 b 385 1356 324 1286 348 1328 b 515 1399 422 1384 465 1399 b 613 1378 552 1399 585 1392 b 674 1333 640 1365 661 1350 b 724 1288 688 1317 704 1302 b 788 1268 743 1275 764 1268 b 901 1347 851 1268 889 1294 b 904 1369 902 1353 903 1360 b 908 1388 905 1379 906 1385 b 918 1395 909 1390 913 1393 b 944 1399 924 1397 932 1399 b 986 1365 972 1399 986 1388 b 972 1306 986 1358 981 1338 b 898 1202 957 1260 933 1226 b 779 1167 863 1178 824 1167 b 669 1187 737 1167 700 1173 b 604 1232 639 1200 617 1215 b 560 1277 591 1249 576 1264 b 507 1297 543 1291 525 1297 m 429 458 b 407 400 414 424 407 405 b 423 385 407 393 412 388 b 483 382 434 383 454 382 l 747 382 b 770 381 754 382 761 382 b 788 381 779 381 785 381 b 808 393 801 381 808 385 b 803 414 808 399 806 406 l 644 836 b 614 885 631 869 621 885 b 603 873 610 885 606 881 b 589 836 599 865 594 853 b 574 794 583 819 578 806 m 1065 114 b 1085 82 1072 96 1078 86 b 1133 76 1091 78 1107 76 l 1206 76 b 1231 72 1219 76 1228 75 b 1236 54 1234 69 1236 63 l 1236 33 b 1228 6 1236 19 1234 10 b 1206 -1 1223 1 1216 -1 b 1186 -1 1202 -1 1195 -1 b 1164 0 1177 0 1169 0 l 811 0 b 784 8 797 0 788 3 b 778 47 780 14 778 27 b 783 72 778 59 780 67 b 803 78 787 76 794 78 b 818 77 806 78 811 78 b 836 76 825 77 831 76 l 874 76 b 919 93 904 76 919 82 b 907 136 919 97 915 111 l 861 258 b 857 270 860 261 859 265 b 853 281 855 275 854 279 b 850 290 853 284 852 286 b 844 297 848 293 846 295 b 837 301 843 298 840 300 b 825 305 834 303 830 304 b 808 306 820 305 815 306 l 431 306 b 372 299 399 306 379 303 b 346 261 364 295 355 282 l 289 128 b 275 89 280 106 275 94 b 286 78 275 83 279 80 b 336 76 294 77 310 76 l 397 76 b 423 72 409 76 418 75 b 431 50 428 68 431 61 l 431 25 b 424 5 431 15 428 8 b 394 0 420 2 410 0 l 72 0 b 47 3 58 0 50 1 b 42 21 43 6 42 12 l 42 42 b 46 70 42 56 43 66 b 65 76 49 74 55 76 l 117 76 b 170 84 143 76 160 79 b 199 122 180 89 189 102 l 579 1003 b 585 1019 581 1006 583 1012 b 591 1035 588 1027 590 1032 b 598 1046 592 1038 595 1041 b 608 1056 601 1050 605 1054 b 624 1060 612 1057 617 1059 b 647 1063 630 1062 638 1063 b 673 1060 657 1063 666 1062 b 690 1051 680 1059 685 1056 b 698 1040 694 1047 697 1043 b 704 1022 699 1038 701 1031 b 711 1003 707 1013 709 1006 "},"":{"ha":1278,"x_min":0,"x_max":0,"o":"m 703 1222 b 727 1281 703 1245 711 1265 b 786 1306 743 1297 763 1306 b 845 1281 809 1306 829 1297 b 869 1222 861 1265 869 1245 b 845 1163 869 1199 861 1179 b 786 1139 829 1147 809 1139 b 727 1163 763 1139 743 1147 b 703 1222 711 1179 703 1199 m 425 1222 b 449 1281 425 1245 433 1265 b 508 1306 466 1297 485 1306 b 567 1281 531 1306 551 1297 b 592 1222 584 1265 592 1245 b 567 1163 592 1199 584 1179 b 508 1139 551 1147 531 1139 b 449 1163 485 1139 466 1147 b 425 1222 433 1179 425 1199 m 429 458 b 407 400 414 424 407 405 b 423 385 407 393 412 388 b 483 382 434 383 454 382 l 747 382 b 770 381 754 382 761 382 b 788 381 779 381 785 381 b 808 393 801 381 808 385 b 803 414 808 399 806 406 l 644 836 b 614 885 631 869 621 885 b 603 873 610 885 606 881 b 589 836 599 865 594 853 b 574 794 583 819 578 806 m 1065 114 b 1085 82 1072 96 1078 86 b 1133 76 1091 78 1107 76 l 1206 76 b 1231 72 1219 76 1228 75 b 1236 54 1234 69 1236 63 l 1236 33 b 1228 6 1236 19 1234 10 b 1206 -1 1223 1 1216 -1 b 1186 -1 1202 -1 1195 -1 b 1164 0 1177 0 1169 0 l 811 0 b 784 8 797 0 788 3 b 778 47 780 14 778 27 b 783 72 778 59 780 67 b 803 78 787 76 794 78 b 818 77 806 78 811 78 b 836 76 825 77 831 76 l 874 76 b 919 93 904 76 919 82 b 907 136 919 97 915 111 l 861 258 b 857 270 860 261 859 265 b 853 281 855 275 854 279 b 850 290 853 284 852 286 b 844 297 848 293 846 295 b 837 301 843 298 840 300 b 825 305 834 303 830 304 b 808 306 820 305 815 306 l 431 306 b 372 299 399 306 379 303 b 346 261 364 295 355 282 l 289 128 b 275 89 280 106 275 94 b 286 78 275 83 279 80 b 336 76 294 77 310 76 l 397 76 b 423 72 409 76 418 75 b 431 50 428 68 431 61 l 431 25 b 424 5 431 15 428 8 b 394 0 420 2 410 0 l 72 0 b 47 3 58 0 50 1 b 42 21 43 6 42 12 l 42 42 b 46 70 42 56 43 66 b 65 76 49 74 55 76 l 117 76 b 170 84 143 76 160 79 b 199 122 180 89 189 102 l 579 1003 b 585 1019 581 1006 583 1012 b 591 1035 588 1027 590 1032 b 598 1046 592 1038 595 1041 b 608 1056 601 1050 605 1054 b 624 1060 612 1057 617 1059 b 647 1063 630 1062 638 1063 b 673 1060 657 1063 666 1062 b 690 1051 680 1059 685 1056 b 698 1040 694 1047 697 1043 b 704 1022 699 1038 701 1031 b 711 1003 707 1013 709 1006 "},"":{"ha":1278,"x_min":0,"x_max":0,"o":"m 557 1211 b 583 1147 557 1185 566 1164 b 647 1121 600 1129 621 1121 b 712 1147 673 1121 695 1129 b 738 1211 729 1164 738 1185 b 712 1276 738 1237 729 1259 b 647 1301 695 1293 673 1301 b 583 1276 621 1301 600 1293 b 557 1211 566 1259 557 1237 m 481 1211 b 529 1329 481 1257 497 1297 b 647 1378 562 1362 601 1378 b 765 1329 694 1378 733 1362 b 814 1211 798 1297 814 1257 b 779 1110 814 1173 802 1139 b 690 1050 756 1080 726 1060 b 711 1003 692 1048 699 1032 l 1065 114 b 1085 82 1072 96 1078 86 b 1133 76 1091 78 1107 76 l 1206 76 b 1231 72 1219 76 1228 75 b 1236 54 1234 69 1236 63 l 1236 33 b 1228 6 1236 19 1234 10 b 1206 -1 1223 1 1216 -1 b 1186 -1 1202 -1 1195 -1 b 1164 0 1177 0 1169 0 l 811 0 b 784 8 797 0 788 3 b 778 47 780 14 778 27 b 783 72 778 59 780 67 b 803 78 787 76 794 78 b 818 77 806 78 811 78 b 836 76 825 77 831 76 l 874 76 b 919 93 904 76 919 82 b 907 136 919 97 915 111 l 861 258 b 857 270 860 261 859 265 b 853 281 855 275 854 279 b 850 290 853 284 852 286 b 844 297 848 293 846 295 b 837 301 843 298 840 300 b 825 305 834 303 830 304 b 808 306 820 305 815 306 l 431 306 b 372 299 399 306 379 303 b 346 261 364 295 355 282 l 289 128 b 275 89 280 106 275 94 b 286 78 275 83 279 80 b 336 76 294 77 310 76 l 397 76 b 423 72 409 76 418 75 b 431 50 428 68 431 61 l 431 25 b 424 5 431 15 428 8 b 394 0 420 2 410 0 l 72 0 b 47 3 58 0 50 1 b 42 21 43 6 42 12 l 42 42 b 46 70 42 56 43 66 b 65 76 49 74 55 76 l 117 76 b 170 84 143 76 160 79 b 199 122 180 89 189 102 l 579 1003 b 603 1050 590 1030 598 1045 b 515 1110 568 1060 538 1080 b 481 1211 492 1139 481 1173 m 429 458 b 407 400 414 424 407 405 b 423 385 407 393 412 388 b 483 382 434 383 454 382 l 747 382 b 770 381 754 382 761 382 b 788 381 779 381 785 381 b 808 393 801 381 808 385 b 803 414 808 399 806 406 l 644 836 b 614 885 631 869 621 885 b 603 873 610 885 606 881 b 589 836 599 865 594 853 b 574 794 583 819 578 806 "},"":{"ha":1663,"x_min":0,"x_max":0,"o":"m 771 965 b 747 965 764 965 756 965 b 728 964 738 964 731 964 b 702 972 716 964 707 967 b 694 1007 697 978 694 989 b 701 1036 694 1022 697 1031 b 722 1043 705 1041 712 1043 b 739 1042 725 1043 731 1043 b 760 1042 747 1042 754 1042 l 1515 1042 b 1578 1032 1549 1042 1569 1038 b 1590 988 1586 1025 1590 1011 l 1590 782 b 1591 763 1590 777 1591 771 b 1592 744 1591 754 1592 748 b 1585 722 1592 734 1590 727 b 1560 715 1581 718 1573 715 b 1538 717 1550 715 1543 716 b 1526 724 1532 718 1528 720 b 1521 735 1523 728 1522 732 b 1519 752 1520 738 1519 743 l 1519 774 b 1467 924 1515 846 1497 896 b 1313 965 1436 951 1385 965 l 1043 965 b 988 958 1012 965 993 963 b 979 907 982 953 979 936 l 979 625 b 988 574 979 596 982 579 b 1043 567 993 569 1012 567 l 1097 567 b 1261 690 1194 567 1249 608 b 1263 701 1261 693 1262 697 b 1264 711 1263 706 1264 709 b 1265 717 1264 713 1264 715 b 1268 722 1266 720 1267 721 l 1274 724 b 1283 726 1276 726 1279 726 l 1296 726 b 1329 690 1318 726 1329 714 b 1328 666 1329 686 1329 678 b 1326 640 1327 654 1326 646 l 1326 369 b 1321 349 1326 359 1325 353 b 1293 344 1317 346 1308 344 b 1265 358 1280 344 1271 349 b 1254 397 1260 368 1256 381 b 1246 432 1252 414 1250 425 b 1097 511 1219 485 1169 511 l 1021 511 b 985 506 1000 511 988 509 b 979 468 981 502 979 489 l 979 132 b 986 85 979 107 981 91 b 1021 76 991 79 1002 76 l 1299 76 b 1480 124 1384 76 1444 92 b 1533 299 1516 156 1533 214 l 1533 325 b 1540 347 1533 335 1535 343 b 1565 354 1544 352 1552 354 b 1599 349 1584 354 1595 353 b 1604 319 1602 346 1604 336 l 1604 43 b 1596 6 1604 23 1601 10 b 1549 0 1590 2 1575 0 l 653 0 l 653 76 l 713 76 b 735 79 716 78 724 79 b 762 78 740 79 749 79 b 790 76 774 77 784 76 b 838 84 815 76 831 79 b 847 118 844 89 847 100 l 847 306 l 417 306 l 260 76 l 389 76 l 389 0 l 0 0 l 0 76 l 157 76 l 775 965 l 771 965 m 847 382 l 847 894 b 846 929 847 911 847 923 l 469 382 "},"":{"ha":1090,"x_min":0,"x_max":0,"o":"m 453 -336 b 576 -314 506 -336 547 -329 b 621 -267 606 -299 621 -283 b 444 -197 621 -226 562 -203 b 392 -189 409 -196 392 -194 b 410 -161 392 -187 398 -178 l 528 -11 b 202 156 394 2 286 58 b 76 521 118 255 76 376 b 233 902 76 673 128 800 b 604 1056 337 1004 461 1056 b 896 942 718 1056 815 1018 b 928 918 913 926 924 918 b 931 919 929 918 930 918 b 933 922 931 919 932 920 l 936 928 b 939 935 937 930 938 932 b 942 944 940 939 941 942 b 946 956 943 947 944 951 b 950 971 948 961 949 966 b 956 997 952 975 954 984 b 963 1025 959 1010 961 1019 b 978 1041 966 1031 970 1036 b 1007 1049 985 1046 995 1049 b 1031 1045 1021 1049 1029 1047 b 1035 1021 1034 1043 1035 1035 l 1035 735 b 1029 694 1035 712 1033 698 b 992 688 1025 690 1013 688 l 985 688 b 958 697 972 688 963 691 b 949 728 954 704 950 714 b 942 760 947 743 944 753 b 818 913 919 821 877 872 b 611 975 759 954 690 975 b 336 847 494 975 403 932 b 236 521 269 761 236 652 b 330 195 236 388 267 280 b 597 68 392 110 481 68 b 844 156 696 68 778 97 b 967 368 909 214 950 285 b 968 379 967 371 967 375 b 970 388 969 384 970 387 b 972 394 971 388 971 391 b 974 399 972 397 973 399 b 976 403 975 400 975 401 b 981 406 977 405 979 406 b 986 408 982 407 984 407 b 994 410 988 409 991 410 l 1003 410 l 1015 410 b 1049 393 1038 410 1049 404 b 1047 380 1049 390 1048 386 b 1044 365 1045 374 1044 369 b 911 102 1030 259 985 171 b 624 -12 837 33 741 -5 l 549 -107 b 529 -137 536 -125 529 -135 b 531 -142 529 -139 530 -141 b 539 -146 533 -144 535 -145 l 550 -149 b 567 -152 554 -150 559 -151 b 586 -156 574 -153 581 -155 b 706 -253 666 -175 706 -207 b 647 -351 706 -291 686 -323 b 457 -393 608 -378 545 -392 b 442 -394 453 -393 448 -393 b 428 -394 435 -394 431 -394 b 408 -389 419 -394 412 -393 b 401 -365 403 -385 401 -377 b 421 -333 401 -344 408 -333 b 435 -335 424 -333 428 -334 b 453 -336 441 -336 447 -336 "},"":{"ha":1007,"x_min":0,"x_max":0,"o":"m 303 1153 b 269 1168 290 1154 278 1159 b 254 1201 259 1177 254 1188 b 267 1234 254 1213 258 1224 b 301 1249 275 1244 287 1249 b 317 1247 308 1249 313 1248 l 614 1175 b 628 1173 616 1175 621 1174 b 644 1168 636 1172 641 1170 b 647 1158 646 1166 647 1163 b 642 1142 647 1149 645 1144 b 619 1140 638 1140 631 1139 l 303 1153 m 132 965 b 108 965 125 965 118 965 b 89 964 99 964 93 964 b 63 972 77 964 68 967 b 56 1007 58 978 56 989 b 62 1036 56 1022 58 1031 b 83 1043 66 1041 73 1043 b 100 1042 86 1043 92 1043 b 121 1042 108 1042 115 1042 l 876 1042 b 939 1032 910 1042 931 1038 b 951 988 947 1025 951 1011 l 951 782 b 952 763 951 777 952 771 b 953 744 953 754 953 748 b 947 722 953 734 951 727 b 921 715 942 718 934 715 b 899 717 912 715 904 716 b 887 724 893 718 889 720 b 882 735 884 728 883 732 b 881 752 881 738 881 743 l 881 774 b 828 924 876 846 858 896 b 674 965 797 951 746 965 l 404 965 b 349 958 373 965 354 963 b 340 907 343 953 340 936 l 340 625 b 349 574 340 596 343 579 b 404 567 354 569 373 567 l 458 567 b 622 690 556 567 610 608 b 624 701 622 693 623 697 b 625 711 625 706 625 709 b 626 717 625 713 625 715 b 629 722 627 720 628 721 l 635 724 b 644 726 638 726 641 726 l 657 726 b 690 690 679 726 690 714 b 689 666 690 686 690 678 b 688 640 688 654 688 646 l 688 369 b 682 349 688 359 686 353 b 654 344 678 346 669 344 b 626 358 641 344 632 349 b 615 397 621 368 617 381 b 607 432 613 414 611 425 b 458 511 580 485 531 511 l 382 511 b 346 506 362 511 350 509 b 340 468 342 502 340 489 l 340 132 b 347 85 340 107 343 91 b 382 76 352 79 363 76 l 660 76 b 841 124 745 76 805 92 b 894 299 877 156 894 214 l 894 325 b 901 347 894 335 897 343 b 926 354 905 352 913 354 b 960 349 945 354 956 353 b 965 319 963 346 965 336 l 965 43 b 957 6 965 23 963 10 b 910 0 951 2 936 0 l 86 0 b 61 8 73 0 65 3 b 56 43 57 13 56 25 b 96 79 56 67 69 79 b 123 78 101 79 110 79 b 151 76 135 77 145 76 b 199 84 176 76 192 79 b 208 118 205 89 208 100 l 208 894 b 198 956 208 930 205 950 b 132 965 191 962 169 965 "},"":{"ha":1007,"x_min":0,"x_max":0,"o":"m 378 1139 b 360 1158 366 1139 360 1145 b 365 1169 360 1163 361 1166 b 382 1174 368 1171 374 1173 b 400 1176 390 1175 396 1175 l 690 1247 b 706 1249 694 1248 699 1249 b 740 1234 720 1249 732 1244 b 753 1201 749 1224 753 1213 b 738 1168 753 1188 748 1177 b 704 1153 728 1159 717 1154 l 400 1140 b 388 1140 397 1140 393 1140 b 378 1139 383 1139 380 1139 m 132 965 b 108 965 125 965 118 965 b 89 964 99 964 93 964 b 63 972 77 964 68 967 b 56 1007 58 978 56 989 b 62 1036 56 1022 58 1031 b 83 1043 66 1041 73 1043 b 100 1042 86 1043 92 1043 b 121 1042 108 1042 115 1042 l 876 1042 b 939 1032 910 1042 931 1038 b 951 988 947 1025 951 1011 l 951 782 b 952 763 951 777 952 771 b 953 744 953 754 953 748 b 947 722 953 734 951 727 b 921 715 942 718 934 715 b 899 717 912 715 904 716 b 887 724 893 718 889 720 b 882 735 884 728 883 732 b 881 752 881 738 881 743 l 881 774 b 828 924 876 846 858 896 b 674 965 797 951 746 965 l 404 965 b 349 958 373 965 354 963 b 340 907 343 953 340 936 l 340 625 b 349 574 340 596 343 579 b 404 567 354 569 373 567 l 458 567 b 622 690 556 567 610 608 b 624 701 622 693 623 697 b 625 711 625 706 625 709 b 626 717 625 713 625 715 b 629 722 627 720 628 721 l 635 724 b 644 726 638 726 641 726 l 657 726 b 690 690 679 726 690 714 b 689 666 690 686 690 678 b 688 640 688 654 688 646 l 688 369 b 682 349 688 359 686 353 b 654 344 678 346 669 344 b 626 358 641 344 632 349 b 615 397 621 368 617 381 b 607 432 613 414 611 425 b 458 511 580 485 531 511 l 382 511 b 346 506 362 511 350 509 b 340 468 342 502 340 489 l 340 132 b 347 85 340 107 343 91 b 382 76 352 79 363 76 l 660 76 b 841 124 745 76 805 92 b 894 299 877 156 894 214 l 894 325 b 901 347 894 335 897 343 b 926 354 905 352 913 354 b 960 349 945 354 956 353 b 965 319 963 346 965 336 l 965 43 b 957 6 965 23 963 10 b 910 0 951 2 936 0 l 86 0 b 61 8 73 0 65 3 b 56 43 57 13 56 25 b 96 79 56 67 69 79 b 123 78 101 79 110 79 b 151 76 135 77 145 76 b 199 84 176 76 192 79 b 208 118 205 89 208 100 l 208 894 b 198 956 208 930 205 950 b 132 965 191 962 169 965 "},"":{"ha":1007,"x_min":0,"x_max":0,"o":"m 806 1185 b 792 1168 806 1179 801 1174 b 767 1160 782 1163 774 1160 b 747 1165 759 1160 753 1162 b 723 1185 741 1169 733 1175 b 703 1203 713 1194 706 1200 l 550 1329 b 504 1358 528 1349 513 1358 b 461 1333 496 1358 481 1350 l 289 1190 b 242 1160 266 1170 250 1160 b 217 1167 236 1160 228 1162 b 200 1183 206 1172 200 1178 b 204 1192 200 1186 201 1189 b 217 1204 207 1196 211 1200 b 228 1214 222 1209 226 1212 l 422 1408 l 431 1417 l 440 1426 b 447 1432 441 1427 443 1429 b 456 1438 450 1435 453 1437 b 467 1441 458 1438 462 1440 b 481 1444 471 1442 476 1443 b 500 1444 486 1444 493 1444 b 530 1443 512 1444 522 1444 b 553 1435 538 1442 545 1440 b 567 1426 560 1431 565 1428 b 583 1411 570 1425 575 1419 b 597 1396 591 1403 595 1398 l 767 1226 b 783 1213 769 1224 775 1219 b 800 1197 791 1207 796 1202 b 806 1185 804 1193 806 1188 m 132 965 b 108 965 125 965 118 965 b 89 964 99 964 93 964 b 63 972 77 964 68 967 b 56 1007 58 978 56 989 b 62 1036 56 1022 58 1031 b 83 1043 66 1041 73 1043 b 100 1042 86 1043 92 1043 b 121 1042 108 1042 115 1042 l 876 1042 b 939 1032 910 1042 931 1038 b 951 988 947 1025 951 1011 l 951 782 b 952 763 951 777 952 771 b 953 744 953 754 953 748 b 947 722 953 734 951 727 b 921 715 942 718 934 715 b 899 717 912 715 904 716 b 887 724 893 718 889 720 b 882 735 884 728 883 732 b 881 752 881 738 881 743 l 881 774 b 828 924 876 846 858 896 b 674 965 797 951 746 965 l 404 965 b 349 958 373 965 354 963 b 340 907 343 953 340 936 l 340 625 b 349 574 340 596 343 579 b 404 567 354 569 373 567 l 458 567 b 622 690 556 567 610 608 b 624 701 622 693 623 697 b 625 711 625 706 625 709 b 626 717 625 713 625 715 b 629 722 627 720 628 721 l 635 724 b 644 726 638 726 641 726 l 657 726 b 690 690 679 726 690 714 b 689 666 690 686 690 678 b 688 640 688 654 688 646 l 688 369 b 682 349 688 359 686 353 b 654 344 678 346 669 344 b 626 358 641 344 632 349 b 615 397 621 368 617 381 b 607 432 613 414 611 425 b 458 511 580 485 531 511 l 382 511 b 346 506 362 511 350 509 b 340 468 342 502 340 489 l 340 132 b 347 85 340 107 343 91 b 382 76 352 79 363 76 l 660 76 b 841 124 745 76 805 92 b 894 299 877 156 894 214 l 894 325 b 901 347 894 335 897 343 b 926 354 905 352 913 354 b 960 349 945 354 956 353 b 965 319 963 346 965 336 l 965 43 b 957 6 965 23 963 10 b 910 0 951 2 936 0 l 86 0 b 61 8 73 0 65 3 b 56 43 57 13 56 25 b 96 79 56 67 69 79 b 123 78 101 79 110 79 b 151 76 135 77 145 76 b 199 84 176 76 192 79 b 208 118 205 89 208 100 l 208 894 b 198 956 208 930 205 950 b 132 965 191 962 169 965 "},"":{"ha":1007,"x_min":0,"x_max":0,"o":"m 558 1222 b 583 1281 558 1245 566 1265 b 642 1306 599 1297 619 1306 b 701 1281 665 1306 684 1297 b 725 1222 717 1265 725 1245 b 701 1163 725 1199 717 1179 b 642 1139 684 1147 665 1139 b 583 1163 619 1139 599 1147 b 558 1222 566 1179 558 1199 m 281 1222 b 305 1281 281 1245 289 1265 b 364 1306 321 1297 341 1306 b 423 1281 387 1306 407 1297 b 447 1222 439 1265 447 1245 b 423 1163 447 1199 439 1179 b 364 1139 407 1147 387 1139 b 305 1163 341 1139 321 1147 b 281 1222 289 1179 281 1199 m 132 965 b 108 965 125 965 118 965 b 89 964 99 964 93 964 b 63 972 77 964 68 967 b 56 1007 58 978 56 989 b 62 1036 56 1022 58 1031 b 83 1043 66 1041 73 1043 b 100 1042 86 1043 92 1043 b 121 1042 108 1042 115 1042 l 876 1042 b 939 1032 910 1042 931 1038 b 951 988 947 1025 951 1011 l 951 782 b 952 763 951 777 952 771 b 953 744 953 754 953 748 b 947 722 953 734 951 727 b 921 715 942 718 934 715 b 899 717 912 715 904 716 b 887 724 893 718 889 720 b 882 735 884 728 883 732 b 881 752 881 738 881 743 l 881 774 b 828 924 876 846 858 896 b 674 965 797 951 746 965 l 404 965 b 349 958 373 965 354 963 b 340 907 343 953 340 936 l 340 625 b 349 574 340 596 343 579 b 404 567 354 569 373 567 l 458 567 b 622 690 556 567 610 608 b 624 701 622 693 623 697 b 625 711 625 706 625 709 b 626 717 625 713 625 715 b 629 722 627 720 628 721 l 635 724 b 644 726 638 726 641 726 l 657 726 b 690 690 679 726 690 714 b 689 666 690 686 690 678 b 688 640 688 654 688 646 l 688 369 b 682 349 688 359 686 353 b 654 344 678 346 669 344 b 626 358 641 344 632 349 b 615 397 621 368 617 381 b 607 432 613 414 611 425 b 458 511 580 485 531 511 l 382 511 b 346 506 362 511 350 509 b 340 468 342 502 340 489 l 340 132 b 347 85 340 107 343 91 b 382 76 352 79 363 76 l 660 76 b 841 124 745 76 805 92 b 894 299 877 156 894 214 l 894 325 b 901 347 894 335 897 343 b 926 354 905 352 913 354 b 960 349 945 354 956 353 b 965 319 963 346 965 336 l 965 43 b 957 6 965 23 963 10 b 910 0 951 2 936 0 l 86 0 b 61 8 73 0 65 3 b 56 43 57 13 56 25 b 96 79 56 67 69 79 b 123 78 101 79 110 79 b 151 76 135 77 145 76 b 199 84 176 76 192 79 b 208 118 205 89 208 100 l 208 894 b 198 956 208 930 205 950 b 132 965 191 962 169 965 "},"":{"ha":563,"x_min":0,"x_max":0,"o":"m 81 1153 b 47 1168 68 1154 56 1159 b 32 1201 37 1177 32 1188 b 44 1234 32 1213 36 1224 b 79 1249 53 1244 64 1249 b 94 1247 86 1249 91 1248 l 392 1175 b 406 1173 394 1175 398 1174 b 422 1168 414 1172 419 1170 b 425 1158 424 1166 425 1163 b 419 1142 425 1149 423 1144 b 397 1140 416 1140 408 1139 l 81 1153 m 340 176 b 339 145 340 168 340 158 b 338 119 338 133 338 124 b 348 87 338 105 341 94 b 389 76 355 80 369 76 l 469 76 b 501 69 487 76 498 74 b 507 29 505 65 507 51 b 479 -1 507 9 498 -1 b 462 -1 476 -1 471 -1 b 442 0 453 0 446 0 l 178 0 b 147 -1 173 0 163 0 b 110 -3 130 -2 118 -3 b 56 24 74 -3 56 6 b 55 40 56 28 55 34 b 54 53 54 46 54 50 b 60 71 54 61 56 67 b 83 76 63 75 71 76 l 156 76 b 201 83 181 76 197 78 b 208 129 206 87 208 102 l 208 910 b 197 956 208 933 205 948 b 161 968 190 964 178 968 b 134 967 156 968 147 968 b 100 965 121 966 109 965 l 93 965 b 60 971 75 965 64 967 b 56 1007 57 975 56 987 b 62 1036 56 1022 58 1031 b 83 1043 66 1041 73 1043 b 97 1042 85 1043 90 1043 b 117 1042 105 1042 111 1042 l 471 1042 b 501 1035 488 1042 498 1039 b 507 999 505 1030 507 1018 l 507 986 b 503 968 507 976 506 970 b 478 965 500 966 492 965 l 414 965 b 392 967 408 965 401 966 b 372 968 382 968 376 968 b 340 938 351 968 340 958 "},"":{"ha":563,"x_min":0,"x_max":0,"o":"m 156 1139 b 138 1158 144 1139 138 1145 b 142 1169 138 1163 139 1166 b 160 1174 146 1171 151 1173 b 178 1176 168 1175 174 1175 l 468 1247 b 483 1249 472 1248 477 1249 b 518 1234 498 1249 510 1244 b 531 1201 526 1224 531 1213 b 516 1168 531 1188 526 1177 b 482 1153 506 1159 495 1154 l 178 1140 b 166 1140 175 1140 171 1140 b 156 1139 161 1139 157 1139 m 340 176 b 339 145 340 168 340 158 b 338 119 338 133 338 124 b 348 87 338 105 341 94 b 389 76 355 80 369 76 l 469 76 b 501 69 487 76 498 74 b 507 29 505 65 507 51 b 479 -1 507 9 498 -1 b 462 -1 476 -1 471 -1 b 442 0 453 0 446 0 l 178 0 b 147 -1 173 0 163 0 b 110 -3 130 -2 118 -3 b 56 24 74 -3 56 6 b 55 40 56 28 55 34 b 54 53 54 46 54 50 b 60 71 54 61 56 67 b 83 76 63 75 71 76 l 156 76 b 201 83 181 76 197 78 b 208 129 206 87 208 102 l 208 910 b 197 956 208 933 205 948 b 161 968 190 964 178 968 b 134 967 156 968 147 968 b 100 965 121 966 109 965 l 93 965 b 60 971 75 965 64 967 b 56 1007 57 975 56 987 b 62 1036 56 1022 58 1031 b 83 1043 66 1041 73 1043 b 97 1042 85 1043 90 1043 b 117 1042 105 1042 111 1042 l 471 1042 b 501 1035 488 1042 498 1039 b 507 999 505 1030 507 1018 l 507 986 b 503 968 507 976 506 970 b 478 965 500 966 492 965 l 414 965 b 392 967 408 965 401 966 b 372 968 382 968 376 968 b 340 938 351 968 340 958 "},"":{"ha":563,"x_min":0,"x_max":0,"o":"m 583 1185 b 569 1168 583 1179 579 1174 b 544 1160 560 1163 552 1160 b 524 1165 537 1160 530 1162 b 501 1185 518 1169 510 1175 b 481 1203 491 1194 484 1200 l 328 1329 b 282 1358 306 1349 290 1358 b 239 1333 274 1358 259 1350 l 67 1190 b 19 1160 44 1170 28 1160 b -6 1167 14 1160 6 1162 b -22 1183 -17 1172 -22 1178 b -18 1192 -22 1186 -21 1189 b -6 1204 -15 1196 -11 1200 b 6 1214 0 1209 4 1212 l 200 1408 l 209 1417 l 217 1426 b 224 1432 219 1427 221 1429 b 233 1438 228 1435 231 1437 b 244 1441 236 1438 240 1440 b 259 1444 249 1442 254 1443 b 278 1444 264 1444 270 1444 b 308 1443 290 1444 300 1444 b 331 1435 316 1442 323 1440 b 345 1426 338 1431 343 1428 b 360 1411 347 1425 353 1419 b 375 1396 368 1403 373 1398 l 544 1226 b 560 1213 547 1224 553 1219 b 578 1197 568 1207 574 1202 b 583 1185 581 1193 583 1188 m 340 176 b 339 145 340 168 340 158 b 338 119 338 133 338 124 b 348 87 338 105 341 94 b 389 76 355 80 369 76 l 469 76 b 501 69 487 76 498 74 b 507 29 505 65 507 51 b 479 -1 507 9 498 -1 b 462 -1 476 -1 471 -1 b 442 0 453 0 446 0 l 178 0 b 147 -1 173 0 163 0 b 110 -3 130 -2 118 -3 b 56 24 74 -3 56 6 b 55 40 56 28 55 34 b 54 53 54 46 54 50 b 60 71 54 61 56 67 b 83 76 63 75 71 76 l 156 76 b 201 83 181 76 197 78 b 208 129 206 87 208 102 l 208 910 b 197 956 208 933 205 948 b 161 968 190 964 178 968 b 134 967 156 968 147 968 b 100 965 121 966 109 965 l 93 965 b 60 971 75 965 64 967 b 56 1007 57 975 56 987 b 62 1036 56 1022 58 1031 b 83 1043 66 1041 73 1043 b 97 1042 85 1043 90 1043 b 117 1042 105 1042 111 1042 l 471 1042 b 501 1035 488 1042 498 1039 b 507 999 505 1030 507 1018 l 507 986 b 503 968 507 976 506 970 b 478 965 500 966 492 965 l 414 965 b 392 967 408 965 401 966 b 372 968 382 968 376 968 b 340 938 351 968 340 958 "},"":{"ha":563,"x_min":0,"x_max":0,"o":"m 336 1222 b 360 1281 336 1245 344 1265 b 419 1306 377 1297 396 1306 b 478 1281 443 1306 462 1297 b 503 1222 495 1265 503 1245 b 478 1163 503 1199 495 1179 b 419 1139 462 1147 443 1139 b 360 1163 396 1139 377 1147 b 336 1222 344 1179 336 1199 m 58 1222 b 83 1281 58 1245 66 1265 b 142 1306 99 1297 119 1306 b 201 1281 165 1306 184 1297 b 225 1222 217 1265 225 1245 b 201 1163 225 1199 217 1179 b 142 1139 184 1147 165 1139 b 83 1163 119 1139 99 1147 b 58 1222 66 1179 58 1199 m 340 176 b 339 145 340 168 340 158 b 338 119 338 133 338 124 b 348 87 338 105 341 94 b 389 76 355 80 369 76 l 469 76 b 501 69 487 76 498 74 b 507 29 505 65 507 51 b 479 -1 507 9 498 -1 b 462 -1 476 -1 471 -1 b 442 0 453 0 446 0 l 178 0 b 147 -1 173 0 163 0 b 110 -3 130 -2 118 -3 b 56 24 74 -3 56 6 b 55 40 56 28 55 34 b 54 53 54 46 54 50 b 60 71 54 61 56 67 b 83 76 63 75 71 76 l 156 76 b 201 83 181 76 197 78 b 208 129 206 87 208 102 l 208 910 b 197 956 208 933 205 948 b 161 968 190 964 178 968 b 134 967 156 968 147 968 b 100 965 121 966 109 965 l 93 965 b 60 971 75 965 64 967 b 56 1007 57 975 56 987 b 62 1036 56 1022 58 1031 b 83 1043 66 1041 73 1043 b 97 1042 85 1043 90 1043 b 117 1042 105 1042 111 1042 l 471 1042 b 501 1035 488 1042 498 1039 b 507 999 505 1030 507 1018 l 507 986 b 503 968 507 976 506 970 b 478 965 500 966 492 965 l 414 965 b 392 967 408 965 401 966 b 372 968 382 968 376 968 b 340 938 351 968 340 958 "},"":{"ha":1146,"x_min":0,"x_max":0,"o":"m 115 0 b 97 -1 111 0 105 0 b 82 -1 90 -1 85 -1 b 56 32 64 -1 56 10 l 56 44 b 62 72 56 59 58 68 b 96 76 66 75 77 76 l 160 76 b 200 83 181 76 194 78 b 208 113 206 87 208 97 l 208 500 l 119 500 b 88 506 102 500 91 502 b 83 542 85 509 83 521 b 89 570 83 556 85 566 b 110 576 93 574 100 576 l 208 576 l 208 938 b 204 960 208 950 207 957 b 188 965 201 964 196 965 l 85 965 b 60 971 73 965 65 967 b 54 989 56 975 54 981 b 55 1003 54 992 54 997 b 56 1021 55 1010 56 1016 b 72 1043 56 1036 61 1043 b 82 1042 74 1043 77 1043 b 93 1042 87 1042 90 1042 l 569 1042 b 933 894 721 1042 843 993 b 1069 521 1024 796 1069 672 b 929 149 1069 372 1023 248 b 569 0 836 50 716 0 m 569 76 b 910 521 796 76 910 225 b 826 844 910 655 882 763 b 569 965 770 925 684 965 l 379 965 b 346 958 361 965 350 963 b 340 918 342 954 340 940 l 340 576 l 519 576 b 539 575 528 576 534 576 b 551 568 544 574 547 572 b 556 550 554 564 556 558 l 556 531 b 547 505 556 517 553 508 b 515 500 541 502 530 500 l 340 500 l 340 126 b 347 84 340 103 342 89 b 381 76 351 79 362 76 "},"":{"ha":1215,"x_min":0,"x_max":0,"o":"m 482 1297 b 385 1258 435 1297 402 1284 b 373 1222 379 1251 375 1239 b 360 1181 371 1204 366 1191 b 322 1167 353 1172 341 1167 b 282 1192 295 1167 282 1175 l 289 1231 b 360 1356 299 1286 323 1328 b 490 1399 397 1384 440 1399 b 588 1378 527 1399 560 1392 b 649 1333 615 1365 636 1350 b 699 1288 663 1317 679 1302 b 763 1268 718 1275 739 1268 b 876 1347 826 1268 864 1294 b 879 1369 877 1353 878 1360 b 883 1388 880 1379 881 1385 b 893 1395 884 1390 888 1393 b 919 1399 899 1397 907 1399 b 961 1365 947 1399 961 1388 b 947 1306 961 1358 956 1338 b 873 1202 932 1260 908 1226 b 754 1167 838 1178 799 1167 b 644 1187 712 1167 675 1173 b 579 1232 614 1200 592 1215 b 535 1277 566 1249 551 1264 b 482 1297 518 1291 500 1297 m 144 965 b 117 964 137 965 128 965 b 94 963 106 963 98 963 b 65 972 81 963 71 966 b 56 1008 59 978 56 990 b 62 1036 56 1022 58 1031 b 83 1043 66 1041 73 1043 b 99 1042 86 1043 91 1043 b 117 1042 106 1042 112 1042 l 278 1042 b 317 1040 294 1042 307 1041 b 346 1028 328 1038 338 1034 b 363 1015 354 1022 360 1018 b 379 993 365 1013 371 1005 b 396 969 388 981 393 973 l 896 314 b 940 268 920 283 935 268 b 951 325 948 268 951 287 l 951 914 b 952 930 951 918 952 923 b 953 943 953 937 953 941 b 947 960 953 951 951 957 b 922 965 944 964 935 965 l 828 965 b 803 972 815 965 807 967 b 799 1006 800 976 799 987 b 803 1035 799 1021 800 1031 b 825 1042 807 1040 814 1042 l 1114 1042 b 1134 1043 1118 1042 1124 1042 b 1156 1044 1144 1044 1151 1044 b 1188 1022 1177 1044 1188 1037 b 1178 975 1188 998 1184 982 b 1144 964 1172 968 1161 964 b 1121 965 1141 964 1133 964 b 1092 965 1109 965 1099 965 l 1085 965 b 1047 958 1063 965 1051 963 b 1042 917 1044 954 1042 940 l 1042 67 b 1043 44 1042 62 1042 55 b 1044 21 1044 34 1044 26 b 1019 -14 1044 -2 1036 -14 b 998 -10 1011 -14 1004 -13 b 985 -4 992 -8 988 -6 b 975 9 983 -2 980 2 b 965 22 970 16 967 20 l 354 817 b 334 846 349 823 342 833 b 315 873 326 859 320 868 b 304 881 311 878 307 881 b 292 803 296 881 292 855 l 292 114 b 297 83 292 98 294 88 b 319 76 301 79 308 76 l 421 76 b 445 69 433 76 441 74 b 451 33 449 64 451 52 b 447 6 451 19 450 9 b 428 0 444 2 438 0 l 107 0 b 63 8 82 0 67 3 b 56 56 58 13 56 29 b 71 78 56 70 61 78 b 81 77 73 78 76 78 b 92 76 85 77 89 76 l 150 76 b 193 83 172 76 187 79 b 203 113 200 88 203 98 b 202 129 203 115 203 121 b 201 150 202 138 201 144 l 201 925 b 192 958 201 942 198 953 b 144 965 185 963 169 965 "},"":{"ha":1153,"x_min":0,"x_max":0,"o":"m 375 1153 b 341 1168 362 1154 351 1159 b 326 1201 331 1177 326 1188 b 339 1234 326 1213 331 1224 b 374 1249 347 1244 359 1249 b 389 1247 380 1249 385 1248 l 686 1175 b 701 1173 688 1175 693 1174 b 716 1168 709 1172 714 1170 b 719 1158 718 1166 719 1163 b 714 1142 719 1149 718 1144 b 692 1140 710 1140 703 1139 l 375 1153 m 76 521 b 213 902 76 673 122 800 b 576 1056 304 1004 425 1056 b 940 902 727 1056 848 1004 b 1076 521 1031 800 1076 673 b 935 141 1076 371 1029 244 b 576 -14 841 38 722 -14 b 213 140 425 -14 304 37 b 76 521 122 242 76 369 m 236 521 b 321 186 236 385 264 273 b 576 56 377 99 463 56 b 737 92 638 56 692 68 b 842 194 782 116 817 150 b 899 341 868 238 887 287 b 917 521 911 395 917 455 b 832 856 917 657 888 769 b 576 986 775 943 690 986 b 321 856 463 986 377 943 b 236 521 264 769 236 657 "},"":{"ha":1153,"x_min":0,"x_max":0,"o":"m 451 1139 b 433 1158 439 1139 433 1145 b 438 1169 433 1163 435 1166 b 456 1174 441 1171 447 1173 b 474 1176 464 1175 470 1175 l 764 1247 b 779 1249 768 1248 773 1249 b 814 1234 794 1249 806 1244 b 826 1201 822 1224 826 1213 b 812 1168 826 1188 822 1177 b 778 1153 802 1159 791 1154 l 474 1140 b 462 1140 471 1140 467 1140 b 451 1139 457 1139 453 1139 m 76 521 b 213 902 76 673 122 800 b 576 1056 304 1004 425 1056 b 940 902 727 1056 848 1004 b 1076 521 1031 800 1076 673 b 935 141 1076 371 1029 244 b 576 -14 841 38 722 -14 b 213 140 425 -14 304 37 b 76 521 122 242 76 369 m 236 521 b 321 186 236 385 264 273 b 576 56 377 99 463 56 b 737 92 638 56 692 68 b 842 194 782 116 817 150 b 899 341 868 238 887 287 b 917 521 911 395 917 455 b 832 856 917 657 888 769 b 576 986 775 943 690 986 b 321 856 463 986 377 943 b 236 521 264 769 236 657 "},"":{"ha":1153,"x_min":0,"x_max":0,"o":"m 878 1185 b 864 1168 878 1179 873 1174 b 839 1160 855 1163 846 1160 b 819 1165 831 1160 825 1162 b 795 1185 813 1169 805 1175 b 775 1203 785 1194 779 1200 l 622 1329 b 576 1358 600 1349 585 1358 b 533 1333 569 1358 555 1350 l 361 1190 b 314 1160 338 1170 322 1160 b 289 1167 308 1160 300 1162 b 272 1183 278 1172 272 1178 b 276 1192 272 1186 274 1189 b 289 1204 279 1196 283 1200 b 300 1214 294 1209 298 1212 l 494 1408 l 503 1417 l 512 1426 b 519 1432 513 1427 516 1429 b 528 1438 522 1435 525 1437 b 539 1441 531 1438 534 1440 b 553 1444 544 1442 548 1443 b 572 1444 559 1444 565 1444 b 602 1443 584 1444 594 1444 b 625 1435 610 1442 618 1440 b 640 1426 632 1431 637 1428 b 655 1411 642 1425 647 1419 b 669 1396 663 1403 668 1398 l 839 1226 b 855 1213 842 1224 847 1219 b 872 1197 863 1207 869 1202 b 878 1185 876 1193 878 1188 m 76 521 b 213 902 76 673 122 800 b 576 1056 304 1004 425 1056 b 940 902 727 1056 848 1004 b 1076 521 1031 800 1076 673 b 935 141 1076 371 1029 244 b 576 -14 841 38 722 -14 b 213 140 425 -14 304 37 b 76 521 122 242 76 369 m 236 521 b 321 186 236 385 264 273 b 576 56 377 99 463 56 b 737 92 638 56 692 68 b 842 194 782 116 817 150 b 899 341 868 238 887 287 b 917 521 911 395 917 455 b 832 856 917 657 888 769 b 576 986 775 943 690 986 b 321 856 463 986 377 943 b 236 521 264 769 236 657 "},"":{"ha":1153,"x_min":0,"x_max":0,"o":"m 436 1297 b 339 1258 389 1297 356 1284 b 327 1222 333 1251 329 1239 b 314 1181 325 1204 320 1191 b 276 1167 307 1172 295 1167 b 236 1192 250 1167 236 1175 l 243 1231 b 314 1356 253 1286 277 1328 b 444 1399 351 1384 394 1399 b 542 1378 481 1399 514 1392 b 603 1333 569 1365 590 1350 b 653 1288 617 1317 633 1302 b 717 1268 672 1275 694 1268 b 831 1347 780 1268 818 1294 b 833 1369 831 1353 832 1360 b 837 1388 834 1379 835 1385 b 847 1395 838 1390 842 1393 b 874 1399 853 1397 862 1399 b 915 1365 901 1399 915 1388 b 901 1306 915 1358 911 1338 b 827 1202 887 1260 862 1226 b 708 1167 792 1178 753 1167 b 599 1187 666 1167 629 1173 b 533 1232 568 1200 546 1215 b 489 1277 520 1249 506 1264 b 436 1297 472 1291 455 1297 m 76 521 b 213 902 76 673 122 800 b 576 1056 304 1004 425 1056 b 940 902 727 1056 848 1004 b 1076 521 1031 800 1076 673 b 935 141 1076 371 1029 244 b 576 -14 841 38 722 -14 b 213 140 425 -14 304 37 b 76 521 122 242 76 369 m 236 521 b 321 186 236 385 264 273 b 576 56 377 99 463 56 b 737 92 638 56 692 68 b 842 194 782 116 817 150 b 899 341 868 238 887 287 b 917 521 911 395 917 455 b 832 856 917 657 888 769 b 576 986 775 943 690 986 b 321 856 463 986 377 943 b 236 521 264 769 236 657 "},"":{"ha":1153,"x_min":0,"x_max":0,"o":"m 632 1222 b 656 1281 632 1245 640 1265 b 715 1306 672 1297 692 1306 b 774 1281 738 1306 758 1297 b 799 1222 791 1265 799 1245 b 774 1163 799 1199 791 1179 b 715 1139 758 1147 738 1139 b 656 1163 692 1139 672 1147 b 632 1222 640 1179 632 1199 m 354 1222 b 378 1281 354 1245 362 1265 b 438 1306 395 1297 414 1306 b 497 1281 461 1306 480 1297 b 521 1222 513 1265 521 1245 b 497 1163 521 1199 513 1179 b 438 1139 480 1147 461 1139 b 378 1163 414 1139 395 1147 b 354 1222 362 1179 354 1199 m 76 521 b 213 902 76 673 122 800 b 576 1056 304 1004 425 1056 b 940 902 727 1056 848 1004 b 1076 521 1031 800 1076 673 b 935 141 1076 371 1029 244 b 576 -14 841 38 722 -14 b 213 140 425 -14 304 37 b 76 521 122 242 76 369 m 236 521 b 321 186 236 385 264 273 b 576 56 377 99 463 56 b 737 92 638 56 692 68 b 842 194 782 116 817 150 b 899 341 868 238 887 287 b 917 521 911 395 917 455 b 832 856 917 657 888 769 b 576 986 775 943 690 986 b 321 856 463 986 377 943 b 236 521 264 769 236 657 "},"":{"ha":736,"x_min":0,"x_max":0,"o":"m 513 638 b 542 657 525 650 535 657 b 576 632 548 657 560 649 b 588 610 584 625 588 617 b 580 592 588 603 585 597 b 559 574 575 586 568 580 b 543 561 550 567 545 563 l 458 476 b 432 438 441 459 432 446 b 463 396 432 430 442 416 l 571 288 b 586 264 581 277 586 269 b 563 231 586 257 578 246 b 542 219 555 223 548 219 b 522 229 535 219 529 223 b 511 241 520 231 517 235 b 497 256 506 247 501 252 l 406 347 b 367 375 387 366 374 375 b 340 357 361 375 352 369 l 228 244 b 192 219 211 228 199 219 b 167 236 186 219 178 225 b 146 265 153 250 146 260 b 153 281 146 271 148 276 b 163 290 155 282 158 285 b 175 300 168 294 172 297 l 290 415 b 304 438 300 425 304 432 b 281 471 304 444 296 455 l 167 585 b 146 613 153 599 146 608 b 168 640 146 616 153 625 b 196 657 179 651 188 657 b 210 652 200 657 205 655 b 224 637 214 649 219 644 b 236 622 229 630 233 625 l 326 532 b 367 503 346 513 359 503 b 411 536 374 503 389 514 "},"":{"ha":1153,"x_min":0,"x_max":0,"o":"m 76 521 b 213 902 76 673 122 800 b 576 1056 304 1004 425 1056 b 713 1039 625 1056 671 1050 l 726 1074 b 733 1096 728 1079 731 1087 b 741 1118 736 1105 739 1113 b 751 1135 743 1124 747 1129 b 768 1149 755 1141 761 1146 b 796 1153 775 1151 785 1153 b 840 1129 825 1153 840 1145 b 834 1106 840 1123 838 1115 b 819 1076 830 1097 825 1087 b 806 1049 813 1064 808 1055 l 790 1011 b 1001 819 880 970 950 906 b 1076 521 1051 731 1076 632 b 935 141 1076 371 1029 244 b 576 -14 841 38 722 -14 b 394 17 512 -14 451 -4 l 363 -64 l 355 -87 b 347 -106 352 -97 349 -103 b 339 -119 345 -109 343 -114 b 326 -131 335 -125 331 -129 b 306 -136 321 -132 314 -134 b 275 -139 297 -138 287 -139 b 242 -121 253 -139 242 -133 b 253 -90 242 -115 246 -105 b 268 -60 261 -74 266 -64 l 315 56 b 140 247 240 101 182 165 b 76 521 97 330 76 421 m 685 969 b 576 986 652 981 616 986 b 321 856 463 986 377 943 b 236 521 264 769 236 657 b 351 147 236 354 275 230 m 424 92 b 576 56 470 68 521 56 b 737 92 638 56 692 68 b 842 194 782 116 817 150 b 899 341 868 238 887 287 b 917 521 911 395 917 455 b 877 767 917 613 903 694 b 758 932 851 839 811 894 l 424 92 "},"":{"ha":1139,"x_min":0,"x_max":0,"o":"m 368 1153 b 334 1168 355 1154 344 1159 b 319 1201 324 1177 319 1188 b 332 1234 319 1213 324 1224 b 367 1249 340 1244 352 1249 b 382 1247 373 1249 378 1248 l 679 1175 b 694 1173 681 1175 686 1174 b 709 1168 702 1172 707 1170 b 713 1158 711 1166 713 1163 b 707 1142 713 1149 711 1144 b 685 1140 703 1140 696 1139 l 368 1153 m 750 965 b 737 965 747 965 743 965 b 725 964 731 964 727 964 b 708 981 714 964 708 969 l 708 1019 b 711 1038 708 1030 709 1036 b 725 1042 713 1041 718 1042 l 1050 1042 b 1070 1042 1055 1042 1061 1042 b 1089 1043 1079 1043 1085 1043 b 1118 1017 1108 1043 1118 1034 b 1112 973 1118 993 1116 978 b 1078 965 1108 968 1096 965 l 1058 965 b 1032 967 1053 965 1044 966 b 1006 968 1020 968 1011 968 b 965 936 979 968 965 957 l 965 417 b 873 85 965 266 934 155 b 576 -21 811 14 713 -21 b 269 96 436 -21 333 18 b 174 417 206 174 174 281 l 174 926 b 165 958 174 943 171 954 b 119 965 159 963 144 965 l 92 965 b 72 964 88 965 81 965 b 51 963 63 963 56 963 b 21 986 31 963 21 970 l 21 1025 b 42 1043 21 1037 28 1043 b 55 1042 44 1043 49 1043 b 69 1042 61 1042 66 1042 l 450 1042 b 472 1019 465 1042 472 1034 l 472 1006 b 469 983 472 994 471 987 b 448 972 468 978 460 975 b 386 965 435 968 415 966 l 382 965 b 364 966 378 965 372 966 b 346 967 356 966 350 967 b 306 928 319 967 306 954 l 306 431 b 372 160 306 315 328 225 b 597 63 416 95 491 63 b 819 144 703 63 777 90 b 882 417 861 198 882 289 l 882 922 b 876 958 882 941 880 953 b 851 965 873 963 864 965 "}}}
